G04 Generated by Ultiboard 14.2 *
%FSLAX24Y24*%
%MOIN*%

%ADD10C,0.0001*%
%ADD11C,0.0200*%
%ADD12C,0.0100*%
%ADD13C,0.0050*%
%ADD14R,0.2185X0.2343*%
%ADD15R,0.0492X0.1122*%
%ADD16R,0.0108X0.0417*%
%ADD17C,0.0167*%
%ADD18C,0.0500*%
%ADD19C,0.0633*%
%ADD20R,0.0208X0.0208*%
%ADD21C,0.0392*%
%ADD22R,0.0417X0.0108*%
%ADD23R,0.0225X0.0583*%
%ADD24C,0.1890*%
%ADD25C,0.0236*%
%ADD26R,0.0001X0.0394*%
%ADD27C,0.0512*%
%ADD28R,0.0551X0.0630*%
%ADD29C,0.0551*%
%ADD30R,0.0551X0.0551*%
%ADD31C,0.0600*%
%ADD32R,0.0598X0.0850*%


G04 ColorRGB 00FF00 for the following layer *
%LNCopper Top*%
%LPD*%
G54D10*
G54D11*
X3776Y8800D02*
X4000Y9024D01*
X18676Y8700D02*
X19000Y9024D01*
X2824Y9024D02*
X2650Y8850D01*
X400Y4400D02*
X2200Y4400D01*
X4000Y9024D02*
X2824Y9024D01*
X1150Y10450D02*
X2400Y11700D01*
X2650Y8850D02*
X2650Y4850D01*
X2200Y4400D01*
X1200Y7400D02*
X1750Y7950D01*
X1400Y6400D02*
X2050Y7050D01*
X2050Y10077D02*
X2773Y10800D01*
X700Y9400D02*
X1150Y9850D01*
X400Y7400D02*
X1200Y7400D01*
X400Y6400D02*
X1400Y6400D01*
X2050Y7050D02*
X2050Y10077D01*
X400Y9400D02*
X700Y9400D01*
X17776Y9024D02*
X17500Y9300D01*
X19000Y9024D02*
X17776Y9024D01*
X1450Y10326D02*
X2524Y11400D01*
X2000Y12000D02*
X400Y10400D01*
X1150Y9850D02*
X1150Y10450D01*
X1450Y8850D02*
X1450Y10326D01*
X1000Y8400D02*
X1450Y8850D01*
X400Y8400D02*
X1000Y8400D01*
X1750Y7950D02*
X1750Y10201D01*
X2649Y11100D01*
X20500Y1400D02*
X20700Y1600D01*
X20276Y1600D02*
X19000Y1600D01*
X20500Y2100D02*
X20500Y1824D01*
X20276Y1600D01*
X20500Y900D02*
X20500Y1400D01*
X20700Y1600D02*
X20900Y1600D01*
X17500Y1500D02*
X16000Y1500D01*
X14500Y1500D02*
X13000Y1500D01*
X11500Y1500D02*
X10000Y1500D01*
X8500Y1500D02*
X7000Y1500D01*
X5500Y1500D02*
X4000Y1500D01*
X400Y11400D02*
X1600Y12600D01*
X3098Y4234D02*
X3098Y4998D01*
X3400Y5300D01*
X22500Y5300D02*
X22902Y5702D01*
X3400Y5300D02*
X22500Y5300D01*
X22902Y5702D02*
X22902Y6366D01*
X4902Y6366D02*
X4902Y5702D01*
X4500Y5300D01*
X6098Y4234D02*
X6098Y4898D01*
X6500Y5300D01*
X9098Y4234D02*
X9098Y4898D01*
X9500Y5300D01*
X10902Y6366D02*
X10902Y5702D01*
X10500Y5300D01*
X12098Y4234D02*
X12098Y4898D01*
X12500Y5300D01*
X13902Y6366D02*
X13902Y5702D01*
X13500Y5300D01*
X15098Y4234D02*
X15098Y4898D01*
X15500Y5300D01*
X16902Y6366D02*
X16902Y5702D01*
X16500Y5300D01*
X18098Y4234D02*
X18098Y4898D01*
X18500Y5300D01*
X19902Y6366D02*
X19902Y5702D01*
X19500Y5300D01*
X21098Y4234D02*
X21098Y4898D01*
X21500Y5300D01*
X22900Y3600D02*
X22900Y4100D01*
X22300Y4300D02*
X22300Y3600D01*
X22400Y3500D02*
X22800Y3500D01*
X22300Y3600D02*
X22400Y3500D01*
X22800Y3500D02*
X22900Y3600D01*
X3100Y7000D02*
X3100Y6500D01*
X4200Y6400D02*
X4200Y7000D01*
X4100Y7100D02*
X3200Y7100D01*
X4200Y7000D02*
X4100Y7100D01*
X3200Y7100D02*
X3100Y7000D01*
X9700Y6300D02*
X9700Y7000D01*
X9098Y6366D02*
X9098Y6998D01*
X9600Y7100D02*
X9200Y7100D01*
X9700Y7000D02*
X9600Y7100D01*
X9200Y7100D02*
X9098Y6998D01*
X12200Y7100D02*
X12100Y7000D01*
X12100Y6368D01*
X15700Y7000D02*
X15700Y6300D01*
X18098Y6366D02*
X18098Y6998D01*
X18700Y7000D02*
X18700Y6300D01*
X21098Y6366D02*
X21098Y6998D01*
X21700Y7000D02*
X21700Y6300D01*
X21200Y7100D02*
X21600Y7100D01*
X21700Y7000D01*
X21098Y6998D02*
X21200Y7100D01*
X18200Y7100D02*
X18600Y7100D01*
X18098Y6998D02*
X18200Y7100D01*
X18600Y7100D02*
X18700Y7000D01*
X15098Y6366D02*
X15098Y6998D01*
X15200Y7100D02*
X15600Y7100D01*
X15700Y7000D01*
X15098Y6998D02*
X15200Y7100D01*
X12700Y7000D02*
X12600Y7100D01*
X12700Y6300D02*
X12700Y7000D01*
X12600Y7100D02*
X12200Y7100D01*
X19902Y4234D02*
X19902Y3602D01*
X19300Y3600D02*
X19300Y4300D01*
X16902Y4234D02*
X16902Y3602D01*
X16300Y3600D02*
X16300Y4300D01*
X13902Y4234D02*
X13902Y3602D01*
X13300Y3600D02*
X13300Y4300D01*
X10902Y4234D02*
X10902Y3602D01*
X10300Y3600D02*
X10300Y4300D01*
X7902Y4234D02*
X7902Y3602D01*
X7300Y3600D02*
X7300Y4300D01*
X4902Y4234D02*
X4902Y3602D01*
X4300Y3600D02*
X4300Y4300D01*
X4800Y3500D02*
X4400Y3500D01*
X4902Y3602D02*
X4800Y3500D01*
X4400Y3500D02*
X4300Y3600D01*
X7800Y3500D02*
X7400Y3500D01*
X7300Y3600D01*
X7902Y3602D02*
X7800Y3500D01*
X10800Y3500D02*
X10400Y3500D01*
X10300Y3600D01*
X10902Y3602D02*
X10800Y3500D01*
X13800Y3500D02*
X13400Y3500D01*
X13300Y3600D01*
X13902Y3602D02*
X13800Y3500D01*
X16800Y3500D02*
X16400Y3500D01*
X16300Y3600D01*
X16902Y3602D02*
X16800Y3500D01*
X19800Y3500D02*
X19400Y3500D01*
X19902Y3602D02*
X19800Y3500D01*
X19400Y3500D02*
X19300Y3600D01*
X17100Y19600D02*
X17900Y19600D01*
X17600Y18600D02*
X17600Y19000D01*
X17500Y19100D01*
X13100Y19600D02*
X12900Y19800D01*
X15300Y19600D02*
X13100Y19600D01*
X12900Y19800D02*
X12900Y20132D01*
X15900Y18900D02*
X15600Y18600D01*
X16500Y18700D02*
X16600Y18600D01*
X16500Y18700D02*
X16500Y20583D01*
X17117Y21200D01*
X15900Y18900D02*
X15900Y19600D01*
X15900Y20500D01*
X15200Y21200D01*
X18600Y18600D02*
X18600Y18800D01*
X18900Y19100D01*
X18900Y19400D02*
X18700Y19600D01*
X18900Y19100D02*
X18900Y19400D01*
X18700Y19600D02*
X18500Y19600D01*
X22250Y21000D02*
X21900Y21000D01*
X21600Y21300D01*
X21600Y22200D01*
X23250Y19450D02*
X23600Y19100D01*
X23600Y18600D01*
X22650Y19450D02*
X23250Y19450D01*
X22600Y19076D02*
X22600Y18600D01*
X19600Y22200D02*
X19600Y21300D01*
X20600Y22200D02*
X20600Y20800D01*
X21000Y19900D02*
X21776Y19900D01*
X21900Y20200D02*
X22650Y19450D01*
X21200Y20200D02*
X21900Y20200D01*
X20600Y20800D02*
X21200Y20200D01*
X21776Y19900D02*
X22600Y19076D01*
X19600Y21300D02*
X21000Y19900D01*
X24600Y19500D02*
X24800Y19700D01*
X24800Y20300D01*
X24600Y19500D02*
X24100Y20000D01*
X22700Y20000D01*
X22250Y20450D01*
X22250Y21000D01*
X18900Y19800D02*
X18700Y19600D01*
X18900Y22500D02*
X18900Y19800D01*
X19300Y22900D02*
X18900Y22500D01*
X23350Y21000D02*
X23600Y21000D01*
X23700Y21100D02*
X23700Y21500D01*
X23600Y21000D02*
X23700Y21100D01*
X23700Y21500D02*
X23600Y21600D01*
X22600Y21600D02*
X22400Y21800D01*
X23600Y21600D02*
X22600Y21600D01*
X22400Y22500D02*
X22000Y22900D01*
X19300Y22900D01*
X22400Y21800D02*
X22400Y22500D01*
X16300Y16300D02*
X16600Y16000D01*
X16600Y15600D01*
X14300Y13200D02*
X13375Y13200D01*
X14900Y13200D02*
X15200Y13200D01*
X15600Y13600D01*
X15600Y15600D01*
X24800Y20900D02*
X24800Y21800D01*
X24600Y18100D02*
X24600Y19500D01*
X24600Y18100D02*
X24200Y17700D01*
X11114Y19314D02*
X11114Y20146D01*
X14400Y22000D02*
X17900Y22000D01*
X14000Y21600D02*
X14400Y22000D01*
X14600Y19600D02*
X14000Y20200D01*
X14000Y21600D01*
X12327Y11100D02*
X13000Y10427D01*
X12700Y12000D02*
X2000Y12000D01*
X2400Y11700D02*
X12576Y11700D01*
X2524Y11400D02*
X12451Y11400D01*
X13000Y10427D02*
X13000Y9024D01*
X2649Y11100D02*
X12327Y11100D01*
X9600Y10800D02*
X10000Y10400D01*
X10000Y9024D01*
X2773Y10800D02*
X9600Y10800D01*
X16000Y10400D02*
X16000Y9024D01*
X13151Y10700D02*
X15700Y10700D01*
X13400Y11300D02*
X12700Y12000D01*
X12576Y11700D02*
X13276Y11000D01*
X15700Y10700D02*
X16000Y10400D01*
X12451Y11400D02*
X13151Y10700D01*
X17900Y22000D02*
X18300Y21600D01*
X18300Y20600D01*
X17500Y19800D01*
X17500Y19100D02*
X17500Y19800D01*
X10800Y19000D02*
X11114Y19314D01*
X11100Y17700D02*
X10800Y18000D01*
X10800Y19000D01*
X24200Y17700D02*
X11100Y17700D01*
X10400Y16300D02*
X9800Y16900D01*
X10400Y16300D02*
X16300Y16300D01*
X3800Y14300D02*
X3100Y13600D01*
X400Y13600D01*
X3800Y14300D02*
X3800Y16900D01*
X3600Y17100D01*
X5600Y18087D02*
X5600Y16600D01*
X5800Y16400D01*
X5800Y15000D01*
X5600Y21513D02*
X5600Y20600D01*
X5100Y20100D01*
X3600Y21513D02*
X3600Y21000D01*
X2576Y20100D02*
X1076Y21600D01*
X5100Y20100D02*
X2576Y20100D01*
X1076Y21600D02*
X400Y21600D01*
X3600Y21000D02*
X3300Y20700D01*
X2900Y20700D02*
X1000Y22600D01*
X400Y22600D01*
X3300Y20700D02*
X2900Y20700D01*
X3600Y18600D02*
X3900Y18900D01*
X3600Y17100D02*
X3600Y18600D01*
X3900Y18900D02*
X9100Y18900D01*
X12625Y13200D02*
X9800Y13200D01*
X9100Y13900D01*
X9100Y14900D02*
X9100Y16200D01*
X9800Y16900D01*
X9100Y17900D02*
X7300Y17900D01*
X5800Y16400D01*
X22000Y9024D02*
X20776Y9024D01*
X20500Y9300D01*
X20500Y10200D02*
X20100Y10600D01*
X20500Y9300D02*
X20500Y10200D01*
X21500Y10974D02*
X21500Y11700D01*
X21700Y11900D01*
X22300Y11900D01*
X22500Y11700D01*
X22500Y10974D01*
X22500Y11700D02*
X22700Y11900D01*
X23300Y11900D01*
X23500Y11700D01*
X23500Y10974D01*
X23500Y11700D02*
X23700Y11900D01*
X24300Y11900D01*
X24500Y11700D01*
X24500Y10974D01*
X21500Y11700D02*
X21300Y11900D01*
X16951Y11000D02*
X17500Y10451D01*
X13276Y11000D02*
X16951Y11000D01*
X17500Y9300D02*
X17500Y10451D01*
X17776Y10600D02*
X17076Y11300D01*
X13400Y11300D02*
X17076Y11300D01*
X20100Y10600D02*
X17776Y10600D01*
X17800Y11000D02*
X17200Y11600D01*
X16900Y11600D02*
X16600Y11900D01*
X16600Y15600D01*
X17200Y11600D02*
X16900Y11600D01*
X21300Y11900D02*
X20636Y11900D01*
X19736Y11000D01*
X17800Y11000D01*
X2350Y9953D02*
X2897Y10500D01*
X1600Y5400D02*
X2350Y6150D01*
X2350Y9953D01*
X400Y5400D02*
X1600Y5400D01*
X6824Y10500D02*
X7000Y10324D01*
X2897Y10500D02*
X6824Y10500D01*
X7000Y10324D02*
X7000Y9024D01*
X6700Y7000D02*
X6600Y7100D01*
X6200Y7100D02*
X6098Y6998D01*
X6700Y6300D02*
X6700Y7000D01*
X6600Y7100D02*
X6200Y7100D01*
X6098Y6366D02*
X6098Y6998D01*
X7902Y6366D02*
X7902Y5702D01*
X7500Y5300D01*
X9800Y16900D02*
X9800Y21200D01*
X9600Y21400D01*
X9300Y21400D01*
X9600Y21400D02*
X9800Y21600D01*
X9800Y22000D02*
X9600Y22200D01*
X8500Y22200D01*
X9800Y21600D02*
X9800Y22000D01*
X8500Y22200D02*
X8500Y22600D01*
X8300Y22800D01*
X7300Y22800D01*
X7000Y23100D01*
X7000Y23600D01*
X8700Y21400D02*
X7800Y21400D01*
X14900Y14200D02*
X15300Y14200D01*
X15600Y14500D01*
X14300Y14200D02*
X14000Y14200D01*
X13800Y14000D01*
X13800Y13200D01*
X7800Y21400D02*
X7400Y21800D01*
X7175Y21800D01*
X7400Y21800D02*
X7800Y22200D01*
X7900Y22200D01*
X6425Y21800D02*
X6425Y22275D01*
X6000Y22700D01*
X6000Y23600D01*
G54D12*
X24600Y16000D02*
X24600Y15600D01*
X23600Y15600D02*
X23600Y16000D01*
X23500Y17100D02*
X24600Y16000D01*
X23600Y16000D02*
X22700Y16900D01*
X10783Y17100D02*
X23500Y17100D01*
X22700Y16900D02*
X10700Y16900D01*
X10700Y16900D02*
X10200Y17400D01*
X10400Y17483D02*
X10783Y17100D01*
X9900Y23600D02*
X10400Y23100D01*
X10400Y17483D01*
X9900Y23600D02*
X9000Y23600D01*
X22900Y15600D02*
X22600Y15600D01*
X23500Y15000D02*
X22900Y15600D01*
X24271Y15000D02*
X24500Y14771D01*
X24271Y15000D02*
X23500Y15000D01*
X24500Y12900D02*
X24500Y14771D01*
X17400Y11800D02*
X17400Y12100D01*
X18200Y13500D02*
X18200Y11800D01*
X23500Y12900D02*
X23500Y14226D01*
X21500Y14226D02*
X21500Y13400D01*
X21100Y13000D01*
X19600Y13500D02*
X19600Y13200D01*
X19800Y13000D01*
X21100Y13000D01*
X19000Y12700D02*
X19000Y13800D01*
X18700Y14100D01*
X19600Y14100D02*
X19600Y14400D01*
X19400Y14600D01*
X18200Y14400D02*
X18200Y14100D01*
X19400Y14600D02*
X18400Y14600D01*
X17400Y12700D02*
X17400Y13800D01*
X17700Y14100D01*
X18700Y14100D01*
X18200Y14400D02*
X18600Y14800D01*
X18600Y15600D01*
X19700Y12100D02*
X19000Y12100D01*
X18200Y11800D02*
X18400Y11600D01*
X17400Y11800D02*
X17800Y11400D01*
X18400Y11600D02*
X19500Y11600D01*
X17800Y11400D02*
X19583Y11400D01*
X20483Y12300D02*
X23900Y12300D01*
X20300Y12700D02*
X19700Y12100D01*
X21800Y12700D02*
X20300Y12700D01*
X22500Y13400D02*
X21800Y12700D01*
X19500Y11600D02*
X20400Y12500D01*
X23100Y12500D02*
X23500Y12900D01*
X20400Y12500D02*
X23100Y12500D01*
X19583Y11400D02*
X20483Y12300D01*
X23900Y12300D02*
X24500Y12900D01*
X22500Y13400D02*
X22500Y14600D01*
X23000Y15100D02*
X23500Y14600D01*
X21600Y15600D02*
X21600Y15400D01*
X21900Y15100D02*
X23000Y15100D01*
X21600Y15400D02*
X21900Y15100D01*
X21300Y14900D02*
X20600Y15600D01*
X22400Y14600D02*
X22100Y14900D01*
X22400Y14600D02*
X22500Y14600D01*
X22100Y14900D02*
X21300Y14900D01*
X21500Y14226D02*
X20974Y14226D01*
X19600Y15600D01*
X8000Y23500D02*
X8000Y23600D01*
X10200Y17400D02*
X10200Y22517D01*
X9717Y23000D02*
X8500Y23000D01*
X8000Y23500D01*
X10200Y22517D02*
X9717Y23000D01*
G54D13*
X-303Y102D02*
X-303Y2542D01*
X-303Y102D02*
X2287Y102D01*
X25597Y102D02*
X23007Y102D01*
X25597Y102D02*
X25597Y2542D01*
X25597Y24503D02*
X25597Y22063D01*
X25597Y24503D02*
X23007Y24503D01*
X-303Y24503D02*
X2287Y24503D01*
X-303Y24503D02*
X-303Y22063D01*
X-2272Y102D02*
X-6209Y102D01*
X-4240Y-1866D02*
X-4240Y2071D01*
X-5717Y102D02*
G75*
D01*
G02X-5717Y102I1477J0*
G01*
X27566Y102D02*
X31503Y102D01*
X29534Y-1866D02*
X29534Y2071D01*
X28058Y102D02*
G75*
D01*
G02X28058Y102I1476J0*
G01*
X29042Y102D02*
G75*
D01*
G02X29042Y102I492J0*
G01*
X-2272Y24503D02*
X-6209Y24503D01*
X-4240Y22535D02*
X-4240Y26472D01*
X-5717Y24503D02*
G75*
D01*
G02X-5717Y24503I1477J0*
G01*
X-5224Y24503D02*
G75*
D01*
G02X-5224Y24503I984J0*
G01*
X-4732Y24503D02*
G75*
D01*
G02X-4732Y24503I492J0*
G01*
G54D14*
X13000Y1576D03*
X4000Y1576D03*
X22000Y1576D03*
X19000Y1576D03*
X10000Y1576D03*
X7000Y1576D03*
X13000Y9024D03*
X10000Y9024D03*
X22000Y9024D03*
X19000Y9024D03*
X16000Y9024D03*
X7000Y9024D03*
X4000Y9024D03*
X16000Y1576D03*
G54D15*
X12098Y4234D03*
X13902Y4234D03*
X3098Y4234D03*
X4902Y4234D03*
X21098Y4234D03*
X22902Y4234D03*
X18098Y4234D03*
X19902Y4234D03*
X9098Y4234D03*
X10902Y4234D03*
X6098Y4234D03*
X7902Y4234D03*
X12098Y6366D03*
X13902Y6366D03*
X9098Y6366D03*
X10902Y6366D03*
X21098Y6366D03*
X22902Y6366D03*
X18098Y6366D03*
X19902Y6366D03*
X15098Y6366D03*
X16902Y6366D03*
X6098Y6366D03*
X7902Y6366D03*
X3098Y6366D03*
X4902Y6366D03*
X15098Y4234D03*
X16902Y4234D03*
G54D16*
X13375Y13200D03*
X12625Y13200D03*
X14900Y13200D03*
X14300Y13200D03*
X16500Y19600D03*
X17100Y19600D03*
X15300Y19600D03*
X15900Y19600D03*
X17900Y19600D03*
X18500Y19600D03*
X9300Y21400D03*
X8700Y21400D03*
X8500Y22200D03*
X7900Y22200D03*
X7175Y21800D03*
X6425Y21800D03*
X14900Y14200D03*
X14300Y14200D03*
G54D17*
X13321Y12992D02*
X13429Y12992D01*
X13429Y13408D01*
X13321Y13408D01*
X13321Y12992D01*D02*
X12571Y12992D02*
X12679Y12992D01*
X12679Y13408D01*
X12571Y13408D01*
X12571Y12992D01*D02*
X24592Y20246D02*
X25008Y20246D01*
X25008Y20354D01*
X24592Y20354D01*
X24592Y20246D01*D02*
X24592Y20846D02*
X25008Y20846D01*
X25008Y20954D01*
X24592Y20954D01*
X24592Y20846D01*D02*
X22138Y20709D02*
X22362Y20709D01*
X22362Y21291D01*
X22138Y21291D01*
X22138Y20709D01*D02*
X23238Y20709D02*
X23462Y20709D01*
X23462Y21291D01*
X23238Y21291D01*
X23238Y20709D01*D02*
X14846Y12992D02*
X14954Y12992D01*
X14954Y13408D01*
X14846Y13408D01*
X14846Y12992D01*D02*
X14246Y12992D02*
X14354Y12992D01*
X14354Y13408D01*
X14246Y13408D01*
X14246Y12992D01*D02*
X16446Y19392D02*
X16554Y19392D01*
X16554Y19808D01*
X16446Y19808D01*
X16446Y19392D01*D02*
X17046Y19392D02*
X17154Y19392D01*
X17154Y19808D01*
X17046Y19808D01*
X17046Y19392D01*D02*
X15246Y19392D02*
X15354Y19392D01*
X15354Y19808D01*
X15246Y19808D01*
X15246Y19392D01*D02*
X15846Y19392D02*
X15954Y19392D01*
X15954Y19808D01*
X15846Y19808D01*
X15846Y19392D01*D02*
X17846Y19392D02*
X17954Y19392D01*
X17954Y19808D01*
X17846Y19808D01*
X17846Y19392D01*D02*
X18446Y19392D02*
X18554Y19392D01*
X18554Y19808D01*
X18446Y19808D01*
X18446Y19392D01*D02*
X9246Y21192D02*
X9354Y21192D01*
X9354Y21608D01*
X9246Y21608D01*
X9246Y21192D01*D02*
X8646Y21192D02*
X8754Y21192D01*
X8754Y21608D01*
X8646Y21608D01*
X8646Y21192D01*D02*
X19392Y14046D02*
X19808Y14046D01*
X19808Y14154D01*
X19392Y14154D01*
X19392Y14046D01*D02*
X19392Y13446D02*
X19808Y13446D01*
X19808Y13554D01*
X19392Y13554D01*
X19392Y13446D01*D02*
X17992Y13446D02*
X18408Y13446D01*
X18408Y13554D01*
X17992Y13554D01*
X17992Y13446D01*D02*
X17992Y14046D02*
X18408Y14046D01*
X18408Y14154D01*
X17992Y14154D01*
X17992Y14046D01*D02*
X17192Y12646D02*
X17608Y12646D01*
X17608Y12754D01*
X17192Y12754D01*
X17192Y12646D01*D02*
X17192Y12046D02*
X17608Y12046D01*
X17608Y12154D01*
X17192Y12154D01*
X17192Y12046D01*D02*
X18792Y12046D02*
X19208Y12046D01*
X19208Y12154D01*
X18792Y12154D01*
X18792Y12046D01*D02*
X18792Y12646D02*
X19208Y12646D01*
X19208Y12754D01*
X18792Y12754D01*
X18792Y12646D01*D02*
X8446Y21992D02*
X8554Y21992D01*
X8554Y22408D01*
X8446Y22408D01*
X8446Y21992D01*D02*
X7846Y21992D02*
X7954Y21992D01*
X7954Y22408D01*
X7846Y22408D01*
X7846Y21992D01*D02*
X7121Y21592D02*
X7229Y21592D01*
X7229Y22008D01*
X7121Y22008D01*
X7121Y21592D01*D02*
X6371Y21592D02*
X6479Y21592D01*
X6479Y22008D01*
X6371Y22008D01*
X6371Y21592D01*D02*
X14846Y13992D02*
X14954Y13992D01*
X14954Y14408D01*
X14846Y14408D01*
X14846Y13992D01*D02*
X14246Y13992D02*
X14354Y13992D01*
X14354Y14408D01*
X14246Y14408D01*
X14246Y13992D01*D02*
G54D18*
X13600Y15600D03*
X19600Y15600D03*
X22600Y15600D03*
X24600Y15600D03*
X23600Y15600D03*
X21600Y15600D03*
X20600Y15600D03*
X16600Y15600D03*
X18600Y15600D03*
X17600Y15600D03*
X15600Y15600D03*
X14600Y15600D03*
X11600Y15600D03*
X12600Y15600D03*
X13600Y18600D03*
X19600Y18600D03*
X22600Y18600D03*
X24600Y18600D03*
X23600Y18600D03*
X21600Y18600D03*
X20600Y18600D03*
X16600Y18600D03*
X18600Y18600D03*
X17600Y18600D03*
X15600Y18600D03*
X14600Y18600D03*
X11600Y18600D03*
X12600Y18600D03*
X15200Y21200D03*
X17117Y21200D03*
G54D19*
X400Y6400D03*
X400Y5400D03*
X400Y4400D03*
X400Y8400D03*
X400Y7400D03*
X400Y9400D03*
X400Y11400D03*
X400Y10400D03*
X400Y12400D03*
X400Y16600D03*
X400Y15600D03*
X400Y14600D03*
X400Y18600D03*
X400Y17600D03*
X400Y19600D03*
X400Y21600D03*
X400Y20600D03*
X400Y22600D03*
X20600Y22200D03*
X19600Y22200D03*
X7000Y23600D03*
X8000Y23600D03*
X6000Y23600D03*
G54D20*
X400Y3400D03*
X400Y13600D03*
X21600Y22200D03*
X9000Y23600D03*
G54D21*
X296Y3296D02*
X504Y3296D01*
X504Y3504D01*
X296Y3504D01*
X296Y3296D01*D02*
X296Y13496D02*
X504Y13496D01*
X504Y13704D01*
X296Y13704D01*
X296Y13496D01*D02*
X21496Y22096D02*
X21704Y22096D01*
X21704Y22304D01*
X21496Y22304D01*
X21496Y22096D01*D02*
X8896Y23496D02*
X9104Y23496D01*
X9104Y23704D01*
X8896Y23704D01*
X8896Y23496D01*D02*
G54D22*
X24800Y20300D03*
X24800Y20900D03*
X19600Y14100D03*
X19600Y13500D03*
X18200Y13500D03*
X18200Y14100D03*
X17400Y12700D03*
X17400Y12100D03*
X19000Y12100D03*
X19000Y12700D03*
G54D23*
X22250Y21000D03*
X23350Y21000D03*
G54D24*
X1600Y1500D03*
X24200Y1500D03*
X23800Y22900D03*
X3500Y23200D03*
G54D25*
X20500Y900D03*
X5500Y1500D03*
X8500Y1500D03*
X11500Y1500D03*
X14500Y1500D03*
X17500Y1500D03*
X20500Y2100D03*
X4300Y4300D03*
X7300Y4300D03*
X10300Y4300D03*
X13300Y4300D03*
X16300Y4300D03*
X19300Y4300D03*
X22300Y4300D03*
X7300Y5300D03*
X13300Y5300D03*
X16300Y5300D03*
X22500Y5300D03*
X4200Y6400D03*
X9700Y6300D03*
X12700Y6300D03*
X15700Y6300D03*
X18700Y6300D03*
X21700Y6300D03*
X1600Y12600D03*
X24800Y21800D03*
X6700Y6300D03*
G54D26*
X3600Y18087D03*
X5600Y18087D03*
X3600Y21513D03*
X5600Y21513D03*
G54D27*
X3600Y17890D02*
X3600Y17890D01*
X3600Y18284D01*
X3600Y18284D01*
X3600Y17890D01*D02*
X5600Y17890D02*
X5600Y17890D01*
X5600Y18284D01*
X5600Y18284D01*
X5600Y17890D01*D02*
X3600Y21316D02*
X3600Y21316D01*
X3600Y21710D01*
X3600Y21710D01*
X3600Y21316D01*D02*
X5600Y21316D02*
X5600Y21316D01*
X5600Y21710D01*
X5600Y21710D01*
X5600Y21316D01*D02*
G54D28*
X11114Y20146D03*
X12886Y20146D03*
X11114Y23454D03*
X12000Y23454D03*
X12886Y23454D03*
G54D29*
X5800Y15000D03*
G54D30*
X3800Y15000D03*
G54D31*
X9100Y13900D03*
X9100Y14900D03*
X9100Y17900D03*
X9100Y18900D03*
X9100Y19900D03*
G54D32*
X21500Y10974D03*
X22500Y10974D03*
X23500Y10974D03*
X24500Y10974D03*
X21500Y14226D03*
X22500Y14226D03*
X23500Y14226D03*
X24500Y14226D03*

M02*
