G04 Generated by Ultiboard 14.2 *
%FSLAX24Y24*%
%MOIN*%

%ADD10C,0.0001*%
%ADD11C,0.0050*%
%ADD12R,0.2185X0.2343*%
%ADD13R,0.0492X0.1122*%
%ADD14R,0.0108X0.0417*%
%ADD15C,0.0167*%
%ADD16C,0.0500*%
%ADD17C,0.0633*%
%ADD18R,0.0208X0.0208*%
%ADD19C,0.0392*%
%ADD20R,0.0417X0.0108*%
%ADD21R,0.0225X0.0583*%
%ADD22C,0.1890*%
%ADD23C,0.0236*%
%ADD24R,0.0001X0.0394*%
%ADD25C,0.0512*%
%ADD26R,0.0551X0.0630*%
%ADD27C,0.0551*%
%ADD28R,0.0551X0.0551*%
%ADD29C,0.0600*%
%ADD30R,0.0598X0.0850*%


G04 ColorRGB FF00CC for the following layer *
%LNSolder Mask Top*%
%LPD*%
G54D10*
G54D11*
X-303Y102D02*
X-303Y2542D01*
X-303Y102D02*
X2287Y102D01*
X25597Y102D02*
X23007Y102D01*
X25597Y102D02*
X25597Y2542D01*
X25597Y24503D02*
X25597Y22063D01*
X25597Y24503D02*
X23007Y24503D01*
X-303Y24503D02*
X2287Y24503D01*
X-303Y24503D02*
X-303Y22063D01*
X-2272Y102D02*
X-6209Y102D01*
X-4240Y-1866D02*
X-4240Y2071D01*
X-5717Y102D02*
G75*
D01*
G02X-5717Y102I1477J0*
G01*
X27566Y102D02*
X31503Y102D01*
X29534Y-1866D02*
X29534Y2071D01*
X28058Y102D02*
G75*
D01*
G02X28058Y102I1476J0*
G01*
X29042Y102D02*
G75*
D01*
G02X29042Y102I492J0*
G01*
X-2272Y24503D02*
X-6209Y24503D01*
X-4240Y22535D02*
X-4240Y26472D01*
X-5717Y24503D02*
G75*
D01*
G02X-5717Y24503I1477J0*
G01*
X-5224Y24503D02*
G75*
D01*
G02X-5224Y24503I984J0*
G01*
X-4732Y24503D02*
G75*
D01*
G02X-4732Y24503I492J0*
G01*
G54D12*
X13000Y1576D03*
X4000Y1576D03*
X22000Y1576D03*
X19000Y1576D03*
X10000Y1576D03*
X7000Y1576D03*
X13000Y9024D03*
X10000Y9024D03*
X22000Y9024D03*
X19000Y9024D03*
X16000Y9024D03*
X7000Y9024D03*
X4000Y9024D03*
X16000Y1576D03*
G54D13*
X12098Y4234D03*
X13902Y4234D03*
X3098Y4234D03*
X4902Y4234D03*
X21098Y4234D03*
X22902Y4234D03*
X18098Y4234D03*
X19902Y4234D03*
X9098Y4234D03*
X10902Y4234D03*
X6098Y4234D03*
X7902Y4234D03*
X12098Y6366D03*
X13902Y6366D03*
X9098Y6366D03*
X10902Y6366D03*
X21098Y6366D03*
X22902Y6366D03*
X18098Y6366D03*
X19902Y6366D03*
X15098Y6366D03*
X16902Y6366D03*
X6098Y6366D03*
X7902Y6366D03*
X3098Y6366D03*
X4902Y6366D03*
X15098Y4234D03*
X16902Y4234D03*
G54D14*
X13375Y13200D03*
X12625Y13200D03*
X14900Y13200D03*
X14300Y13200D03*
X16500Y19600D03*
X17100Y19600D03*
X15300Y19600D03*
X15900Y19600D03*
X17900Y19600D03*
X18500Y19600D03*
X9300Y21400D03*
X8700Y21400D03*
X8500Y22200D03*
X7900Y22200D03*
X7175Y21800D03*
X6425Y21800D03*
X14900Y14200D03*
X14300Y14200D03*
G54D15*
X13321Y12992D02*
X13429Y12992D01*
X13429Y13408D01*
X13321Y13408D01*
X13321Y12992D01*D02*
X12571Y12992D02*
X12679Y12992D01*
X12679Y13408D01*
X12571Y13408D01*
X12571Y12992D01*D02*
X24592Y20246D02*
X25008Y20246D01*
X25008Y20354D01*
X24592Y20354D01*
X24592Y20246D01*D02*
X24592Y20846D02*
X25008Y20846D01*
X25008Y20954D01*
X24592Y20954D01*
X24592Y20846D01*D02*
X22138Y20709D02*
X22362Y20709D01*
X22362Y21291D01*
X22138Y21291D01*
X22138Y20709D01*D02*
X23238Y20709D02*
X23462Y20709D01*
X23462Y21291D01*
X23238Y21291D01*
X23238Y20709D01*D02*
X14846Y12992D02*
X14954Y12992D01*
X14954Y13408D01*
X14846Y13408D01*
X14846Y12992D01*D02*
X14246Y12992D02*
X14354Y12992D01*
X14354Y13408D01*
X14246Y13408D01*
X14246Y12992D01*D02*
X16446Y19392D02*
X16554Y19392D01*
X16554Y19808D01*
X16446Y19808D01*
X16446Y19392D01*D02*
X17046Y19392D02*
X17154Y19392D01*
X17154Y19808D01*
X17046Y19808D01*
X17046Y19392D01*D02*
X15246Y19392D02*
X15354Y19392D01*
X15354Y19808D01*
X15246Y19808D01*
X15246Y19392D01*D02*
X15846Y19392D02*
X15954Y19392D01*
X15954Y19808D01*
X15846Y19808D01*
X15846Y19392D01*D02*
X17846Y19392D02*
X17954Y19392D01*
X17954Y19808D01*
X17846Y19808D01*
X17846Y19392D01*D02*
X18446Y19392D02*
X18554Y19392D01*
X18554Y19808D01*
X18446Y19808D01*
X18446Y19392D01*D02*
X9246Y21192D02*
X9354Y21192D01*
X9354Y21608D01*
X9246Y21608D01*
X9246Y21192D01*D02*
X8646Y21192D02*
X8754Y21192D01*
X8754Y21608D01*
X8646Y21608D01*
X8646Y21192D01*D02*
X19392Y14046D02*
X19808Y14046D01*
X19808Y14154D01*
X19392Y14154D01*
X19392Y14046D01*D02*
X19392Y13446D02*
X19808Y13446D01*
X19808Y13554D01*
X19392Y13554D01*
X19392Y13446D01*D02*
X17992Y13446D02*
X18408Y13446D01*
X18408Y13554D01*
X17992Y13554D01*
X17992Y13446D01*D02*
X17992Y14046D02*
X18408Y14046D01*
X18408Y14154D01*
X17992Y14154D01*
X17992Y14046D01*D02*
X17192Y12646D02*
X17608Y12646D01*
X17608Y12754D01*
X17192Y12754D01*
X17192Y12646D01*D02*
X17192Y12046D02*
X17608Y12046D01*
X17608Y12154D01*
X17192Y12154D01*
X17192Y12046D01*D02*
X18792Y12046D02*
X19208Y12046D01*
X19208Y12154D01*
X18792Y12154D01*
X18792Y12046D01*D02*
X18792Y12646D02*
X19208Y12646D01*
X19208Y12754D01*
X18792Y12754D01*
X18792Y12646D01*D02*
X8446Y21992D02*
X8554Y21992D01*
X8554Y22408D01*
X8446Y22408D01*
X8446Y21992D01*D02*
X7846Y21992D02*
X7954Y21992D01*
X7954Y22408D01*
X7846Y22408D01*
X7846Y21992D01*D02*
X7121Y21592D02*
X7229Y21592D01*
X7229Y22008D01*
X7121Y22008D01*
X7121Y21592D01*D02*
X6371Y21592D02*
X6479Y21592D01*
X6479Y22008D01*
X6371Y22008D01*
X6371Y21592D01*D02*
X14846Y13992D02*
X14954Y13992D01*
X14954Y14408D01*
X14846Y14408D01*
X14846Y13992D01*D02*
X14246Y13992D02*
X14354Y13992D01*
X14354Y14408D01*
X14246Y14408D01*
X14246Y13992D01*D02*
G54D16*
X13600Y15600D03*
X19600Y15600D03*
X22600Y15600D03*
X24600Y15600D03*
X23600Y15600D03*
X21600Y15600D03*
X20600Y15600D03*
X16600Y15600D03*
X18600Y15600D03*
X17600Y15600D03*
X15600Y15600D03*
X14600Y15600D03*
X11600Y15600D03*
X12600Y15600D03*
X13600Y18600D03*
X19600Y18600D03*
X22600Y18600D03*
X24600Y18600D03*
X23600Y18600D03*
X21600Y18600D03*
X20600Y18600D03*
X16600Y18600D03*
X18600Y18600D03*
X17600Y18600D03*
X15600Y18600D03*
X14600Y18600D03*
X11600Y18600D03*
X12600Y18600D03*
X15200Y21200D03*
X17117Y21200D03*
G54D17*
X400Y6400D03*
X400Y5400D03*
X400Y4400D03*
X400Y8400D03*
X400Y7400D03*
X400Y9400D03*
X400Y11400D03*
X400Y10400D03*
X400Y12400D03*
X400Y16600D03*
X400Y15600D03*
X400Y14600D03*
X400Y18600D03*
X400Y17600D03*
X400Y19600D03*
X400Y21600D03*
X400Y20600D03*
X400Y22600D03*
X20600Y22200D03*
X19600Y22200D03*
X7000Y23600D03*
X8000Y23600D03*
X6000Y23600D03*
G54D18*
X400Y3400D03*
X400Y13600D03*
X21600Y22200D03*
X9000Y23600D03*
G54D19*
X296Y3296D02*
X504Y3296D01*
X504Y3504D01*
X296Y3504D01*
X296Y3296D01*D02*
X296Y13496D02*
X504Y13496D01*
X504Y13704D01*
X296Y13704D01*
X296Y13496D01*D02*
X21496Y22096D02*
X21704Y22096D01*
X21704Y22304D01*
X21496Y22304D01*
X21496Y22096D01*D02*
X8896Y23496D02*
X9104Y23496D01*
X9104Y23704D01*
X8896Y23704D01*
X8896Y23496D01*D02*
G54D20*
X24800Y20300D03*
X24800Y20900D03*
X19600Y14100D03*
X19600Y13500D03*
X18200Y13500D03*
X18200Y14100D03*
X17400Y12700D03*
X17400Y12100D03*
X19000Y12100D03*
X19000Y12700D03*
G54D21*
X22250Y21000D03*
X23350Y21000D03*
G54D22*
X1600Y1500D03*
X24200Y1500D03*
X23800Y22900D03*
X3500Y23200D03*
G54D23*
X20500Y900D03*
X5500Y1500D03*
X8500Y1500D03*
X11500Y1500D03*
X14500Y1500D03*
X17500Y1500D03*
X20500Y2100D03*
X4300Y4300D03*
X7300Y4300D03*
X10300Y4300D03*
X13300Y4300D03*
X16300Y4300D03*
X19300Y4300D03*
X22300Y4300D03*
X7300Y5300D03*
X13300Y5300D03*
X16300Y5300D03*
X22500Y5300D03*
X4200Y6400D03*
X9700Y6300D03*
X12700Y6300D03*
X15700Y6300D03*
X18700Y6300D03*
X21700Y6300D03*
X1600Y12600D03*
X24800Y21800D03*
X6700Y6300D03*
G54D24*
X3600Y18087D03*
X5600Y18087D03*
X3600Y21513D03*
X5600Y21513D03*
G54D25*
X3600Y17890D02*
X3600Y17890D01*
X3600Y18284D01*
X3600Y18284D01*
X3600Y17890D01*D02*
X5600Y17890D02*
X5600Y17890D01*
X5600Y18284D01*
X5600Y18284D01*
X5600Y17890D01*D02*
X3600Y21316D02*
X3600Y21316D01*
X3600Y21710D01*
X3600Y21710D01*
X3600Y21316D01*D02*
X5600Y21316D02*
X5600Y21316D01*
X5600Y21710D01*
X5600Y21710D01*
X5600Y21316D01*D02*
G54D26*
X11114Y20146D03*
X12886Y20146D03*
X11114Y23454D03*
X12000Y23454D03*
X12886Y23454D03*
G54D27*
X5800Y15000D03*
G54D28*
X3800Y15000D03*
G54D29*
X9100Y13900D03*
X9100Y14900D03*
X9100Y17900D03*
X9100Y18900D03*
X9100Y19900D03*
G54D30*
X21500Y10974D03*
X22500Y10974D03*
X23500Y10974D03*
X24500Y10974D03*
X21500Y14226D03*
X22500Y14226D03*
X23500Y14226D03*
X24500Y14226D03*

M02*
