G04 Generated by Ultiboard 14.2 *
%FSLAX24Y24*%
%MOIN*%

%ADD10C,0.0001*%
%ADD11C,0.0050*%
%ADD12C,0.0500*%
%ADD13C,0.0633*%
%ADD14R,0.0208X0.0208*%
%ADD15C,0.0392*%
%ADD16R,0.0413X0.0689*%
%ADD17C,0.1890*%
%ADD18C,0.0236*%
%ADD19C,0.0551*%
%ADD20C,0.0600*%


G04 ColorRGB 9900CC for the following layer *
%LNSolder Mask Bottom*%
%LPD*%
G54D10*
G54D11*
X-303Y102D02*
X-303Y2542D01*
X-303Y102D02*
X2287Y102D01*
X25597Y102D02*
X23007Y102D01*
X25597Y102D02*
X25597Y2542D01*
X25597Y24503D02*
X25597Y22063D01*
X25597Y24503D02*
X23007Y24503D01*
X-303Y24503D02*
X2287Y24503D01*
X-303Y24503D02*
X-303Y22063D01*
X-2272Y102D02*
X-6209Y102D01*
X-4240Y-1866D02*
X-4240Y2071D01*
X-5717Y102D02*
G75*
D01*
G02X-5717Y102I1477J0*
G01*
X27566Y102D02*
X31503Y102D01*
X29534Y-1866D02*
X29534Y2071D01*
X28058Y102D02*
G75*
D01*
G02X28058Y102I1476J0*
G01*
X29042Y102D02*
G75*
D01*
G02X29042Y102I492J0*
G01*
X-2272Y24503D02*
X-6209Y24503D01*
X-4240Y22535D02*
X-4240Y26472D01*
X-5717Y24503D02*
G75*
D01*
G02X-5717Y24503I1477J0*
G01*
X-5224Y24503D02*
G75*
D01*
G02X-5224Y24503I984J0*
G01*
X-4732Y24503D02*
G75*
D01*
G02X-4732Y24503I492J0*
G01*
G54D12*
X13600Y15600D03*
X19600Y15600D03*
X22600Y15600D03*
X24600Y15600D03*
X23600Y15600D03*
X21600Y15600D03*
X20600Y15600D03*
X16600Y15600D03*
X18600Y15600D03*
X17600Y15600D03*
X15600Y15600D03*
X14600Y15600D03*
X11600Y15600D03*
X12600Y15600D03*
X13600Y18600D03*
X19600Y18600D03*
X22600Y18600D03*
X24600Y18600D03*
X23600Y18600D03*
X21600Y18600D03*
X20600Y18600D03*
X16600Y18600D03*
X18600Y18600D03*
X17600Y18600D03*
X15600Y18600D03*
X14600Y18600D03*
X11600Y18600D03*
X12600Y18600D03*
X15200Y21200D03*
X17117Y21200D03*
G54D13*
X400Y6400D03*
X400Y5400D03*
X400Y4400D03*
X400Y8400D03*
X400Y7400D03*
X400Y9400D03*
X400Y11400D03*
X400Y10400D03*
X400Y12400D03*
X400Y16600D03*
X400Y15600D03*
X400Y14600D03*
X400Y18600D03*
X400Y17600D03*
X400Y19600D03*
X400Y21600D03*
X400Y20600D03*
X400Y22600D03*
X20600Y22200D03*
X19600Y22200D03*
X7000Y23600D03*
X8000Y23600D03*
X6000Y23600D03*
G54D14*
X400Y3400D03*
X400Y13600D03*
X21600Y22200D03*
X9000Y23600D03*
G54D15*
X296Y3296D02*
X504Y3296D01*
X504Y3504D01*
X296Y3504D01*
X296Y3296D01*D02*
X296Y13496D02*
X504Y13496D01*
X504Y13704D01*
X296Y13704D01*
X296Y13496D01*D02*
X21496Y22096D02*
X21704Y22096D01*
X21704Y22304D01*
X21496Y22304D01*
X21496Y22096D01*D02*
X8896Y23496D02*
X9104Y23496D01*
X9104Y23704D01*
X8896Y23704D01*
X8896Y23496D01*D02*
G54D16*
X5609Y7000D03*
X6791Y7000D03*
X5609Y8000D03*
X6791Y8000D03*
X4409Y9000D03*
X5591Y9000D03*
X4409Y10000D03*
X5591Y10000D03*
X11609Y7000D03*
X12791Y7000D03*
X11609Y8000D03*
X12791Y8000D03*
X10409Y9000D03*
X11591Y9000D03*
X10409Y10000D03*
X11591Y10000D03*
X17609Y7000D03*
X18791Y7000D03*
X17609Y8000D03*
X18791Y8000D03*
X16409Y9000D03*
X17591Y9000D03*
X16409Y10000D03*
X17591Y10000D03*
X22409Y9000D03*
X23591Y9000D03*
X22409Y10000D03*
X23591Y10000D03*
X5009Y4200D03*
X6191Y4200D03*
X8009Y4200D03*
X9191Y4200D03*
X11009Y4200D03*
X12191Y4200D03*
X14009Y4200D03*
X15191Y4200D03*
X17009Y4200D03*
X18191Y4200D03*
X20009Y4200D03*
X21191Y4200D03*
X23009Y4200D03*
X24191Y4200D03*
X23009Y5200D03*
X24191Y5200D03*
X20009Y5200D03*
X21191Y5200D03*
X17009Y5200D03*
X18191Y5200D03*
X14009Y5200D03*
X15191Y5200D03*
X5009Y5200D03*
X6191Y5200D03*
X11009Y5200D03*
X12191Y5200D03*
X8009Y5200D03*
X9191Y5200D03*
G54D17*
X1600Y1500D03*
X24200Y1500D03*
X23800Y22900D03*
X3500Y23200D03*
G54D18*
X20500Y900D03*
X5500Y1500D03*
X8500Y1500D03*
X11500Y1500D03*
X14500Y1500D03*
X17500Y1500D03*
X20500Y2100D03*
X4300Y4300D03*
X7300Y4300D03*
X10300Y4300D03*
X13300Y4300D03*
X16300Y4300D03*
X19300Y4300D03*
X22300Y4300D03*
X7300Y5300D03*
X13300Y5300D03*
X16300Y5300D03*
X22500Y5300D03*
X4200Y6400D03*
X9700Y6300D03*
X12700Y6300D03*
X15700Y6300D03*
X18700Y6300D03*
X21700Y6300D03*
X1600Y12600D03*
X24800Y21800D03*
X6700Y6300D03*
G54D19*
X5800Y15000D03*
X3800Y15000D03*
G54D20*
X9100Y13900D03*
X9100Y14900D03*
X9100Y17900D03*
X9100Y18900D03*
X9100Y19900D03*

M02*
