G04 Generated by Ultiboard 14.2 *
%FSLAX24Y24*%
%MOIN*%

%ADD10C,0.0001*%
%ADD11C,0.0100*%
%ADD12C,0.0200*%
%ADD13C,0.0050*%
%ADD14C,0.0500*%
%ADD15C,0.0633*%
%ADD16R,0.0208X0.0208*%
%ADD17C,0.0392*%
%ADD18R,0.0413X0.0689*%
%ADD19C,0.1890*%
%ADD20C,0.0236*%
%ADD21C,0.0551*%
%ADD22C,0.0600*%


G04 ColorRGB 0000FF for the following layer *
%LNCopper Bottom*%
%LPD*%
G54D10*
G36*
X7148Y8344D02*
X7148Y8344D01*
X7148Y8232D01*
X7199Y8283D01*
X7199Y10713D01*
X6401Y9915D01*
X6401Y9200D01*
G75*
D01*
G02X6342Y9058I-201J0*
G01*
X6342Y9058D01*
X6142Y8858D01*
G74*
D01*
G02X6000Y8799I142J142*
G01*
X6000Y8799D01*
X5948Y8799D01*
X5948Y8656D01*
G75*
D01*
G02X5797Y8505I-151J0*
G01*
X5797Y8505D01*
X5384Y8505D01*
G75*
D01*
G02X5233Y8656I0J151*
G01*
X5233Y8656D01*
X5233Y9344D01*
G75*
D01*
G02X5384Y9495I151J0*
G01*
X5384Y9495D01*
X5797Y9495D01*
G74*
D01*
G02X5948Y9344I0J151*
G01*
X5948Y9344D01*
X5948Y9232D01*
X5999Y9283D01*
X5999Y9799D01*
X5948Y9799D01*
X5948Y9656D01*
G75*
D01*
G02X5797Y9505I-151J0*
G01*
X5797Y9505D01*
X5384Y9505D01*
G75*
D01*
G02X5233Y9656I0J151*
G01*
X5233Y9656D01*
X5233Y10344D01*
G75*
D01*
G02X5384Y10495I151J0*
G01*
X5384Y10495D01*
X5797Y10495D01*
G74*
D01*
G02X5948Y10344I0J151*
G01*
X5948Y10344D01*
X5948Y10201D01*
X6118Y10201D01*
X7499Y11582D01*
X7499Y20000D01*
G75*
D01*
G02X7558Y20142I201J0*
G01*
X7558Y20142D01*
X8558Y21142D01*
G74*
D01*
G02X8673Y21199I142J142*
G01*
G75*
D01*
G02X8700Y21201I27J-199*
G01*
X8700Y21201D01*
X10600Y21201D01*
G75*
D01*
G02X10673Y21187I0J-201*
G01*
G74*
D01*
G02X10742Y21142I73J187*
G01*
X10742Y21142D01*
X11583Y20301D01*
X22600Y20301D01*
G75*
D01*
G02X22667Y20289I0J-201*
G01*
G74*
D01*
G02X22742Y20242I67J189*
G01*
X22742Y20242D01*
X23742Y19242D01*
G74*
D01*
G02X23801Y19100I142J142*
G01*
X23801Y19100D01*
X23801Y18946D01*
G75*
D01*
G02X23399Y18946I-201J-346*
G01*
X23399Y18946D01*
X23399Y19017D01*
X22517Y19899D01*
X22085Y19899D01*
X22742Y19242D01*
G74*
D01*
G02X22801Y19100I142J142*
G01*
X22801Y19100D01*
X22801Y18946D01*
G75*
D01*
G02X22399Y18946I-201J-346*
G01*
X22399Y18946D01*
X22399Y19017D01*
X21717Y19699D01*
X21285Y19699D01*
X21742Y19242D01*
G74*
D01*
G02X21801Y19100I142J142*
G01*
X21801Y19100D01*
X21801Y18946D01*
G75*
D01*
G02X21399Y18946I-201J-346*
G01*
X21399Y18946D01*
X21399Y19017D01*
X20917Y19499D01*
X20485Y19499D01*
X20742Y19242D01*
G74*
D01*
G02X20801Y19100I142J142*
G01*
X20801Y19100D01*
X20801Y18946D01*
G75*
D01*
G02X20399Y18946I-201J-346*
G01*
X20399Y18946D01*
X20399Y19017D01*
X20117Y19299D01*
X19685Y19299D01*
X19742Y19242D01*
G74*
D01*
G02X19801Y19100I142J142*
G01*
X19801Y19100D01*
X19801Y18946D01*
G75*
D01*
G02X19399Y18946I-201J-346*
G01*
X19399Y18946D01*
X19399Y19017D01*
X19317Y19099D01*
X11502Y19099D01*
X10201Y17798D01*
X10201Y14500D01*
X10201Y14500D01*
X10201Y14500D01*
X10201Y14500D01*
X10201Y14500D01*
X10201Y14500D01*
X10201Y12083D01*
X11083Y11201D01*
X12200Y11201D01*
G75*
D01*
G02X12259Y11192I0J-201*
G01*
G74*
D01*
G02X12342Y11142I59J192*
G01*
X12342Y11142D01*
X12642Y10842D01*
G74*
D01*
G02X12701Y10700I142J142*
G01*
X12701Y10700D01*
X12701Y10300D01*
G75*
D01*
G02X12642Y10158I-201J0*
G01*
X12642Y10158D01*
X12401Y9917D01*
X12401Y9200D01*
G75*
D01*
G02X12342Y9058I-201J0*
G01*
X12342Y9058D01*
X12142Y8858D01*
G74*
D01*
G02X12000Y8799I142J142*
G01*
X12000Y8799D01*
X11948Y8799D01*
X11948Y8656D01*
G75*
D01*
G02X11797Y8505I-151J0*
G01*
X11797Y8505D01*
X11384Y8505D01*
G75*
D01*
G02X11233Y8656I0J151*
G01*
X11233Y8656D01*
X11233Y9344D01*
G75*
D01*
G02X11384Y9495I151J0*
G01*
X11384Y9495D01*
X11797Y9495D01*
G74*
D01*
G02X11948Y9344I0J151*
G01*
X11948Y9344D01*
X11948Y9232D01*
X11999Y9283D01*
X11999Y9799D01*
X11948Y9799D01*
X11948Y9656D01*
G75*
D01*
G02X11797Y9505I-151J0*
G01*
X11797Y9505D01*
X11384Y9505D01*
G75*
D01*
G02X11233Y9656I0J151*
G01*
X11233Y9656D01*
X11233Y10344D01*
G75*
D01*
G02X11384Y10495I151J0*
G01*
X11384Y10495D01*
X11797Y10495D01*
G74*
D01*
G02X11948Y10344I0J151*
G01*
X11948Y10344D01*
X11948Y10201D01*
X12117Y10201D01*
X12299Y10383D01*
X12299Y10617D01*
X12117Y10799D01*
X11000Y10799D01*
G75*
D01*
G02X10966Y10802I0J201*
G01*
G74*
D01*
G02X10858Y10858I34J198*
G01*
X10858Y10858D01*
X9874Y11842D01*
X9094Y11061D01*
X9094Y11061D01*
X8891Y10858D01*
G74*
D01*
G02X8749Y10799I142J142*
G01*
X8749Y10799D01*
X8366Y10799D01*
X8001Y10434D01*
X8001Y6483D01*
X8383Y6101D01*
X9500Y6101D01*
G75*
D01*
G02X9522Y6100I0J-201*
G01*
G75*
D01*
G02X9449Y6394I178J200*
G01*
X9449Y6394D01*
X9449Y8699D01*
G75*
D01*
G02X9522Y8878I251J1*
G01*
X9522Y8878D01*
X9822Y9178D01*
G74*
D01*
G02X9949Y9246I178J178*
G01*
G75*
D01*
G02X10000Y9251I51J-246*
G01*
X10000Y9251D01*
X10052Y9251D01*
X10052Y9344D01*
G75*
D01*
G02X10203Y9495I151J0*
G01*
X10203Y9495D01*
X10616Y9495D01*
G74*
D01*
G02X10767Y9344I0J151*
G01*
X10767Y9344D01*
X10767Y8656D01*
G75*
D01*
G02X10616Y8505I-151J0*
G01*
X10616Y8505D01*
X10203Y8505D01*
G75*
D01*
G02X10052Y8656I0J151*
G01*
X10052Y8656D01*
X10052Y8697D01*
X9951Y8596D01*
X9951Y6394D01*
G75*
D01*
G02X9647Y6037I-251J-94*
G01*
X9647Y6037D01*
X9842Y5842D01*
G74*
D01*
G02X9901Y5700I142J142*
G01*
X9901Y5700D01*
X9901Y5400D01*
G75*
D01*
G02X9842Y5258I-201J0*
G01*
X9842Y5258D01*
X9784Y5200D01*
X9842Y5142D01*
G74*
D01*
G02X9901Y5000I142J142*
G01*
X9901Y5000D01*
X9901Y4400D01*
G75*
D01*
G02X9842Y4258I-201J0*
G01*
X9842Y4258D01*
X9642Y4058D01*
G74*
D01*
G02X9548Y4005I142J142*
G01*
X9548Y4005D01*
X9548Y3856D01*
G75*
D01*
G02X9506Y3751I-151J0*
G01*
X9506Y3751D01*
X10694Y3751D01*
G75*
D01*
G02X10652Y3856I109J105*
G01*
X10652Y3856D01*
X10652Y3949D01*
X10400Y3949D01*
G75*
D01*
G02X10380Y3950I0J251*
G01*
G74*
D01*
G02X10222Y4022I20J250*
G01*
X10222Y4022D01*
X10189Y4056D01*
G75*
D01*
G02X10521Y4451I111J244*
G01*
X10521Y4451D01*
X10652Y4451D01*
X10652Y4544D01*
G75*
D01*
G02X10803Y4695I151J0*
G01*
X10803Y4695D01*
X11216Y4695D01*
G74*
D01*
G02X11367Y4544I0J151*
G01*
X11367Y4544D01*
X11367Y3856D01*
G75*
D01*
G02X11325Y3751I-151J0*
G01*
X11325Y3751D01*
X11875Y3751D01*
G75*
D01*
G02X11833Y3856I109J105*
G01*
X11833Y3856D01*
X11833Y4544D01*
G75*
D01*
G02X11984Y4695I151J0*
G01*
X11984Y4695D01*
X12397Y4695D01*
G74*
D01*
G02X12499Y4656I0J151*
G01*
X12499Y4656D01*
X12499Y4744D01*
G74*
D01*
G02X12397Y4705I102J112*
G01*
X12397Y4705D01*
X11984Y4705D01*
G75*
D01*
G02X11833Y4856I0J151*
G01*
X11833Y4856D01*
X11833Y5544D01*
G75*
D01*
G02X11984Y5695I151J0*
G01*
X11984Y5695D01*
X12397Y5695D01*
G74*
D01*
G02X12548Y5544I0J151*
G01*
X12548Y5544D01*
X12548Y5401D01*
X12617Y5401D01*
X13599Y6383D01*
X13599Y8015D01*
X13501Y7917D01*
X13501Y7200D01*
G75*
D01*
G02X13442Y7058I-201J0*
G01*
X13442Y7058D01*
X13242Y6858D01*
G74*
D01*
G02X13148Y6805I142J142*
G01*
X13148Y6805D01*
X13148Y6656D01*
G75*
D01*
G02X12997Y6505I-151J0*
G01*
X12997Y6505D01*
X12873Y6505D01*
G75*
D01*
G02X12606Y6049I-173J-205*
G01*
X12606Y6049D01*
X11300Y6049D01*
G75*
D01*
G02X11263Y6051I0J251*
G01*
G74*
D01*
G02X11122Y6122I37J249*
G01*
X11122Y6122D01*
X10922Y6322D01*
G75*
D01*
G02X10849Y6501I178J178*
G01*
X10849Y6501D01*
X10849Y6800D01*
G75*
D01*
G02X10922Y6978I251J0*
G01*
X10922Y6978D01*
X11122Y7178D01*
G74*
D01*
G02X11252Y7247I178J178*
G01*
X11252Y7247D01*
X11252Y7344D01*
G75*
D01*
G02X11403Y7495I151J0*
G01*
X11403Y7495D01*
X11816Y7495D01*
G74*
D01*
G02X11967Y7344I0J151*
G01*
X11967Y7344D01*
X11967Y6656D01*
G75*
D01*
G02X11925Y6551I-151J0*
G01*
X11925Y6551D01*
X12475Y6551D01*
G75*
D01*
G02X12433Y6656I109J105*
G01*
X12433Y6656D01*
X12433Y7344D01*
G75*
D01*
G02X12584Y7495I151J0*
G01*
X12584Y7495D01*
X12997Y7495D01*
G74*
D01*
G02X13099Y7456I0J151*
G01*
X13099Y7456D01*
X13099Y7544D01*
G74*
D01*
G02X12997Y7505I102J112*
G01*
X12997Y7505D01*
X12584Y7505D01*
G75*
D01*
G02X12433Y7656I0J151*
G01*
X12433Y7656D01*
X12433Y8344D01*
G75*
D01*
G02X12584Y8495I151J0*
G01*
X12584Y8495D01*
X12997Y8495D01*
G74*
D01*
G02X13148Y8344I0J151*
G01*
X13148Y8344D01*
X13148Y8201D01*
X13217Y8201D01*
X13399Y8383D01*
X13399Y11168D01*
X12568Y11999D01*
X11200Y11999D01*
G75*
D01*
G02X11129Y12012I0J201*
G01*
G74*
D01*
G02X11058Y12058I71J188*
G01*
X11058Y12058D01*
X10358Y12758D01*
G75*
D01*
G02X10299Y12900I142J142*
G01*
X10299Y12900D01*
X10299Y14499D01*
G75*
D01*
G02X10299Y14500I201J1*
G01*
X10299Y14500D01*
X10299Y17497D01*
G75*
D01*
G02X10358Y17640I201J1*
G01*
X10358Y17640D01*
X11214Y18496D01*
G75*
D01*
G02X11628Y18201I386J104*
G01*
X11628Y18201D01*
X12217Y18201D01*
X12325Y18309D01*
G75*
D01*
G02X12795Y18251I275J291*
G01*
G74*
D01*
G02X12742Y18158I195J49*
G01*
X12742Y18158D01*
X12585Y18001D01*
X13017Y18001D01*
X13325Y18309D01*
G75*
D01*
G02X13795Y18251I275J291*
G01*
G74*
D01*
G02X13742Y18158I195J49*
G01*
X13742Y18158D01*
X13385Y17801D01*
X13817Y17801D01*
X14325Y18309D01*
G75*
D01*
G02X14795Y18251I275J291*
G01*
G74*
D01*
G02X14742Y18158I195J49*
G01*
X14742Y18158D01*
X14042Y17458D01*
G74*
D01*
G02X13918Y17400I142J142*
G01*
G75*
D01*
G02X13900Y17399I-18J200*
G01*
X13900Y17399D01*
X11534Y17399D01*
X11301Y17166D01*
X11301Y15866D01*
G75*
D01*
G02X11801Y15254I299J-266*
G01*
X11801Y15254D01*
X11801Y14883D01*
X12983Y13701D01*
X13415Y13701D01*
X12458Y14658D01*
G75*
D01*
G02X12399Y14800I142J142*
G01*
X12399Y14800D01*
X12399Y15254D01*
G75*
D01*
G02X12801Y15254I201J346*
G01*
X12801Y15254D01*
X12801Y14883D01*
X13783Y13901D01*
X14215Y13901D01*
X13458Y14658D01*
G75*
D01*
G02X13399Y14800I142J142*
G01*
X13399Y14800D01*
X13399Y15254D01*
G75*
D01*
G02X13801Y15254I201J346*
G01*
X13801Y15254D01*
X13801Y14883D01*
X14583Y14101D01*
X15015Y14101D01*
X14458Y14658D01*
G75*
D01*
G02X14399Y14800I142J142*
G01*
X14399Y14800D01*
X14399Y15254D01*
G75*
D01*
G02X14801Y15254I201J346*
G01*
X14801Y15254D01*
X14801Y14883D01*
X15383Y14301D01*
X15815Y14301D01*
X15458Y14658D01*
G75*
D01*
G02X15399Y14800I142J142*
G01*
X15399Y14800D01*
X15399Y15254D01*
G75*
D01*
G02X15801Y15254I201J346*
G01*
X15801Y15254D01*
X15801Y14883D01*
X16183Y14501D01*
X18883Y14501D01*
G74*
D01*
G02X19025Y14442I0J201*
G01*
X19025Y14442D01*
X20942Y12525D01*
G74*
D01*
G02X21001Y12383I142J142*
G01*
X21001Y12383D01*
X21001Y11666D01*
X21266Y11401D01*
X24283Y11401D01*
G74*
D01*
G02X24425Y11342I0J201*
G01*
X24425Y11342D01*
X24942Y10825D01*
G74*
D01*
G02X25001Y10683I142J142*
G01*
X25001Y10683D01*
X25001Y5400D01*
G75*
D01*
G02X24942Y5258I-201J0*
G01*
X24942Y5258D01*
X24801Y5117D01*
X24801Y4300D01*
G75*
D01*
G02X24742Y4158I-201J0*
G01*
X24742Y4158D01*
X24642Y4058D01*
G74*
D01*
G02X24548Y4005I142J142*
G01*
X24548Y4005D01*
X24548Y3856D01*
G75*
D01*
G02X24397Y3705I-151J0*
G01*
X24397Y3705D01*
X23984Y3705D01*
G75*
D01*
G02X23833Y3856I0J151*
G01*
X23833Y3856D01*
X23833Y4544D01*
G75*
D01*
G02X23984Y4695I151J0*
G01*
X23984Y4695D01*
X24397Y4695D01*
X24399Y4695D01*
X24399Y4695D01*
X24399Y4705D01*
X24397Y4705D01*
X24397Y4705D01*
X23984Y4705D01*
G75*
D01*
G02X23833Y4856I0J151*
G01*
X23833Y4856D01*
X23833Y5544D01*
G75*
D01*
G02X23984Y5695I151J0*
G01*
X23984Y5695D01*
X24397Y5695D01*
G74*
D01*
G02X24548Y5544I0J151*
G01*
X24548Y5544D01*
X24548Y5432D01*
X24599Y5483D01*
X24599Y9215D01*
X24242Y8858D01*
G74*
D01*
G02X24100Y8799I142J142*
G01*
X24100Y8799D01*
X23948Y8799D01*
X23948Y8656D01*
G75*
D01*
G02X23797Y8505I-151J0*
G01*
X23797Y8505D01*
X23384Y8505D01*
G75*
D01*
G02X23233Y8656I0J151*
G01*
X23233Y8656D01*
X23233Y9344D01*
G75*
D01*
G02X23384Y9495I151J0*
G01*
X23384Y9495D01*
X23797Y9495D01*
G74*
D01*
G02X23899Y9456I0J151*
G01*
X23899Y9456D01*
X23899Y9544D01*
G74*
D01*
G02X23797Y9505I102J112*
G01*
X23797Y9505D01*
X23384Y9505D01*
G75*
D01*
G02X23233Y9656I0J151*
G01*
X23233Y9656D01*
X23233Y10344D01*
G75*
D01*
G02X23384Y10495I151J0*
G01*
X23384Y10495D01*
X23797Y10495D01*
G74*
D01*
G02X23948Y10344I0J151*
G01*
X23948Y10344D01*
X23948Y10201D01*
X24000Y10201D01*
G74*
D01*
G02X24142Y10142I0J201*
G01*
X24142Y10142D01*
X24242Y10042D01*
G74*
D01*
G02X24301Y9900I142J142*
G01*
X24301Y9900D01*
X24301Y9485D01*
X24399Y9583D01*
X24399Y10517D01*
X24117Y10799D01*
X21100Y10799D01*
G75*
D01*
G02X21042Y10808I0J201*
G01*
G74*
D01*
G02X20958Y10858I58J192*
G01*
X20958Y10858D01*
X20458Y11358D01*
G75*
D01*
G02X20399Y11500I142J142*
G01*
X20399Y11500D01*
X20399Y12217D01*
X18717Y13899D01*
X18685Y13899D01*
X20242Y12342D01*
G74*
D01*
G02X20301Y12200I142J142*
G01*
X20301Y12200D01*
X20301Y9601D01*
X20301Y9600D01*
X20301Y9600D01*
X20301Y9500D01*
X20301Y9500D01*
X20301Y6483D01*
X20683Y6101D01*
X21500Y6101D01*
G75*
D01*
G02X21522Y6100I0J-201*
G01*
G75*
D01*
G02X21449Y6394I178J200*
G01*
X21449Y6394D01*
X21449Y8699D01*
G75*
D01*
G02X21522Y8878I251J1*
G01*
X21522Y8878D01*
X21822Y9178D01*
G74*
D01*
G02X21949Y9246I178J178*
G01*
G75*
D01*
G02X22000Y9251I51J-246*
G01*
X22000Y9251D01*
X22052Y9251D01*
X22052Y9344D01*
G75*
D01*
G02X22203Y9495I151J0*
G01*
X22203Y9495D01*
X22616Y9495D01*
G74*
D01*
G02X22767Y9344I0J151*
G01*
X22767Y9344D01*
X22767Y8656D01*
G75*
D01*
G02X22616Y8505I-151J0*
G01*
X22616Y8505D01*
X22203Y8505D01*
G75*
D01*
G02X22052Y8656I0J151*
G01*
X22052Y8656D01*
X22052Y8697D01*
X21951Y8596D01*
X21951Y6394D01*
G75*
D01*
G02X21647Y6037I-251J-94*
G01*
X21647Y6037D01*
X21942Y5742D01*
G74*
D01*
G02X22001Y5600I142J142*
G01*
X22001Y5600D01*
X22001Y4500D01*
G75*
D01*
G02X21942Y4358I-201J0*
G01*
X21942Y4358D01*
X21642Y4058D01*
G74*
D01*
G02X21548Y4005I142J142*
G01*
X21548Y4005D01*
X21548Y3856D01*
G75*
D01*
G02X21397Y3705I-151J0*
G01*
X21397Y3705D01*
X20984Y3705D01*
G75*
D01*
G02X20833Y3856I0J151*
G01*
X20833Y3856D01*
X20833Y4544D01*
G75*
D01*
G02X20984Y4695I151J0*
G01*
X20984Y4695D01*
X21397Y4695D01*
G74*
D01*
G02X21548Y4544I0J151*
G01*
X21548Y4544D01*
X21548Y4532D01*
X21599Y4583D01*
X21599Y4999D01*
X21548Y4999D01*
X21548Y4856D01*
G75*
D01*
G02X21397Y4705I-151J0*
G01*
X21397Y4705D01*
X20984Y4705D01*
G75*
D01*
G02X20833Y4856I0J151*
G01*
X20833Y4856D01*
X20833Y5544D01*
G75*
D01*
G02X20984Y5695I151J0*
G01*
X20984Y5695D01*
X21397Y5695D01*
G74*
D01*
G02X21423Y5693I0J151*
G01*
X21423Y5693D01*
X21417Y5699D01*
X20600Y5699D01*
G75*
D01*
G02X20542Y5708I0J201*
G01*
G74*
D01*
G02X20458Y5758I58J192*
G01*
X20458Y5758D01*
X20000Y6216D01*
X18901Y5117D01*
X18901Y4400D01*
G75*
D01*
G02X18842Y4258I-201J0*
G01*
X18842Y4258D01*
X18642Y4058D01*
G74*
D01*
G02X18548Y4005I142J142*
G01*
X18548Y4005D01*
X18548Y3856D01*
G75*
D01*
G02X18506Y3751I-151J0*
G01*
X18506Y3751D01*
X19694Y3751D01*
G75*
D01*
G02X19652Y3856I109J105*
G01*
X19652Y3856D01*
X19652Y3949D01*
X19400Y3949D01*
G75*
D01*
G02X19380Y3950I0J251*
G01*
G74*
D01*
G02X19222Y4022I20J250*
G01*
X19222Y4022D01*
X19189Y4056D01*
G75*
D01*
G02X19521Y4451I111J244*
G01*
X19521Y4451D01*
X19652Y4451D01*
X19652Y4544D01*
G75*
D01*
G02X19803Y4695I151J0*
G01*
X19803Y4695D01*
X20216Y4695D01*
G74*
D01*
G02X20367Y4544I0J151*
G01*
X20367Y4544D01*
X20367Y3856D01*
G75*
D01*
G02X20325Y3751I-151J0*
G01*
X20325Y3751D01*
X20600Y3751D01*
G75*
D01*
G02X20653Y3746I0J-251*
G01*
G74*
D01*
G02X20778Y3677I53J246*
G01*
X20778Y3677D01*
X21277Y3178D01*
G74*
D01*
G02X21351Y3000I177J178*
G01*
X21351Y3000D01*
X21351Y1500D01*
G75*
D01*
G02X21277Y1322I-251J0*
G01*
X21277Y1322D01*
X20744Y789D01*
G75*
D01*
G02X20389Y1144I-244J111*
G01*
X20389Y1144D01*
X20849Y1604D01*
X20849Y2896D01*
X20496Y3249D01*
X19706Y3249D01*
X20611Y2344D01*
G75*
D01*
G02X20256Y1989I-111J-244*
G01*
X20256Y1989D01*
X19296Y2949D01*
X16406Y2949D01*
X17611Y1744D01*
G75*
D01*
G02X17256Y1389I-111J-244*
G01*
X17256Y1389D01*
X15996Y2649D01*
X13706Y2649D01*
X14611Y1744D01*
G75*
D01*
G02X14256Y1389I-111J-244*
G01*
X14256Y1389D01*
X13296Y2349D01*
X11006Y2349D01*
X11611Y1744D01*
G75*
D01*
G02X11256Y1389I-111J-244*
G01*
X11256Y1389D01*
X10596Y2049D01*
X8306Y2049D01*
X8611Y1744D01*
G75*
D01*
G02X8256Y1389I-111J-244*
G01*
X8256Y1389D01*
X7896Y1749D01*
X5600Y1749D01*
G75*
D01*
G02X5406Y1249I-100J-249*
G01*
X5406Y1249D01*
X3554Y1249D01*
G75*
D01*
G02X3474Y1262I0J251*
G01*
G74*
D01*
G02X3377Y1322I80J238*
G01*
X3377Y1322D01*
X1522Y3177D01*
G75*
D01*
G02X1449Y3355I178J177*
G01*
X1449Y3355D01*
X1449Y12379D01*
G75*
D01*
G02X1749Y12823I151J221*
G01*
X1749Y12823D01*
X1749Y13796D01*
X1196Y14349D01*
X793Y14349D01*
G75*
D01*
G02X-52Y14485I-393J251*
G01*
X-52Y14485D01*
X-52Y12515D01*
G75*
D01*
G02X749Y12710I452J-115*
G01*
X749Y12710D01*
X749Y13196D01*
X721Y13224D01*
G74*
D01*
G02X504Y13148I217J272*
G01*
X504Y13148D01*
X296Y13148D01*
G75*
D01*
G02X-52Y13496I0J348*
G01*
X-52Y13496D01*
X-52Y13704D01*
G75*
D01*
G02X296Y14052I348J0*
G01*
X296Y14052D01*
X504Y14052D01*
G74*
D01*
G02X834Y13812I0J348*
G01*
G74*
D01*
G02X878Y13777I134J212*
G01*
X878Y13777D01*
X1177Y13478D01*
G74*
D01*
G02X1251Y13300I177J178*
G01*
X1251Y13300D01*
X1251Y3700D01*
G75*
D01*
G02X1177Y3522I-251J0*
G01*
X1177Y3522D01*
X878Y3223D01*
G74*
D01*
G02X834Y3188I178J177*
G01*
G74*
D01*
G02X504Y2948I330J108*
G01*
X504Y2948D01*
X296Y2948D01*
G75*
D01*
G02X-52Y3296I0J348*
G01*
X-52Y3296D01*
X-52Y3504D01*
G75*
D01*
G02X296Y3852I348J0*
G01*
X296Y3852D01*
X504Y3852D01*
G74*
D01*
G02X721Y3776I0J348*
G01*
X721Y3776D01*
X749Y3804D01*
X749Y4090D01*
G75*
D01*
G02X-52Y4285I-349J310*
G01*
X-52Y4285D01*
X-52Y1821D01*
G74*
D01*
G02X-52Y1805I151J16*
G01*
G75*
D01*
G03X1400Y354I1452J0*
G01*
G74*
D01*
G02X1416Y353I0J152*
G01*
X1416Y353D01*
X23879Y353D01*
G75*
D01*
G02X23894Y354I15J-151*
G01*
G74*
D01*
G03X24290Y409I0J1451*
G01*
G75*
D01*
G02X25291Y1411I-90J1091*
G01*
G75*
D01*
G03X25346Y1805I-1397J394*
G01*
G74*
D01*
G02X25347Y1821I151J0*
G01*
X25347Y1821D01*
X25347Y22784D01*
G75*
D01*
G02X25346Y22800I150J16*
G01*
G74*
D01*
G03X23894Y24252I1452J0*
G01*
G75*
D01*
G02X23879Y24252I0J151*
G01*
X23879Y24252D01*
X3802Y24252D01*
G75*
D01*
G02X3198Y24252I-302J-1052*
G01*
X3198Y24252D01*
X1416Y24252D01*
G74*
D01*
G02X1400Y24252I16J151*
G01*
G75*
D01*
G03X-52Y22800I0J-1452*
G01*
G75*
D01*
G02X-52Y22784I-151J0*
G01*
X-52Y22784D01*
X-52Y22715D01*
G75*
D01*
G02X-52Y22485I452J-115*
G01*
X-52Y22485D01*
X-52Y21715D01*
G75*
D01*
G02X-52Y21485I452J-115*
G01*
X-52Y21485D01*
X-52Y20715D01*
G75*
D01*
G02X-52Y20485I452J-115*
G01*
X-52Y20485D01*
X-52Y19715D01*
G75*
D01*
G02X793Y19851I452J-115*
G01*
X793Y19851D01*
X1300Y19851D01*
G75*
D01*
G02X1388Y19835I0J-251*
G01*
G74*
D01*
G02X1478Y19777I88J235*
G01*
X1478Y19777D01*
X4877Y16378D01*
G74*
D01*
G02X4951Y16200I177J178*
G01*
X4951Y16200D01*
X4951Y12900D01*
G75*
D01*
G02X4877Y12722I-251J0*
G01*
X4877Y12722D01*
X3751Y11596D01*
X3751Y9006D01*
X3922Y9178D01*
G74*
D01*
G02X4052Y9247I178J178*
G01*
X4052Y9247D01*
X4052Y9344D01*
G75*
D01*
G02X4203Y9495I151J0*
G01*
X4203Y9495D01*
X4616Y9495D01*
G74*
D01*
G02X4767Y9344I0J151*
G01*
X4767Y9344D01*
X4767Y8656D01*
G75*
D01*
G02X4616Y8505I-151J0*
G01*
X4616Y8505D01*
X4203Y8505D01*
G75*
D01*
G02X4151Y8514I0J151*
G01*
X4151Y8514D01*
X4151Y6804D01*
X4311Y6644D01*
G75*
D01*
G02X3956Y6289I-111J-244*
G01*
X3956Y6289D01*
X3751Y6494D01*
X3751Y4204D01*
X4204Y3751D01*
X4694Y3751D01*
G75*
D01*
G02X4652Y3856I109J105*
G01*
X4652Y3856D01*
X4652Y3949D01*
X4400Y3949D01*
G75*
D01*
G02X4380Y3950I0J251*
G01*
G74*
D01*
G02X4222Y4022I20J250*
G01*
X4222Y4022D01*
X4189Y4056D01*
G75*
D01*
G02X4521Y4451I111J244*
G01*
X4521Y4451D01*
X4652Y4451D01*
X4652Y4544D01*
G75*
D01*
G02X4803Y4695I151J0*
G01*
X4803Y4695D01*
X5216Y4695D01*
G74*
D01*
G02X5367Y4544I0J151*
G01*
X5367Y4544D01*
X5367Y3856D01*
G75*
D01*
G02X5325Y3751I-151J0*
G01*
X5325Y3751D01*
X5875Y3751D01*
G75*
D01*
G02X5833Y3856I109J105*
G01*
X5833Y3856D01*
X5833Y4544D01*
G75*
D01*
G02X5984Y4695I151J0*
G01*
X5984Y4695D01*
X6397Y4695D01*
G74*
D01*
G02X6499Y4656I0J151*
G01*
X6499Y4656D01*
X6499Y4744D01*
G74*
D01*
G02X6397Y4705I102J112*
G01*
X6397Y4705D01*
X5984Y4705D01*
G75*
D01*
G02X5833Y4856I0J151*
G01*
X5833Y4856D01*
X5833Y5544D01*
G75*
D01*
G02X5984Y5695I151J0*
G01*
X5984Y5695D01*
X6397Y5695D01*
G74*
D01*
G02X6505Y5650I0J151*
G01*
G74*
D01*
G02X6558Y5742I195J50*
G01*
X6558Y5742D01*
X7399Y6583D01*
X7399Y7172D01*
G74*
D01*
G02X7342Y7058I199J28*
G01*
X7342Y7058D01*
X7148Y6864D01*
X7148Y6656D01*
G75*
D01*
G02X6997Y6505I-151J0*
G01*
X6997Y6505D01*
X6873Y6505D01*
G75*
D01*
G02X6606Y6049I-173J-205*
G01*
X6606Y6049D01*
X5300Y6049D01*
G75*
D01*
G02X5263Y6051I0J251*
G01*
G74*
D01*
G02X5122Y6122I37J249*
G01*
X5122Y6122D01*
X4922Y6322D01*
G75*
D01*
G02X4849Y6501I178J178*
G01*
X4849Y6501D01*
X4849Y6800D01*
G75*
D01*
G02X4922Y6978I251J0*
G01*
X4922Y6978D01*
X5122Y7178D01*
G74*
D01*
G02X5252Y7247I178J178*
G01*
X5252Y7247D01*
X5252Y7344D01*
G75*
D01*
G02X5403Y7495I151J0*
G01*
X5403Y7495D01*
X5816Y7495D01*
G74*
D01*
G02X5967Y7344I0J151*
G01*
X5967Y7344D01*
X5967Y6656D01*
G75*
D01*
G02X5925Y6551I-151J0*
G01*
X5925Y6551D01*
X6475Y6551D01*
G75*
D01*
G02X6433Y6656I109J105*
G01*
X6433Y6656D01*
X6433Y7344D01*
G75*
D01*
G02X6584Y7495I151J0*
G01*
X6584Y7495D01*
X6997Y7495D01*
X6999Y7495D01*
X6999Y7495D01*
X6999Y7505D01*
X6997Y7505D01*
X6997Y7505D01*
X6584Y7505D01*
G75*
D01*
G02X6433Y7656I0J151*
G01*
X6433Y7656D01*
X6433Y8344D01*
G75*
D01*
G02X6584Y8495I151J0*
G01*
X6584Y8495D01*
X6997Y8495D01*
G74*
D01*
G02X7148Y8344I0J151*
G01*
D02*
G37*
%LPC*%
G36*
X9104Y24052D02*
G74*
D01*
G02X9452Y23704I0J348*
G01*
X9452Y23704D01*
X9452Y23496D01*
G75*
D01*
G02X9104Y23148I-348J0*
G01*
X9104Y23148D01*
X8896Y23148D01*
G75*
D01*
G02X8548Y23496I0J348*
G01*
X8548Y23496D01*
X8548Y23704D01*
G75*
D01*
G02X8896Y24052I348J0*
G01*
X8896Y24052D01*
X9104Y24052D01*
D02*
G37*
G36*
X18543Y15765D02*
G75*
D01*
G02X18543Y15765I57J-165*
G01*
D02*
G37*
G36*
X18764Y15965D02*
X18764Y15965D01*
X18600Y15801D01*
X18436Y15965D01*
G75*
D01*
G02X18764Y15965I164J-365*
G01*
D02*
G37*
G36*
X18851Y18289D02*
X18851Y18289D01*
X18851Y17600D01*
G75*
D01*
G02X18833Y17506I-251J0*
G01*
G74*
D01*
G02X18777Y17422I233J94*
G01*
X18777Y17422D01*
X17851Y16496D01*
X17851Y15911D01*
G75*
D01*
G02X17851Y15289I-251J-311*
G01*
X17851Y15289D01*
X17851Y15200D01*
G75*
D01*
G02X17777Y15022I-251J0*
G01*
X17777Y15022D01*
X17578Y14823D01*
G74*
D01*
G02X17400Y14749I178J177*
G01*
X17400Y14749D01*
X16800Y14749D01*
G75*
D01*
G02X16622Y14822I0J251*
G01*
X16622Y14822D01*
X16422Y15022D01*
G75*
D01*
G02X16349Y15200I178J178*
G01*
X16349Y15200D01*
X16349Y15289D01*
G75*
D01*
G02X16860Y15296I251J311*
G01*
X16860Y15296D01*
X16904Y15251D01*
X17296Y15251D01*
X17340Y15296D01*
G75*
D01*
G02X17349Y15911I260J304*
G01*
X17349Y15911D01*
X17349Y16600D01*
G75*
D01*
G02X17422Y16778I251J0*
G01*
X17422Y16778D01*
X18349Y17704D01*
X18349Y18289D01*
G75*
D01*
G02X18851Y18289I251J311*
G01*
D02*
G37*
G36*
X17436Y18965D02*
G75*
D01*
G02X17764Y18965I164J-365*
G01*
X17764Y18965D01*
X17600Y18801D01*
X17436Y18965D01*
D02*
G37*
G36*
X16404Y18948D02*
G75*
D01*
G02X16404Y18948I196J-348*
G01*
D02*
G37*
G36*
X15404Y18948D02*
G75*
D01*
G02X15404Y18948I196J-348*
G01*
D02*
G37*
G36*
X18764Y15235D02*
G75*
D01*
G02X18436Y15235I-164J365*
G01*
X18436Y15235D01*
X18600Y15399D01*
X18764Y15235D01*
D02*
G37*
G36*
X24796Y18948D02*
G75*
D01*
G02X24796Y18948I-196J-348*
G01*
D02*
G37*
G36*
X10616Y9505D02*
X10616Y9505D01*
X10536Y9505D01*
X10536Y9873D01*
X10767Y9873D01*
X10767Y9656D01*
G75*
D01*
G02X10616Y9505I-151J0*
G01*
D02*
G37*
G36*
X10616Y10495D02*
G74*
D01*
G02X10767Y10344I0J151*
G01*
X10767Y10344D01*
X10767Y10127D01*
X10536Y10127D01*
X10536Y10495D01*
X10616Y10495D01*
D02*
G37*
G36*
X10203Y10495D02*
X10203Y10495D01*
X10283Y10495D01*
X10283Y10127D01*
X10052Y10127D01*
X10052Y10344D01*
G75*
D01*
G02X10203Y10495I151J0*
G01*
D02*
G37*
G36*
X10052Y9656D02*
X10052Y9656D01*
X10052Y9873D01*
X10283Y9873D01*
X10283Y9505D01*
X10203Y9505D01*
G75*
D01*
G02X10052Y9656I0J151*
G01*
D02*
G37*
G36*
X5816Y8495D02*
G74*
D01*
G02X5967Y8344I0J151*
G01*
X5967Y8344D01*
X5967Y8127D01*
X5736Y8127D01*
X5736Y8495D01*
X5816Y8495D01*
D02*
G37*
G36*
X5403Y8495D02*
X5403Y8495D01*
X5483Y8495D01*
X5483Y8127D01*
X5252Y8127D01*
X5252Y8344D01*
G75*
D01*
G02X5403Y8495I151J0*
G01*
D02*
G37*
G36*
X5816Y7505D02*
X5816Y7505D01*
X5736Y7505D01*
X5736Y7873D01*
X5967Y7873D01*
X5967Y7656D01*
G75*
D01*
G02X5816Y7505I-151J0*
G01*
D02*
G37*
G36*
X5252Y7656D02*
X5252Y7656D01*
X5252Y7873D01*
X5483Y7873D01*
X5483Y7505D01*
X5403Y7505D01*
G75*
D01*
G02X5252Y7656I0J151*
G01*
D02*
G37*
G36*
X5216Y5695D02*
G74*
D01*
G02X5367Y5544I0J151*
G01*
X5367Y5544D01*
X5367Y5327D01*
X5136Y5327D01*
X5136Y5695D01*
X5216Y5695D01*
D02*
G37*
G36*
X4803Y5695D02*
X4803Y5695D01*
X4883Y5695D01*
X4883Y5327D01*
X4652Y5327D01*
X4652Y5544D01*
G75*
D01*
G02X4803Y5695I151J0*
G01*
D02*
G37*
G36*
X5216Y4705D02*
X5216Y4705D01*
X5136Y4705D01*
X5136Y5073D01*
X5367Y5073D01*
X5367Y4856D01*
G75*
D01*
G02X5216Y4705I-151J0*
G01*
D02*
G37*
G36*
X4652Y4856D02*
X4652Y4856D01*
X4652Y5073D01*
X4883Y5073D01*
X4883Y4705D01*
X4803Y4705D01*
G75*
D01*
G02X4652Y4856I0J151*
G01*
D02*
G37*
G36*
X22052Y9656D02*
X22052Y9656D01*
X22052Y9873D01*
X22283Y9873D01*
X22283Y9505D01*
X22203Y9505D01*
G75*
D01*
G02X22052Y9656I0J151*
G01*
D02*
G37*
G36*
X22616Y9505D02*
X22616Y9505D01*
X22536Y9505D01*
X22536Y9873D01*
X22767Y9873D01*
X22767Y9656D01*
G75*
D01*
G02X22616Y9505I-151J0*
G01*
D02*
G37*
G36*
X22616Y10495D02*
G74*
D01*
G02X22767Y10344I0J151*
G01*
X22767Y10344D01*
X22767Y10127D01*
X22536Y10127D01*
X22536Y10495D01*
X22616Y10495D01*
D02*
G37*
G36*
X22203Y10495D02*
X22203Y10495D01*
X22283Y10495D01*
X22283Y10127D01*
X22052Y10127D01*
X22052Y10344D01*
G75*
D01*
G02X22203Y10495I151J0*
G01*
D02*
G37*
G36*
X11403Y8495D02*
X11403Y8495D01*
X11483Y8495D01*
X11483Y8127D01*
X11252Y8127D01*
X11252Y8344D01*
G75*
D01*
G02X11403Y8495I151J0*
G01*
D02*
G37*
G36*
X11816Y8495D02*
G74*
D01*
G02X11967Y8344I0J151*
G01*
X11967Y8344D01*
X11967Y8127D01*
X11736Y8127D01*
X11736Y8495D01*
X11816Y8495D01*
D02*
G37*
G36*
X11252Y7656D02*
X11252Y7656D01*
X11252Y7873D01*
X11483Y7873D01*
X11483Y7505D01*
X11403Y7505D01*
G75*
D01*
G02X11252Y7656I0J151*
G01*
D02*
G37*
G36*
X11816Y7505D02*
X11816Y7505D01*
X11736Y7505D01*
X11736Y7873D01*
X11967Y7873D01*
X11967Y7656D01*
G75*
D01*
G02X11816Y7505I-151J0*
G01*
D02*
G37*
G36*
X11216Y5695D02*
G74*
D01*
G02X11367Y5544I0J151*
G01*
X11367Y5544D01*
X11367Y5327D01*
X11136Y5327D01*
X11136Y5695D01*
X11216Y5695D01*
D02*
G37*
G36*
X10803Y5695D02*
X10803Y5695D01*
X10883Y5695D01*
X10883Y5327D01*
X10652Y5327D01*
X10652Y5544D01*
G75*
D01*
G02X10803Y5695I151J0*
G01*
D02*
G37*
G36*
X11216Y4705D02*
X11216Y4705D01*
X11136Y4705D01*
X11136Y5073D01*
X11367Y5073D01*
X11367Y4856D01*
G75*
D01*
G02X11216Y4705I-151J0*
G01*
D02*
G37*
G36*
X10652Y4856D02*
X10652Y4856D01*
X10652Y5073D01*
X10883Y5073D01*
X10883Y4705D01*
X10803Y4705D01*
G75*
D01*
G02X10652Y4856I0J151*
G01*
D02*
G37*
G36*
X22705Y22900D02*
G75*
D01*
G02X22705Y22900I1095J0*
G01*
D02*
G37*
G36*
X19133Y22200D02*
G75*
D01*
G02X19133Y22200I467J0*
G01*
D02*
G37*
G36*
X20133Y22200D02*
G75*
D01*
G02X20133Y22200I467J0*
G01*
D02*
G37*
G36*
X22052Y22096D02*
G75*
D01*
G02X21704Y21748I-348J0*
G01*
X21704Y21748D01*
X21496Y21748D01*
G75*
D01*
G02X21148Y22096I0J348*
G01*
X21148Y22096D01*
X21148Y22304D01*
G75*
D01*
G02X21496Y22652I348J0*
G01*
X21496Y22652D01*
X21704Y22652D01*
G74*
D01*
G02X22052Y22304I0J348*
G01*
X22052Y22304D01*
X22052Y22096D01*
D02*
G37*
G36*
X24549Y21895D02*
G74*
D01*
G02X24705Y22051I251J95*
G01*
X24705Y22051D01*
X24705Y21895D01*
X24549Y21895D01*
D02*
G37*
G36*
X24895Y22051D02*
G74*
D01*
G02X25051Y21895I95J251*
G01*
X25051Y21895D01*
X24895Y21895D01*
X24895Y22051D01*
D02*
G37*
G36*
X25051Y21705D02*
G74*
D01*
G02X24895Y21549I251J95*
G01*
X24895Y21549D01*
X24895Y21705D01*
X25051Y21705D01*
D02*
G37*
G36*
X24705Y21549D02*
G74*
D01*
G02X24549Y21705I95J251*
G01*
X24549Y21705D01*
X24705Y21705D01*
X24705Y21549D01*
D02*
G37*
G36*
X24741Y21800D02*
G75*
D01*
G02X24741Y21800I59J0*
G01*
D02*
G37*
G36*
X14800Y21200D02*
G75*
D01*
G02X14800Y21200I400J0*
G01*
D02*
G37*
G36*
X16717Y21200D02*
G75*
D01*
G02X16717Y21200I400J0*
G01*
D02*
G37*
G36*
X17425Y18600D02*
G75*
D01*
G02X17425Y18600I175J0*
G01*
D02*
G37*
G36*
X17764Y18235D02*
G75*
D01*
G02X17436Y18235I-164J365*
G01*
X17436Y18235D01*
X17600Y18399D01*
X17764Y18235D01*
D02*
G37*
G36*
X17965Y18764D02*
G75*
D01*
G02X17965Y18436I-365J-164*
G01*
X17965Y18436D01*
X17801Y18600D01*
X17965Y18764D01*
D02*
G37*
G36*
X17235Y18764D02*
X17235Y18764D01*
X17399Y18600D01*
X17235Y18436D01*
G75*
D01*
G02X17235Y18764I365J164*
G01*
D02*
G37*
G36*
X18235Y15764D02*
X18235Y15764D01*
X18399Y15600D01*
X18235Y15436D01*
G75*
D01*
G02X18235Y15764I365J164*
G01*
D02*
G37*
G36*
X5564Y23765D02*
G74*
D01*
G02X5835Y24036I436J165*
G01*
X5835Y24036D01*
X5835Y23765D01*
X5564Y23765D01*
D02*
G37*
G36*
X6436Y23435D02*
G74*
D01*
G02X6165Y23164I436J165*
G01*
X6165Y23164D01*
X6165Y23435D01*
X6436Y23435D01*
D02*
G37*
G36*
X5825Y23600D02*
G75*
D01*
G02X5825Y23600I175J0*
G01*
D02*
G37*
G36*
X5835Y23164D02*
G74*
D01*
G02X5564Y23435I165J436*
G01*
X5564Y23435D01*
X5835Y23435D01*
X5835Y23164D01*
D02*
G37*
G36*
X6533Y23600D02*
G75*
D01*
G02X6533Y23600I467J0*
G01*
D02*
G37*
G36*
X7533Y23600D02*
G75*
D01*
G02X7533Y23600I467J0*
G01*
D02*
G37*
G36*
X6165Y24036D02*
G74*
D01*
G02X6436Y23765I165J436*
G01*
X6436Y23765D01*
X6165Y23765D01*
X6165Y24036D01*
D02*
G37*
G36*
X5625Y15388D02*
G75*
D01*
G02X5975Y15388I175J-388*
G01*
X5975Y15388D01*
X5800Y15213D01*
X5625Y15388D01*
D02*
G37*
G36*
X5975Y14612D02*
G75*
D01*
G02X5625Y14612I-175J388*
G01*
X5625Y14612D01*
X5800Y14787D01*
X5975Y14612D01*
D02*
G37*
G36*
X5643Y15000D02*
G75*
D01*
G02X5643Y15000I157J0*
G01*
D02*
G37*
G36*
X6188Y15175D02*
G75*
D01*
G02X6188Y14825I-388J-175*
G01*
X6188Y14825D01*
X6013Y15000D01*
X6188Y15175D01*
D02*
G37*
G36*
X5412Y15175D02*
X5412Y15175D01*
X5587Y15000D01*
X5412Y14825D01*
G75*
D01*
G02X5412Y15175I388J175*
G01*
D02*
G37*
G36*
X4052Y9656D02*
X4052Y9656D01*
X4052Y9873D01*
X4283Y9873D01*
X4283Y9505D01*
X4203Y9505D01*
G75*
D01*
G02X4052Y9656I0J151*
G01*
D02*
G37*
G36*
X4616Y10495D02*
G74*
D01*
G02X4767Y10344I0J151*
G01*
X4767Y10344D01*
X4767Y10127D01*
X4536Y10127D01*
X4536Y10495D01*
X4616Y10495D01*
D02*
G37*
G36*
X4203Y10495D02*
X4203Y10495D01*
X4283Y10495D01*
X4283Y10127D01*
X4052Y10127D01*
X4052Y10344D01*
G75*
D01*
G02X4203Y10495I151J0*
G01*
D02*
G37*
G36*
X4616Y9505D02*
X4616Y9505D01*
X4536Y9505D01*
X4536Y9873D01*
X4767Y9873D01*
X4767Y9656D01*
G75*
D01*
G02X4616Y9505I-151J0*
G01*
D02*
G37*
G36*
X23216Y5695D02*
G74*
D01*
G02X23367Y5544I0J151*
G01*
X23367Y5544D01*
X23367Y5327D01*
X23136Y5327D01*
X23136Y5695D01*
X23216Y5695D01*
D02*
G37*
G36*
X22405Y5049D02*
G74*
D01*
G02X22249Y5205I95J251*
G01*
X22249Y5205D01*
X22405Y5205D01*
X22405Y5049D01*
D02*
G37*
G36*
X22441Y5300D02*
G75*
D01*
G02X22441Y5300I59J0*
G01*
D02*
G37*
G36*
X22249Y5395D02*
G74*
D01*
G02X22405Y5551I251J95*
G01*
X22405Y5551D01*
X22405Y5395D01*
X22249Y5395D01*
D02*
G37*
G36*
X22803Y5695D02*
X22803Y5695D01*
X22883Y5695D01*
X22883Y5327D01*
X22652Y5327D01*
X22652Y5395D01*
X22595Y5395D01*
X22595Y5551D01*
G74*
D01*
G02X22652Y5521I95J251*
G01*
X22652Y5521D01*
X22652Y5544D01*
G75*
D01*
G02X22803Y5695I151J0*
G01*
D02*
G37*
G36*
X20216Y5695D02*
G74*
D01*
G02X20367Y5544I0J151*
G01*
X20367Y5544D01*
X20367Y5327D01*
X20136Y5327D01*
X20136Y5695D01*
X20216Y5695D01*
D02*
G37*
G36*
X23216Y4705D02*
X23216Y4705D01*
X23136Y4705D01*
X23136Y5073D01*
X23367Y5073D01*
X23367Y4856D01*
G75*
D01*
G02X23216Y4705I-151J0*
G01*
D02*
G37*
G36*
X22751Y5205D02*
G74*
D01*
G02X22595Y5049I251J95*
G01*
X22595Y5049D01*
X22595Y5205D01*
X22751Y5205D01*
D02*
G37*
G36*
X22652Y4856D02*
X22652Y4856D01*
X22652Y5073D01*
X22883Y5073D01*
X22883Y4705D01*
X22803Y4705D01*
G75*
D01*
G02X22652Y4856I0J151*
G01*
D02*
G37*
G36*
X20216Y4705D02*
X20216Y4705D01*
X20136Y4705D01*
X20136Y5073D01*
X20367Y5073D01*
X20367Y4856D01*
G75*
D01*
G02X20216Y4705I-151J0*
G01*
D02*
G37*
G36*
X22521Y4451D02*
X22521Y4451D01*
X22652Y4451D01*
X22652Y4544D01*
G75*
D01*
G02X22803Y4695I151J0*
G01*
X22803Y4695D01*
X23216Y4695D01*
G74*
D01*
G02X23367Y4544I0J151*
G01*
X23367Y4544D01*
X23367Y3856D01*
G75*
D01*
G02X23216Y3705I-151J0*
G01*
X23216Y3705D01*
X22803Y3705D01*
G75*
D01*
G02X22652Y3856I0J151*
G01*
X22652Y3856D01*
X22652Y3949D01*
X22400Y3949D01*
G75*
D01*
G02X22380Y3950I0J251*
G01*
G74*
D01*
G02X22222Y4022I20J250*
G01*
X22222Y4022D01*
X22189Y4056D01*
G75*
D01*
G02X22521Y4451I111J244*
G01*
D02*
G37*
G36*
X19803Y5695D02*
X19803Y5695D01*
X19883Y5695D01*
X19883Y5327D01*
X19652Y5327D01*
X19652Y5544D01*
G75*
D01*
G02X19803Y5695I151J0*
G01*
D02*
G37*
G36*
X19652Y4856D02*
X19652Y4856D01*
X19652Y5073D01*
X19883Y5073D01*
X19883Y4705D01*
X19803Y4705D01*
G75*
D01*
G02X19652Y4856I0J151*
G01*
D02*
G37*
G36*
X24200Y15600D02*
G75*
D01*
G02X24200Y15600I400J0*
G01*
D02*
G37*
G36*
X23200Y15600D02*
G75*
D01*
G02X23200Y15600I400J0*
G01*
D02*
G37*
G36*
X22200Y15600D02*
G75*
D01*
G02X22200Y15600I400J0*
G01*
D02*
G37*
G36*
X21200Y15600D02*
G75*
D01*
G02X21200Y15600I400J0*
G01*
D02*
G37*
G36*
X20200Y15600D02*
G75*
D01*
G02X20200Y15600I400J0*
G01*
D02*
G37*
G36*
X19200Y15600D02*
G75*
D01*
G02X19200Y15600I400J0*
G01*
D02*
G37*
G36*
X18965Y15764D02*
G75*
D01*
G02X18965Y15436I-365J-164*
G01*
X18965Y15436D01*
X18801Y15600D01*
X18965Y15764D01*
D02*
G37*
G36*
X505Y1500D02*
G75*
D01*
G02X505Y1500I1095J0*
G01*
D02*
G37*
%LPD*%
G36*
X18433Y7656D02*
G75*
D01*
G03X18584Y7505I151J0*
G01*
X18584Y7505D01*
X18997Y7505D01*
G75*
D01*
G03X19148Y7656I0J151*
G01*
X19148Y7656D01*
X19148Y7799D01*
X19199Y7799D01*
X19199Y7283D01*
X19148Y7232D01*
X19148Y7344D01*
G74*
D01*
G03X18997Y7495I151J0*
G01*
X18997Y7495D01*
X18584Y7495D01*
G75*
D01*
G03X18433Y7344I0J-151*
G01*
X18433Y7344D01*
X18433Y6656D01*
G75*
D01*
G03X18475Y6551I151J0*
G01*
X18475Y6551D01*
X17925Y6551D01*
G75*
D01*
G03X17967Y6656I-109J105*
G01*
X17967Y6656D01*
X17967Y7344D01*
G74*
D01*
G03X17816Y7495I151J0*
G01*
X17816Y7495D01*
X17403Y7495D01*
G75*
D01*
G03X17252Y7344I0J-151*
G01*
X17252Y7344D01*
X17252Y7247D01*
G74*
D01*
G03X17122Y7178I48J247*
G01*
X17122Y7178D01*
X16922Y6978D01*
G75*
D01*
G03X16849Y6799I178J-178*
G01*
X16849Y6799D01*
X16849Y6500D01*
G75*
D01*
G03X16922Y6322I251J0*
G01*
X16922Y6322D01*
X17122Y6122D01*
G75*
D01*
G03X17300Y6049I178J178*
G01*
X17300Y6049D01*
X18606Y6049D01*
G75*
D01*
G03X18873Y6505I94J251*
G01*
X18873Y6505D01*
X18997Y6505D01*
G75*
D01*
G03X19148Y6656I0J151*
G01*
X19148Y6656D01*
X19148Y6799D01*
X19200Y6799D01*
G74*
D01*
G03X19342Y6858I0J201*
G01*
X19342Y6858D01*
X19542Y7058D01*
G75*
D01*
G03X19601Y7200I-142J142*
G01*
X19601Y7200D01*
X19601Y7917D01*
X19699Y8015D01*
X19699Y6483D01*
X18617Y5401D01*
X18548Y5401D01*
X18548Y5544D01*
G74*
D01*
G03X18397Y5695I151J0*
G01*
X18397Y5695D01*
X17984Y5695D01*
G75*
D01*
G03X17833Y5544I0J-151*
G01*
X17833Y5544D01*
X17833Y4856D01*
G75*
D01*
G03X17984Y4705I151J0*
G01*
X17984Y4705D01*
X18397Y4705D01*
G74*
D01*
G03X18499Y4744I0J151*
G01*
X18499Y4744D01*
X18499Y4656D01*
G74*
D01*
G03X18397Y4695I102J112*
G01*
X18397Y4695D01*
X17984Y4695D01*
G75*
D01*
G03X17833Y4544I0J-151*
G01*
X17833Y4544D01*
X17833Y3856D01*
G75*
D01*
G03X17875Y3751I151J0*
G01*
X17875Y3751D01*
X17325Y3751D01*
G75*
D01*
G03X17367Y3856I-109J105*
G01*
X17367Y3856D01*
X17367Y4544D01*
G74*
D01*
G03X17216Y4695I151J0*
G01*
X17216Y4695D01*
X16803Y4695D01*
G75*
D01*
G03X16652Y4544I0J-151*
G01*
X16652Y4544D01*
X16652Y4451D01*
X16521Y4451D01*
G75*
D01*
G03X16189Y4056I-221J-151*
G01*
X16189Y4056D01*
X16222Y4022D01*
G74*
D01*
G03X16380Y3950I178J178*
G01*
G75*
D01*
G03X16400Y3949I20J250*
G01*
X16400Y3949D01*
X16652Y3949D01*
X16652Y3856D01*
G75*
D01*
G03X16694Y3751I151J0*
G01*
X16694Y3751D01*
X15506Y3751D01*
G75*
D01*
G03X15548Y3856I-109J105*
G01*
X15548Y3856D01*
X15548Y4005D01*
G74*
D01*
G03X15642Y4058I48J195*
G01*
X15642Y4058D01*
X15942Y4358D01*
G75*
D01*
G03X16001Y4500I-142J142*
G01*
X16001Y4500D01*
X16001Y5600D01*
G74*
D01*
G03X15942Y5742I201J0*
G01*
X15942Y5742D01*
X15647Y6037D01*
G75*
D01*
G03X15951Y6394I53J263*
G01*
X15951Y6394D01*
X15951Y8596D01*
X16052Y8697D01*
X16052Y8656D01*
G75*
D01*
G03X16203Y8505I151J0*
G01*
X16203Y8505D01*
X16616Y8505D01*
G75*
D01*
G03X16767Y8656I0J151*
G01*
X16767Y8656D01*
X16767Y9344D01*
G74*
D01*
G03X16616Y9495I151J0*
G01*
X16616Y9495D01*
X16203Y9495D01*
G75*
D01*
G03X16052Y9344I0J-151*
G01*
X16052Y9344D01*
X16052Y9251D01*
X16000Y9251D01*
G75*
D01*
G03X15949Y9246I0J-251*
G01*
G74*
D01*
G03X15822Y9178I51J246*
G01*
X15822Y9178D01*
X15522Y8878D01*
G75*
D01*
G03X15449Y8699I178J-178*
G01*
X15449Y8699D01*
X15449Y6394D01*
G75*
D01*
G03X15522Y6100I251J-94*
G01*
G75*
D01*
G03X15500Y6101I-22J-200*
G01*
X15500Y6101D01*
X14683Y6101D01*
X14201Y6583D01*
X14201Y11299D01*
X18017Y11299D01*
X18299Y11017D01*
X18299Y10383D01*
X18117Y10201D01*
X17948Y10201D01*
X17948Y10344D01*
G74*
D01*
G03X17797Y10495I151J0*
G01*
X17797Y10495D01*
X17384Y10495D01*
G75*
D01*
G03X17233Y10344I0J-151*
G01*
X17233Y10344D01*
X17233Y9656D01*
G75*
D01*
G03X17384Y9505I151J0*
G01*
X17384Y9505D01*
X17797Y9505D01*
G75*
D01*
G03X17948Y9656I0J151*
G01*
X17948Y9656D01*
X17948Y9799D01*
X17999Y9799D01*
X17999Y9283D01*
X17948Y9232D01*
X17948Y9344D01*
G74*
D01*
G03X17797Y9495I151J0*
G01*
X17797Y9495D01*
X17384Y9495D01*
G75*
D01*
G03X17233Y9344I0J-151*
G01*
X17233Y9344D01*
X17233Y8656D01*
G75*
D01*
G03X17384Y8505I151J0*
G01*
X17384Y8505D01*
X17797Y8505D01*
G75*
D01*
G03X17948Y8656I0J151*
G01*
X17948Y8656D01*
X17948Y8799D01*
X18000Y8799D01*
G74*
D01*
G03X18142Y8858I0J201*
G01*
X18142Y8858D01*
X18342Y9058D01*
G75*
D01*
G03X18401Y9200I-142J142*
G01*
X18401Y9200D01*
X18401Y9917D01*
X18642Y10158D01*
G75*
D01*
G03X18701Y10300I-142J142*
G01*
X18701Y10300D01*
X18701Y11100D01*
G74*
D01*
G03X18642Y11242I201J0*
G01*
X18642Y11242D01*
X18543Y11341D01*
X18242Y11642D01*
G74*
D01*
G03X18152Y11694I142J142*
G01*
G75*
D01*
G03X18100Y11701I-52J-194*
G01*
X18100Y11701D01*
X14283Y11701D01*
X13042Y12942D01*
G74*
D01*
G03X12944Y12996I142J142*
G01*
G75*
D01*
G03X12900Y13001I-44J-196*
G01*
X12900Y13001D01*
X11583Y13001D01*
X11301Y13283D01*
X11301Y14600D01*
X11301Y15334D01*
G74*
D01*
G03X11399Y15254I299J266*
G01*
X11399Y15254D01*
X11399Y14800D01*
G75*
D01*
G03X11458Y14658I201J0*
G01*
X11458Y14658D01*
X12758Y13358D01*
G75*
D01*
G03X12900Y13299I142J142*
G01*
X12900Y13299D01*
X18151Y13299D01*
X18543Y12907D01*
X19499Y11951D01*
X19499Y8383D01*
X19317Y8201D01*
X19148Y8201D01*
X19148Y8344D01*
G74*
D01*
G03X18997Y8495I151J0*
G01*
X18997Y8495D01*
X18584Y8495D01*
G75*
D01*
G03X18433Y8344I0J-151*
G01*
X18433Y8344D01*
X18433Y7656D01*
D02*
G37*
%LPC*%
G36*
X16616Y9505D02*
G75*
D01*
G03X16767Y9656I0J151*
G01*
X16767Y9656D01*
X16767Y9873D01*
X16536Y9873D01*
X16536Y9505D01*
X16616Y9505D01*
D02*
G37*
G36*
X16616Y10495D02*
X16616Y10495D01*
X16536Y10495D01*
X16536Y10127D01*
X16767Y10127D01*
X16767Y10344D01*
G74*
D01*
G03X16616Y10495I151J0*
G01*
D02*
G37*
G36*
X16052Y9656D02*
G75*
D01*
G03X16203Y9505I151J0*
G01*
X16203Y9505D01*
X16283Y9505D01*
X16283Y9873D01*
X16052Y9873D01*
X16052Y9656D01*
D02*
G37*
G36*
X16203Y10495D02*
G75*
D01*
G03X16052Y10344I0J-151*
G01*
X16052Y10344D01*
X16052Y10127D01*
X16283Y10127D01*
X16283Y10495D01*
X16203Y10495D01*
D02*
G37*
G36*
X17816Y8495D02*
X17816Y8495D01*
X17736Y8495D01*
X17736Y8127D01*
X17967Y8127D01*
X17967Y8344D01*
G74*
D01*
G03X17816Y8495I151J0*
G01*
D02*
G37*
G36*
X17403Y8495D02*
G75*
D01*
G03X17252Y8344I0J-151*
G01*
X17252Y8344D01*
X17252Y8127D01*
X17483Y8127D01*
X17483Y8495D01*
X17403Y8495D01*
D02*
G37*
G36*
X17816Y7505D02*
G75*
D01*
G03X17967Y7656I0J151*
G01*
X17967Y7656D01*
X17967Y7873D01*
X17736Y7873D01*
X17736Y7505D01*
X17816Y7505D01*
D02*
G37*
G36*
X17252Y7656D02*
G75*
D01*
G03X17403Y7505I151J0*
G01*
X17403Y7505D01*
X17483Y7505D01*
X17483Y7873D01*
X17252Y7873D01*
X17252Y7656D01*
D02*
G37*
G36*
X17216Y5695D02*
X17216Y5695D01*
X17136Y5695D01*
X17136Y5327D01*
X17367Y5327D01*
X17367Y5544D01*
G74*
D01*
G03X17216Y5695I151J0*
G01*
D02*
G37*
G36*
X16803Y5695D02*
G75*
D01*
G03X16652Y5544I0J-151*
G01*
X16652Y5544D01*
X16652Y5327D01*
X16883Y5327D01*
X16883Y5695D01*
X16803Y5695D01*
D02*
G37*
G36*
X16241Y5300D02*
G75*
D01*
G03X16241Y5300I59J0*
G01*
D02*
G37*
G36*
X16205Y5049D02*
X16205Y5049D01*
X16205Y5205D01*
X16049Y5205D01*
G74*
D01*
G03X16205Y5049I251J95*
G01*
D02*
G37*
G36*
X16551Y5205D02*
X16551Y5205D01*
X16395Y5205D01*
X16395Y5049D01*
G74*
D01*
G03X16551Y5205I95J251*
G01*
D02*
G37*
G36*
X16395Y5551D02*
X16395Y5551D01*
X16395Y5395D01*
X16551Y5395D01*
G74*
D01*
G03X16395Y5551I251J95*
G01*
D02*
G37*
G36*
X16049Y5395D02*
X16049Y5395D01*
X16205Y5395D01*
X16205Y5551D01*
G74*
D01*
G03X16049Y5395I95J251*
G01*
D02*
G37*
G36*
X16652Y4856D02*
G75*
D01*
G03X16803Y4705I151J0*
G01*
X16803Y4705D01*
X16883Y4705D01*
X16883Y5073D01*
X16652Y5073D01*
X16652Y4856D01*
D02*
G37*
G36*
X17216Y4705D02*
G75*
D01*
G03X17367Y4856I0J151*
G01*
X17367Y4856D01*
X17367Y5073D01*
X17136Y5073D01*
X17136Y4705D01*
X17216Y4705D01*
D02*
G37*
%LPD*%
G36*
X-52Y18715D02*
G75*
D01*
G02X793Y18851I452J-115*
G01*
X793Y18851D01*
X1300Y18851D01*
G75*
D01*
G02X1390Y18834I0J-251*
G01*
G74*
D01*
G02X1478Y18777I90J234*
G01*
X1478Y18777D01*
X3377Y16878D01*
G74*
D01*
G02X3451Y16700I177J178*
G01*
X3451Y16700D01*
X3451Y15244D01*
G75*
D01*
G02X3451Y14756I349J-244*
G01*
X3451Y14756D01*
X3451Y12006D01*
X4449Y13004D01*
X4449Y16096D01*
X1196Y19349D01*
X793Y19349D01*
G75*
D01*
G02X-52Y19485I-393J251*
G01*
X-52Y19485D01*
X-52Y18715D01*
D02*
G37*
G36*
X9658Y18106D02*
X9658Y18106D01*
X11151Y19599D01*
X10351Y20399D01*
X8949Y20399D01*
X8301Y19751D01*
X8301Y11300D01*
G75*
D01*
G02X8275Y11201I-201J0*
G01*
G75*
D01*
G02X8283Y11201I8J-201*
G01*
X8283Y11201D01*
X8665Y11201D01*
X9094Y11630D01*
X9094Y11630D01*
X9599Y12135D01*
X9599Y14500D01*
X9599Y17963D01*
G75*
D01*
G02X9658Y18106I201J1*
G01*
D02*
G37*
%LPC*%
G36*
X9094Y19703D02*
G75*
D01*
G02X9094Y19703I6J197*
G01*
D02*
G37*
G36*
X9094Y19350D02*
G75*
D01*
G02X9094Y19350I6J-450*
G01*
D02*
G37*
G36*
X9094Y18097D02*
G75*
D01*
G02X9094Y18097I6J-197*
G01*
D02*
G37*
G36*
X9094Y15350D02*
G75*
D01*
G02X9094Y15350I6J-450*
G01*
D02*
G37*
G36*
X9094Y14097D02*
G75*
D01*
G02X9094Y14097I6J-197*
G01*
D02*
G37*
G36*
X8940Y19479D02*
G74*
D01*
G02X8679Y19740I160J421*
G01*
X8679Y19740D01*
X8940Y19740D01*
X8940Y19479D01*
D02*
G37*
G36*
X8679Y20060D02*
G74*
D01*
G02X8940Y20321I421J160*
G01*
X8940Y20321D01*
X8940Y20060D01*
X8679Y20060D01*
D02*
G37*
G36*
X9521Y19740D02*
G74*
D01*
G02X9260Y19479I421J160*
G01*
X9260Y19479D01*
X9260Y19740D01*
X9521Y19740D01*
D02*
G37*
G36*
X9260Y20321D02*
G74*
D01*
G02X9521Y20060I160J421*
G01*
X9521Y20060D01*
X9260Y20060D01*
X9260Y20321D01*
D02*
G37*
G36*
X8940Y17479D02*
G74*
D01*
G02X8679Y17740I160J421*
G01*
X8679Y17740D01*
X8940Y17740D01*
X8940Y17479D01*
D02*
G37*
G36*
X8679Y18060D02*
G74*
D01*
G02X8940Y18321I421J160*
G01*
X8940Y18321D01*
X8940Y18060D01*
X8679Y18060D01*
D02*
G37*
G36*
X8940Y13479D02*
G74*
D01*
G02X8679Y13740I160J421*
G01*
X8679Y13740D01*
X8940Y13740D01*
X8940Y13479D01*
D02*
G37*
G36*
X8679Y14060D02*
G74*
D01*
G02X8940Y14321I421J160*
G01*
X8940Y14321D01*
X8940Y14060D01*
X8679Y14060D01*
D02*
G37*
G36*
X9260Y18321D02*
G74*
D01*
G02X9521Y18060I160J421*
G01*
X9521Y18060D01*
X9260Y18060D01*
X9260Y18321D01*
D02*
G37*
G36*
X9521Y17740D02*
G74*
D01*
G02X9260Y17479I421J160*
G01*
X9260Y17479D01*
X9260Y17740D01*
X9521Y17740D01*
D02*
G37*
G36*
X9260Y14321D02*
G74*
D01*
G02X9521Y14060I160J421*
G01*
X9521Y14060D01*
X9260Y14060D01*
X9260Y14321D01*
D02*
G37*
G36*
X9521Y13740D02*
G74*
D01*
G02X9260Y13479I421J160*
G01*
X9260Y13479D01*
X9260Y13740D01*
X9521Y13740D01*
D02*
G37*
%LPD*%
G36*
X13189Y4056D02*
X13189Y4056D01*
X13222Y4022D01*
G74*
D01*
G03X13380Y3950I178J178*
G01*
G75*
D01*
G03X13400Y3949I20J250*
G01*
X13400Y3949D01*
X13652Y3949D01*
X13652Y3856D01*
G75*
D01*
G03X13694Y3751I151J0*
G01*
X13694Y3751D01*
X12506Y3751D01*
G75*
D01*
G03X12548Y3856I-109J105*
G01*
X12548Y3856D01*
X12548Y4005D01*
G74*
D01*
G03X12642Y4058I48J195*
G01*
X12642Y4058D01*
X12842Y4258D01*
G75*
D01*
G03X12901Y4400I-142J142*
G01*
X12901Y4400D01*
X12901Y5117D01*
X13179Y5395D01*
X13205Y5395D01*
X13205Y5421D01*
X13942Y6158D01*
G74*
D01*
G03X13988Y6228I142J142*
G01*
X13988Y6228D01*
X14458Y5758D01*
G74*
D01*
G03X14535Y5710I142J142*
G01*
G75*
D01*
G03X14600Y5699I65J190*
G01*
X14600Y5699D01*
X15417Y5699D01*
X15423Y5693D01*
G74*
D01*
G03X15397Y5695I26J149*
G01*
X15397Y5695D01*
X14984Y5695D01*
G75*
D01*
G03X14833Y5544I0J-151*
G01*
X14833Y5544D01*
X14833Y4856D01*
G75*
D01*
G03X14984Y4705I151J0*
G01*
X14984Y4705D01*
X15397Y4705D01*
G75*
D01*
G03X15548Y4856I0J151*
G01*
X15548Y4856D01*
X15548Y4999D01*
X15599Y4999D01*
X15599Y4583D01*
X15548Y4532D01*
X15548Y4544D01*
G74*
D01*
G03X15397Y4695I151J0*
G01*
X15397Y4695D01*
X14984Y4695D01*
G75*
D01*
G03X14833Y4544I0J-151*
G01*
X14833Y4544D01*
X14833Y3856D01*
G75*
D01*
G03X14875Y3751I151J0*
G01*
X14875Y3751D01*
X14325Y3751D01*
G75*
D01*
G03X14367Y3856I-109J105*
G01*
X14367Y3856D01*
X14367Y4544D01*
G74*
D01*
G03X14216Y4695I151J0*
G01*
X14216Y4695D01*
X13803Y4695D01*
G75*
D01*
G03X13652Y4544I0J-151*
G01*
X13652Y4544D01*
X13652Y4451D01*
X13521Y4451D01*
G75*
D01*
G03X13189Y4056I-221J-151*
G01*
D02*
G37*
%LPC*%
G36*
X13241Y5300D02*
G75*
D01*
G03X13241Y5300I59J0*
G01*
D02*
G37*
G36*
X13205Y5049D02*
X13205Y5049D01*
X13205Y5205D01*
X13049Y5205D01*
G74*
D01*
G03X13205Y5049I251J95*
G01*
D02*
G37*
G36*
X13803Y5695D02*
G75*
D01*
G03X13652Y5544I0J-151*
G01*
X13652Y5544D01*
X13652Y5327D01*
X13883Y5327D01*
X13883Y5695D01*
X13803Y5695D01*
D02*
G37*
G36*
X13395Y5551D02*
X13395Y5551D01*
X13395Y5395D01*
X13551Y5395D01*
G74*
D01*
G03X13395Y5551I251J95*
G01*
D02*
G37*
G36*
X13652Y4856D02*
G75*
D01*
G03X13803Y4705I151J0*
G01*
X13803Y4705D01*
X13883Y4705D01*
X13883Y5073D01*
X13652Y5073D01*
X13652Y4856D01*
D02*
G37*
G36*
X13551Y5205D02*
X13551Y5205D01*
X13395Y5205D01*
X13395Y5049D01*
G74*
D01*
G03X13551Y5205I95J251*
G01*
D02*
G37*
G36*
X14216Y5695D02*
X14216Y5695D01*
X14136Y5695D01*
X14136Y5327D01*
X14367Y5327D01*
X14367Y5544D01*
G74*
D01*
G03X14216Y5695I151J0*
G01*
D02*
G37*
G36*
X14216Y4705D02*
G75*
D01*
G03X14367Y4856I0J151*
G01*
X14367Y4856D01*
X14367Y5073D01*
X14136Y5073D01*
X14136Y4705D01*
X14216Y4705D01*
D02*
G37*
%LPD*%
G36*
X8984Y4695D02*
X8984Y4695D01*
X9397Y4695D01*
G74*
D01*
G02X9499Y4656I0J151*
G01*
X9499Y4656D01*
X9499Y4744D01*
G74*
D01*
G02X9397Y4705I102J112*
G01*
X9397Y4705D01*
X8984Y4705D01*
G75*
D01*
G02X8833Y4856I0J151*
G01*
X8833Y4856D01*
X8833Y5544D01*
G75*
D01*
G02X8984Y5695I151J0*
G01*
X8984Y5695D01*
X9397Y5695D01*
G74*
D01*
G02X9423Y5693I0J151*
G01*
X9423Y5693D01*
X9417Y5699D01*
X8300Y5699D01*
G75*
D01*
G02X8242Y5708I0J201*
G01*
G74*
D01*
G02X8158Y5758I58J192*
G01*
X8158Y5758D01*
X7658Y6258D01*
G74*
D01*
G02X7650Y6266I142J142*
G01*
X7650Y6266D01*
X6901Y5517D01*
X6901Y4400D01*
G75*
D01*
G02X6842Y4258I-201J0*
G01*
X6842Y4258D01*
X6642Y4058D01*
G74*
D01*
G02X6548Y4005I142J142*
G01*
X6548Y4005D01*
X6548Y3856D01*
G75*
D01*
G02X6506Y3751I-151J0*
G01*
X6506Y3751D01*
X7694Y3751D01*
G75*
D01*
G02X7652Y3856I109J105*
G01*
X7652Y3856D01*
X7652Y3949D01*
X7400Y3949D01*
G75*
D01*
G02X7380Y3950I0J251*
G01*
G74*
D01*
G02X7222Y4022I20J250*
G01*
X7222Y4022D01*
X7189Y4056D01*
G75*
D01*
G02X7521Y4451I111J244*
G01*
X7521Y4451D01*
X7652Y4451D01*
X7652Y4544D01*
G75*
D01*
G02X7803Y4695I151J0*
G01*
X7803Y4695D01*
X8216Y4695D01*
G74*
D01*
G02X8367Y4544I0J151*
G01*
X8367Y4544D01*
X8367Y3856D01*
G75*
D01*
G02X8325Y3751I-151J0*
G01*
X8325Y3751D01*
X8875Y3751D01*
G75*
D01*
G02X8833Y3856I109J105*
G01*
X8833Y3856D01*
X8833Y4544D01*
G75*
D01*
G02X8984Y4695I151J0*
G01*
D02*
G37*
%LPC*%
G36*
X7049Y5395D02*
G74*
D01*
G02X7205Y5551I251J95*
G01*
X7205Y5551D01*
X7205Y5395D01*
X7049Y5395D01*
D02*
G37*
G36*
X7803Y5695D02*
X7803Y5695D01*
X7883Y5695D01*
X7883Y5327D01*
X7652Y5327D01*
X7652Y5544D01*
G75*
D01*
G02X7803Y5695I151J0*
G01*
D02*
G37*
G36*
X7395Y5551D02*
G74*
D01*
G02X7551Y5395I95J251*
G01*
X7551Y5395D01*
X7395Y5395D01*
X7395Y5551D01*
D02*
G37*
G36*
X8216Y5695D02*
G74*
D01*
G02X8367Y5544I0J151*
G01*
X8367Y5544D01*
X8367Y5327D01*
X8136Y5327D01*
X8136Y5695D01*
X8216Y5695D01*
D02*
G37*
G36*
X7551Y5205D02*
G74*
D01*
G02X7395Y5049I251J95*
G01*
X7395Y5049D01*
X7395Y5205D01*
X7551Y5205D01*
D02*
G37*
G36*
X7241Y5300D02*
G75*
D01*
G02X7241Y5300I59J0*
G01*
D02*
G37*
G36*
X7205Y5049D02*
G74*
D01*
G02X7049Y5205I95J251*
G01*
X7049Y5205D01*
X7205Y5205D01*
X7205Y5049D01*
D02*
G37*
G36*
X8216Y4705D02*
X8216Y4705D01*
X8136Y4705D01*
X8136Y5073D01*
X8367Y5073D01*
X8367Y4856D01*
G75*
D01*
G02X8216Y4705I-151J0*
G01*
D02*
G37*
G36*
X7652Y4856D02*
X7652Y4856D01*
X7652Y5073D01*
X7883Y5073D01*
X7883Y4705D01*
X7803Y4705D01*
G75*
D01*
G02X7652Y4856I0J151*
G01*
D02*
G37*
%LPD*%
G36*
X793Y18349D02*
X793Y18349D01*
X1196Y18349D01*
X2949Y16596D01*
X2949Y16306D01*
X1478Y17777D01*
G74*
D01*
G03X1338Y17848I178J177*
G01*
G75*
D01*
G03X1300Y17851I-38J-248*
G01*
X1300Y17851D01*
X793Y17851D01*
G75*
D01*
G03X-52Y17715I-393J-251*
G01*
X-52Y17715D01*
X-52Y18485D01*
G75*
D01*
G03X793Y18349I452J115*
G01*
D02*
G37*
G36*
X-52Y17485D02*
G75*
D01*
G03X793Y17349I452J115*
G01*
X793Y17349D01*
X1196Y17349D01*
X2649Y15896D01*
X2649Y15606D01*
X1478Y16777D01*
G74*
D01*
G03X1373Y16840I178J177*
G01*
G75*
D01*
G03X1300Y16851I-73J-240*
G01*
X1300Y16851D01*
X793Y16851D01*
G75*
D01*
G03X-52Y16715I-393J-251*
G01*
X-52Y16715D01*
X-52Y17485D01*
D02*
G37*
G36*
X793Y16349D02*
X793Y16349D01*
X1196Y16349D01*
X2349Y15196D01*
X2349Y14906D01*
X1478Y15777D01*
G74*
D01*
G03X1396Y15832I178J177*
G01*
G75*
D01*
G03X1300Y15851I-96J-232*
G01*
X1300Y15851D01*
X793Y15851D01*
G75*
D01*
G03X-52Y15715I-393J-251*
G01*
X-52Y15715D01*
X-52Y16485D01*
G75*
D01*
G03X793Y16349I452J115*
G01*
D02*
G37*
G36*
X793Y15349D02*
X793Y15349D01*
X1196Y15349D01*
X2049Y14496D01*
X2049Y14206D01*
X1478Y14777D01*
G74*
D01*
G03X1350Y14846I178J177*
G01*
G75*
D01*
G03X1300Y14851I-50J-246*
G01*
X1300Y14851D01*
X793Y14851D01*
G75*
D01*
G03X-52Y14715I-393J-251*
G01*
X-52Y14715D01*
X-52Y15485D01*
G75*
D01*
G03X793Y15349I452J115*
G01*
D02*
G37*
G36*
X749Y4710D02*
X749Y4710D01*
X749Y5090D01*
G75*
D01*
G02X-52Y5285I-349J310*
G01*
X-52Y5285D01*
X-52Y4515D01*
G75*
D01*
G02X749Y4710I452J-115*
G01*
D02*
G37*
G36*
X749Y5710D02*
X749Y5710D01*
X749Y6090D01*
G75*
D01*
G02X-52Y6285I-349J310*
G01*
X-52Y6285D01*
X-52Y5515D01*
G75*
D01*
G02X749Y5710I452J-115*
G01*
D02*
G37*
G36*
X749Y6710D02*
X749Y6710D01*
X749Y7090D01*
G75*
D01*
G02X-52Y7285I-349J310*
G01*
X-52Y7285D01*
X-52Y6515D01*
G75*
D01*
G02X749Y6710I452J-115*
G01*
D02*
G37*
G36*
X749Y7710D02*
X749Y7710D01*
X749Y8090D01*
G75*
D01*
G02X-52Y8285I-349J310*
G01*
X-52Y8285D01*
X-52Y7515D01*
G75*
D01*
G02X749Y7710I452J-115*
G01*
D02*
G37*
G36*
X749Y9090D02*
G75*
D01*
G02X-52Y9285I-349J310*
G01*
X-52Y9285D01*
X-52Y8515D01*
G75*
D01*
G02X749Y8710I452J-115*
G01*
X749Y8710D01*
X749Y9090D01*
D02*
G37*
G36*
X749Y10090D02*
X749Y10090D01*
X749Y9710D01*
G75*
D01*
G03X-52Y9515I-349J-310*
G01*
X-52Y9515D01*
X-52Y10285D01*
G75*
D01*
G03X749Y10090I452J115*
G01*
D02*
G37*
G36*
X749Y11090D02*
X749Y11090D01*
X749Y10710D01*
G75*
D01*
G03X-52Y10515I-349J-310*
G01*
X-52Y10515D01*
X-52Y11285D01*
G75*
D01*
G03X749Y11090I452J115*
G01*
D02*
G37*
G36*
X749Y12090D02*
X749Y12090D01*
X749Y11710D01*
G75*
D01*
G03X-52Y11515I-349J-310*
G01*
X-52Y11515D01*
X-52Y12285D01*
G75*
D01*
G03X749Y12090I452J115*
G01*
D02*
G37*
G36*
X21546Y5570D02*
X21546Y5570D01*
X21599Y5517D01*
X21599Y5401D01*
X21548Y5401D01*
X21548Y5544D01*
G74*
D01*
G03X21546Y5570I151J0*
G01*
D02*
G37*
G36*
X15546Y5570D02*
X15546Y5570D01*
X15599Y5517D01*
X15599Y5401D01*
X15548Y5401D01*
X15548Y5544D01*
G74*
D01*
G03X15546Y5570I151J0*
G01*
D02*
G37*
G36*
X11572Y18201D02*
G74*
D01*
G02X11499Y18213I28J399*
G01*
X11499Y18213D01*
X11487Y18201D01*
X11572Y18201D01*
D02*
G37*
G54D11*
X9104Y24052D02*
G74*
D01*
G02X9452Y23704I0J348*
G01*
X9452Y23496D01*
G75*
D01*
G02X9104Y23148I-348J0*
G01*
X8896Y23148D01*
G75*
D01*
G02X8548Y23496I0J348*
G01*
X8548Y23704D01*
G75*
D01*
G02X8896Y24052I348J0*
G01*
X9104Y24052D01*
X18543Y15765D02*
G75*
D01*
G02X18543Y15765I57J-165*
G01*
X18764Y15965D02*
X18600Y15801D01*
X18436Y15965D01*
G75*
D01*
G02X18764Y15965I164J-365*
G01*
X18851Y18289D02*
X18851Y17600D01*
G75*
D01*
G02X18833Y17506I-251J0*
G01*
G74*
D01*
G02X18777Y17422I233J94*
G01*
X17851Y16496D01*
X17851Y15911D01*
G75*
D01*
G02X17851Y15289I-251J-311*
G01*
X17851Y15200D01*
G75*
D01*
G02X17777Y15022I-251J0*
G01*
X17578Y14823D01*
G74*
D01*
G02X17400Y14749I178J177*
G01*
X16800Y14749D01*
G75*
D01*
G02X16622Y14822I0J251*
G01*
X16422Y15022D01*
G75*
D01*
G02X16349Y15200I178J178*
G01*
X16349Y15289D01*
G75*
D01*
G02X16860Y15296I251J311*
G01*
X16904Y15251D01*
X17296Y15251D01*
X17340Y15296D01*
G75*
D01*
G02X17349Y15911I260J304*
G01*
X17349Y16600D01*
G75*
D01*
G02X17422Y16778I251J0*
G01*
X18349Y17704D01*
X18349Y18289D01*
G75*
D01*
G02X18851Y18289I251J311*
G01*
X17436Y18965D02*
G75*
D01*
G02X17764Y18965I164J-365*
G01*
X17600Y18801D01*
X17436Y18965D01*
X16404Y18948D02*
G75*
D01*
G02X16404Y18948I196J-348*
G01*
X15404Y18948D02*
G75*
D01*
G02X15404Y18948I196J-348*
G01*
X18764Y15235D02*
G75*
D01*
G02X18436Y15235I-164J365*
G01*
X18600Y15399D01*
X18764Y15235D01*
X24796Y18948D02*
G75*
D01*
G02X24796Y18948I-196J-348*
G01*
X10616Y9505D02*
X10536Y9505D01*
X10536Y9873D01*
X10767Y9873D01*
X10767Y9656D01*
G75*
D01*
G02X10616Y9505I-151J0*
G01*
X10616Y10495D02*
G74*
D01*
G02X10767Y10344I0J151*
G01*
X10767Y10127D01*
X10536Y10127D01*
X10536Y10495D01*
X10616Y10495D01*
X10203Y10495D02*
X10283Y10495D01*
X10283Y10127D01*
X10052Y10127D01*
X10052Y10344D01*
G75*
D01*
G02X10203Y10495I151J0*
G01*
X10052Y9656D02*
X10052Y9873D01*
X10283Y9873D01*
X10283Y9505D01*
X10203Y9505D01*
G75*
D01*
G02X10052Y9656I0J151*
G01*
X5816Y8495D02*
G74*
D01*
G02X5967Y8344I0J151*
G01*
X5967Y8127D01*
X5736Y8127D01*
X5736Y8495D01*
X5816Y8495D01*
X5403Y8495D02*
X5483Y8495D01*
X5483Y8127D01*
X5252Y8127D01*
X5252Y8344D01*
G75*
D01*
G02X5403Y8495I151J0*
G01*
X5816Y7505D02*
X5736Y7505D01*
X5736Y7873D01*
X5967Y7873D01*
X5967Y7656D01*
G75*
D01*
G02X5816Y7505I-151J0*
G01*
X5252Y7656D02*
X5252Y7873D01*
X5483Y7873D01*
X5483Y7505D01*
X5403Y7505D01*
G75*
D01*
G02X5252Y7656I0J151*
G01*
X5216Y5695D02*
G74*
D01*
G02X5367Y5544I0J151*
G01*
X5367Y5327D01*
X5136Y5327D01*
X5136Y5695D01*
X5216Y5695D01*
X4803Y5695D02*
X4883Y5695D01*
X4883Y5327D01*
X4652Y5327D01*
X4652Y5544D01*
G75*
D01*
G02X4803Y5695I151J0*
G01*
X5216Y4705D02*
X5136Y4705D01*
X5136Y5073D01*
X5367Y5073D01*
X5367Y4856D01*
G75*
D01*
G02X5216Y4705I-151J0*
G01*
X4652Y4856D02*
X4652Y5073D01*
X4883Y5073D01*
X4883Y4705D01*
X4803Y4705D01*
G75*
D01*
G02X4652Y4856I0J151*
G01*
X22052Y9656D02*
X22052Y9873D01*
X22283Y9873D01*
X22283Y9505D01*
X22203Y9505D01*
G75*
D01*
G02X22052Y9656I0J151*
G01*
X22616Y9505D02*
X22536Y9505D01*
X22536Y9873D01*
X22767Y9873D01*
X22767Y9656D01*
G75*
D01*
G02X22616Y9505I-151J0*
G01*
X22616Y10495D02*
G74*
D01*
G02X22767Y10344I0J151*
G01*
X22767Y10127D01*
X22536Y10127D01*
X22536Y10495D01*
X22616Y10495D01*
X22203Y10495D02*
X22283Y10495D01*
X22283Y10127D01*
X22052Y10127D01*
X22052Y10344D01*
G75*
D01*
G02X22203Y10495I151J0*
G01*
X11403Y8495D02*
X11483Y8495D01*
X11483Y8127D01*
X11252Y8127D01*
X11252Y8344D01*
G75*
D01*
G02X11403Y8495I151J0*
G01*
X11816Y8495D02*
G74*
D01*
G02X11967Y8344I0J151*
G01*
X11967Y8127D01*
X11736Y8127D01*
X11736Y8495D01*
X11816Y8495D01*
X11252Y7656D02*
X11252Y7873D01*
X11483Y7873D01*
X11483Y7505D01*
X11403Y7505D01*
G75*
D01*
G02X11252Y7656I0J151*
G01*
X11816Y7505D02*
X11736Y7505D01*
X11736Y7873D01*
X11967Y7873D01*
X11967Y7656D01*
G75*
D01*
G02X11816Y7505I-151J0*
G01*
X11216Y5695D02*
G74*
D01*
G02X11367Y5544I0J151*
G01*
X11367Y5327D01*
X11136Y5327D01*
X11136Y5695D01*
X11216Y5695D01*
X10803Y5695D02*
X10883Y5695D01*
X10883Y5327D01*
X10652Y5327D01*
X10652Y5544D01*
G75*
D01*
G02X10803Y5695I151J0*
G01*
X11216Y4705D02*
X11136Y4705D01*
X11136Y5073D01*
X11367Y5073D01*
X11367Y4856D01*
G75*
D01*
G02X11216Y4705I-151J0*
G01*
X10652Y4856D02*
X10652Y5073D01*
X10883Y5073D01*
X10883Y4705D01*
X10803Y4705D01*
G75*
D01*
G02X10652Y4856I0J151*
G01*
X22705Y22900D02*
G75*
D01*
G02X22705Y22900I1095J0*
G01*
X19133Y22200D02*
G75*
D01*
G02X19133Y22200I467J0*
G01*
X20133Y22200D02*
G75*
D01*
G02X20133Y22200I467J0*
G01*
X22052Y22096D02*
G75*
D01*
G02X21704Y21748I-348J0*
G01*
X21496Y21748D01*
G75*
D01*
G02X21148Y22096I0J348*
G01*
X21148Y22304D01*
G75*
D01*
G02X21496Y22652I348J0*
G01*
X21704Y22652D01*
G74*
D01*
G02X22052Y22304I0J348*
G01*
X22052Y22096D01*
X24549Y21895D02*
G74*
D01*
G02X24705Y22051I251J95*
G01*
X24705Y21895D01*
X24549Y21895D01*
X24895Y22051D02*
G74*
D01*
G02X25051Y21895I95J251*
G01*
X24895Y21895D01*
X24895Y22051D01*
X25051Y21705D02*
G74*
D01*
G02X24895Y21549I251J95*
G01*
X24895Y21705D01*
X25051Y21705D01*
X24705Y21549D02*
G74*
D01*
G02X24549Y21705I95J251*
G01*
X24705Y21705D01*
X24705Y21549D01*
X24741Y21800D02*
G75*
D01*
G02X24741Y21800I59J0*
G01*
X14800Y21200D02*
G75*
D01*
G02X14800Y21200I400J0*
G01*
X16717Y21200D02*
G75*
D01*
G02X16717Y21200I400J0*
G01*
X17425Y18600D02*
G75*
D01*
G02X17425Y18600I175J0*
G01*
X17764Y18235D02*
G75*
D01*
G02X17436Y18235I-164J365*
G01*
X17600Y18399D01*
X17764Y18235D01*
X17965Y18764D02*
G75*
D01*
G02X17965Y18436I-365J-164*
G01*
X17801Y18600D01*
X17965Y18764D01*
X17235Y18764D02*
X17399Y18600D01*
X17235Y18436D01*
G75*
D01*
G02X17235Y18764I365J164*
G01*
X18235Y15764D02*
X18399Y15600D01*
X18235Y15436D01*
G75*
D01*
G02X18235Y15764I365J164*
G01*
X5564Y23765D02*
G74*
D01*
G02X5835Y24036I436J165*
G01*
X5835Y23765D01*
X5564Y23765D01*
X6436Y23435D02*
G74*
D01*
G02X6165Y23164I436J165*
G01*
X6165Y23435D01*
X6436Y23435D01*
X5825Y23600D02*
G75*
D01*
G02X5825Y23600I175J0*
G01*
X5835Y23164D02*
G74*
D01*
G02X5564Y23435I165J436*
G01*
X5835Y23435D01*
X5835Y23164D01*
X6533Y23600D02*
G75*
D01*
G02X6533Y23600I467J0*
G01*
X7533Y23600D02*
G75*
D01*
G02X7533Y23600I467J0*
G01*
X6165Y24036D02*
G74*
D01*
G02X6436Y23765I165J436*
G01*
X6165Y23765D01*
X6165Y24036D01*
X5625Y15388D02*
G75*
D01*
G02X5975Y15388I175J-388*
G01*
X5800Y15213D01*
X5625Y15388D01*
X5975Y14612D02*
G75*
D01*
G02X5625Y14612I-175J388*
G01*
X5800Y14787D01*
X5975Y14612D01*
X5643Y15000D02*
G75*
D01*
G02X5643Y15000I157J0*
G01*
X6188Y15175D02*
G75*
D01*
G02X6188Y14825I-388J-175*
G01*
X6013Y15000D01*
X6188Y15175D01*
X5412Y15175D02*
X5587Y15000D01*
X5412Y14825D01*
G75*
D01*
G02X5412Y15175I388J175*
G01*
X4052Y9656D02*
X4052Y9873D01*
X4283Y9873D01*
X4283Y9505D01*
X4203Y9505D01*
G75*
D01*
G02X4052Y9656I0J151*
G01*
X4616Y10495D02*
G74*
D01*
G02X4767Y10344I0J151*
G01*
X4767Y10127D01*
X4536Y10127D01*
X4536Y10495D01*
X4616Y10495D01*
X4203Y10495D02*
X4283Y10495D01*
X4283Y10127D01*
X4052Y10127D01*
X4052Y10344D01*
G75*
D01*
G02X4203Y10495I151J0*
G01*
X4616Y9505D02*
X4536Y9505D01*
X4536Y9873D01*
X4767Y9873D01*
X4767Y9656D01*
G75*
D01*
G02X4616Y9505I-151J0*
G01*
X23216Y5695D02*
G74*
D01*
G02X23367Y5544I0J151*
G01*
X23367Y5327D01*
X23136Y5327D01*
X23136Y5695D01*
X23216Y5695D01*
X22405Y5049D02*
G74*
D01*
G02X22249Y5205I95J251*
G01*
X22405Y5205D01*
X22405Y5049D01*
X22441Y5300D02*
G75*
D01*
G02X22441Y5300I59J0*
G01*
X22249Y5395D02*
G74*
D01*
G02X22405Y5551I251J95*
G01*
X22405Y5395D01*
X22249Y5395D01*
X22803Y5695D02*
X22883Y5695D01*
X22883Y5327D01*
X22652Y5327D01*
X22652Y5395D01*
X22595Y5395D01*
X22595Y5551D01*
G74*
D01*
G02X22652Y5521I95J251*
G01*
X22652Y5544D01*
G75*
D01*
G02X22803Y5695I151J0*
G01*
X20216Y5695D02*
G74*
D01*
G02X20367Y5544I0J151*
G01*
X20367Y5327D01*
X20136Y5327D01*
X20136Y5695D01*
X20216Y5695D01*
X23216Y4705D02*
X23136Y4705D01*
X23136Y5073D01*
X23367Y5073D01*
X23367Y4856D01*
G75*
D01*
G02X23216Y4705I-151J0*
G01*
X22751Y5205D02*
G74*
D01*
G02X22595Y5049I251J95*
G01*
X22595Y5205D01*
X22751Y5205D01*
X22652Y4856D02*
X22652Y5073D01*
X22883Y5073D01*
X22883Y4705D01*
X22803Y4705D01*
G75*
D01*
G02X22652Y4856I0J151*
G01*
X20216Y4705D02*
X20136Y4705D01*
X20136Y5073D01*
X20367Y5073D01*
X20367Y4856D01*
G75*
D01*
G02X20216Y4705I-151J0*
G01*
X22521Y4451D02*
X22652Y4451D01*
X22652Y4544D01*
G75*
D01*
G02X22803Y4695I151J0*
G01*
X23216Y4695D01*
G74*
D01*
G02X23367Y4544I0J151*
G01*
X23367Y3856D01*
G75*
D01*
G02X23216Y3705I-151J0*
G01*
X22803Y3705D01*
G75*
D01*
G02X22652Y3856I0J151*
G01*
X22652Y3949D01*
X22400Y3949D01*
G75*
D01*
G02X22380Y3950I0J251*
G01*
G74*
D01*
G02X22222Y4022I20J250*
G01*
X22189Y4056D01*
G75*
D01*
G02X22521Y4451I111J244*
G01*
X19803Y5695D02*
X19883Y5695D01*
X19883Y5327D01*
X19652Y5327D01*
X19652Y5544D01*
G75*
D01*
G02X19803Y5695I151J0*
G01*
X19652Y4856D02*
X19652Y5073D01*
X19883Y5073D01*
X19883Y4705D01*
X19803Y4705D01*
G75*
D01*
G02X19652Y4856I0J151*
G01*
X24200Y15600D02*
G75*
D01*
G02X24200Y15600I400J0*
G01*
X23200Y15600D02*
G75*
D01*
G02X23200Y15600I400J0*
G01*
X22200Y15600D02*
G75*
D01*
G02X22200Y15600I400J0*
G01*
X21200Y15600D02*
G75*
D01*
G02X21200Y15600I400J0*
G01*
X20200Y15600D02*
G75*
D01*
G02X20200Y15600I400J0*
G01*
X19200Y15600D02*
G75*
D01*
G02X19200Y15600I400J0*
G01*
X18965Y15764D02*
G75*
D01*
G02X18965Y15436I-365J-164*
G01*
X18801Y15600D01*
X18965Y15764D01*
X505Y1500D02*
G75*
D01*
G02X505Y1500I1095J0*
G01*
X7148Y8344D02*
X7148Y8232D01*
X7199Y8283D01*
X7199Y10713D01*
X6401Y9915D01*
X6401Y9200D01*
G75*
D01*
G02X6342Y9058I-201J0*
G01*
X6142Y8858D01*
G74*
D01*
G02X6000Y8799I142J142*
G01*
X5948Y8799D01*
X5948Y8656D01*
G75*
D01*
G02X5797Y8505I-151J0*
G01*
X5384Y8505D01*
G75*
D01*
G02X5233Y8656I0J151*
G01*
X5233Y9344D01*
G75*
D01*
G02X5384Y9495I151J0*
G01*
X5797Y9495D01*
G74*
D01*
G02X5948Y9344I0J151*
G01*
X5948Y9232D01*
X5999Y9283D01*
X5999Y9799D01*
X5948Y9799D01*
X5948Y9656D01*
G75*
D01*
G02X5797Y9505I-151J0*
G01*
X5384Y9505D01*
G75*
D01*
G02X5233Y9656I0J151*
G01*
X5233Y10344D01*
G75*
D01*
G02X5384Y10495I151J0*
G01*
X5797Y10495D01*
G74*
D01*
G02X5948Y10344I0J151*
G01*
X5948Y10201D01*
X6118Y10201D01*
X7499Y11582D01*
X7499Y20000D01*
G75*
D01*
G02X7558Y20142I201J0*
G01*
X8558Y21142D01*
G74*
D01*
G02X8673Y21199I142J142*
G01*
G75*
D01*
G02X8700Y21201I27J-199*
G01*
X10600Y21201D01*
G75*
D01*
G02X10673Y21187I0J-201*
G01*
G74*
D01*
G02X10742Y21142I73J187*
G01*
X11583Y20301D01*
X22600Y20301D01*
G75*
D01*
G02X22667Y20289I0J-201*
G01*
G74*
D01*
G02X22742Y20242I67J189*
G01*
X23742Y19242D01*
G74*
D01*
G02X23801Y19100I142J142*
G01*
X23801Y18946D01*
G75*
D01*
G02X23399Y18946I-201J-346*
G01*
X23399Y19017D01*
X22517Y19899D01*
X22085Y19899D01*
X22742Y19242D01*
G74*
D01*
G02X22801Y19100I142J142*
G01*
X22801Y18946D01*
G75*
D01*
G02X22399Y18946I-201J-346*
G01*
X22399Y19017D01*
X21717Y19699D01*
X21285Y19699D01*
X21742Y19242D01*
G74*
D01*
G02X21801Y19100I142J142*
G01*
X21801Y18946D01*
G75*
D01*
G02X21399Y18946I-201J-346*
G01*
X21399Y19017D01*
X20917Y19499D01*
X20485Y19499D01*
X20742Y19242D01*
G74*
D01*
G02X20801Y19100I142J142*
G01*
X20801Y18946D01*
G75*
D01*
G02X20399Y18946I-201J-346*
G01*
X20399Y19017D01*
X20117Y19299D01*
X19685Y19299D01*
X19742Y19242D01*
G74*
D01*
G02X19801Y19100I142J142*
G01*
X19801Y18946D01*
G75*
D01*
G02X19399Y18946I-201J-346*
G01*
X19399Y19017D01*
X19317Y19099D01*
X11502Y19099D01*
X10201Y17798D01*
X10201Y14500D01*
X10201Y14500D01*
X10201Y14500D01*
X10201Y14500D01*
X10201Y12083D01*
X11083Y11201D01*
X12200Y11201D01*
G75*
D01*
G02X12259Y11192I0J-201*
G01*
G74*
D01*
G02X12342Y11142I59J192*
G01*
X12642Y10842D01*
G74*
D01*
G02X12701Y10700I142J142*
G01*
X12701Y10300D01*
G75*
D01*
G02X12642Y10158I-201J0*
G01*
X12401Y9917D01*
X12401Y9200D01*
G75*
D01*
G02X12342Y9058I-201J0*
G01*
X12142Y8858D01*
G74*
D01*
G02X12000Y8799I142J142*
G01*
X11948Y8799D01*
X11948Y8656D01*
G75*
D01*
G02X11797Y8505I-151J0*
G01*
X11384Y8505D01*
G75*
D01*
G02X11233Y8656I0J151*
G01*
X11233Y9344D01*
G75*
D01*
G02X11384Y9495I151J0*
G01*
X11797Y9495D01*
G74*
D01*
G02X11948Y9344I0J151*
G01*
X11948Y9232D01*
X11999Y9283D01*
X11999Y9799D01*
X11948Y9799D01*
X11948Y9656D01*
G75*
D01*
G02X11797Y9505I-151J0*
G01*
X11384Y9505D01*
G75*
D01*
G02X11233Y9656I0J151*
G01*
X11233Y10344D01*
G75*
D01*
G02X11384Y10495I151J0*
G01*
X11797Y10495D01*
G74*
D01*
G02X11948Y10344I0J151*
G01*
X11948Y10201D01*
X12117Y10201D01*
X12299Y10383D01*
X12299Y10617D01*
X12117Y10799D01*
X11000Y10799D01*
G75*
D01*
G02X10966Y10802I0J201*
G01*
G74*
D01*
G02X10858Y10858I34J198*
G01*
X9874Y11842D01*
X9094Y11061D01*
X9094Y11061D01*
X8891Y10858D01*
G74*
D01*
G02X8749Y10799I142J142*
G01*
X8366Y10799D01*
X8001Y10434D01*
X8001Y6483D01*
X8383Y6101D01*
X9500Y6101D01*
G75*
D01*
G02X9522Y6100I0J-201*
G01*
G75*
D01*
G02X9449Y6394I178J200*
G01*
X9449Y8699D01*
G75*
D01*
G02X9522Y8878I251J1*
G01*
X9822Y9178D01*
G74*
D01*
G02X9949Y9246I178J178*
G01*
G75*
D01*
G02X10000Y9251I51J-246*
G01*
X10052Y9251D01*
X10052Y9344D01*
G75*
D01*
G02X10203Y9495I151J0*
G01*
X10616Y9495D01*
G74*
D01*
G02X10767Y9344I0J151*
G01*
X10767Y8656D01*
G75*
D01*
G02X10616Y8505I-151J0*
G01*
X10203Y8505D01*
G75*
D01*
G02X10052Y8656I0J151*
G01*
X10052Y8697D01*
X9951Y8596D01*
X9951Y6394D01*
G75*
D01*
G02X9647Y6037I-251J-94*
G01*
X9842Y5842D01*
G74*
D01*
G02X9901Y5700I142J142*
G01*
X9901Y5400D01*
G75*
D01*
G02X9842Y5258I-201J0*
G01*
X9784Y5200D01*
X9842Y5142D01*
G74*
D01*
G02X9901Y5000I142J142*
G01*
X9901Y4400D01*
G75*
D01*
G02X9842Y4258I-201J0*
G01*
X9642Y4058D01*
G74*
D01*
G02X9548Y4005I142J142*
G01*
X9548Y3856D01*
G75*
D01*
G02X9506Y3751I-151J0*
G01*
X10694Y3751D01*
G75*
D01*
G02X10652Y3856I109J105*
G01*
X10652Y3949D01*
X10400Y3949D01*
G75*
D01*
G02X10380Y3950I0J251*
G01*
G74*
D01*
G02X10222Y4022I20J250*
G01*
X10189Y4056D01*
G75*
D01*
G02X10521Y4451I111J244*
G01*
X10652Y4451D01*
X10652Y4544D01*
G75*
D01*
G02X10803Y4695I151J0*
G01*
X11216Y4695D01*
G74*
D01*
G02X11367Y4544I0J151*
G01*
X11367Y3856D01*
G75*
D01*
G02X11325Y3751I-151J0*
G01*
X11875Y3751D01*
G75*
D01*
G02X11833Y3856I109J105*
G01*
X11833Y4544D01*
G75*
D01*
G02X11984Y4695I151J0*
G01*
X12397Y4695D01*
G74*
D01*
G02X12499Y4656I0J151*
G01*
X12499Y4744D01*
G74*
D01*
G02X12397Y4705I102J112*
G01*
X11984Y4705D01*
G75*
D01*
G02X11833Y4856I0J151*
G01*
X11833Y5544D01*
G75*
D01*
G02X11984Y5695I151J0*
G01*
X12397Y5695D01*
G74*
D01*
G02X12548Y5544I0J151*
G01*
X12548Y5401D01*
X12617Y5401D01*
X13599Y6383D01*
X13599Y8015D01*
X13501Y7917D01*
X13501Y7200D01*
G75*
D01*
G02X13442Y7058I-201J0*
G01*
X13242Y6858D01*
G74*
D01*
G02X13148Y6805I142J142*
G01*
X13148Y6656D01*
G75*
D01*
G02X12997Y6505I-151J0*
G01*
X12873Y6505D01*
G75*
D01*
G02X12606Y6049I-173J-205*
G01*
X11300Y6049D01*
G75*
D01*
G02X11263Y6051I0J251*
G01*
G74*
D01*
G02X11122Y6122I37J249*
G01*
X10922Y6322D01*
G75*
D01*
G02X10849Y6501I178J178*
G01*
X10849Y6800D01*
G75*
D01*
G02X10922Y6978I251J0*
G01*
X11122Y7178D01*
G74*
D01*
G02X11252Y7247I178J178*
G01*
X11252Y7344D01*
G75*
D01*
G02X11403Y7495I151J0*
G01*
X11816Y7495D01*
G74*
D01*
G02X11967Y7344I0J151*
G01*
X11967Y6656D01*
G75*
D01*
G02X11925Y6551I-151J0*
G01*
X12475Y6551D01*
G75*
D01*
G02X12433Y6656I109J105*
G01*
X12433Y7344D01*
G75*
D01*
G02X12584Y7495I151J0*
G01*
X12997Y7495D01*
G74*
D01*
G02X13099Y7456I0J151*
G01*
X13099Y7544D01*
G74*
D01*
G02X12997Y7505I102J112*
G01*
X12584Y7505D01*
G75*
D01*
G02X12433Y7656I0J151*
G01*
X12433Y8344D01*
G75*
D01*
G02X12584Y8495I151J0*
G01*
X12997Y8495D01*
G74*
D01*
G02X13148Y8344I0J151*
G01*
X13148Y8201D01*
X13217Y8201D01*
X13399Y8383D01*
X13399Y11168D01*
X12568Y11999D01*
X11200Y11999D01*
G75*
D01*
G02X11129Y12012I0J201*
G01*
G74*
D01*
G02X11058Y12058I71J188*
G01*
X10358Y12758D01*
G75*
D01*
G02X10299Y12900I142J142*
G01*
X10299Y14499D01*
G75*
D01*
G02X10299Y14500I201J1*
G01*
X10299Y17497D01*
G75*
D01*
G02X10358Y17640I201J1*
G01*
X11214Y18496D01*
G75*
D01*
G02X11628Y18201I386J104*
G01*
X12217Y18201D01*
X12325Y18309D01*
G75*
D01*
G02X12795Y18251I275J291*
G01*
G74*
D01*
G02X12742Y18158I195J49*
G01*
X12585Y18001D01*
X13017Y18001D01*
X13325Y18309D01*
G75*
D01*
G02X13795Y18251I275J291*
G01*
G74*
D01*
G02X13742Y18158I195J49*
G01*
X13385Y17801D01*
X13817Y17801D01*
X14325Y18309D01*
G75*
D01*
G02X14795Y18251I275J291*
G01*
G74*
D01*
G02X14742Y18158I195J49*
G01*
X14042Y17458D01*
G74*
D01*
G02X13918Y17400I142J142*
G01*
G75*
D01*
G02X13900Y17399I-18J200*
G01*
X11534Y17399D01*
X11301Y17166D01*
X11301Y15866D01*
G75*
D01*
G02X11801Y15254I299J-266*
G01*
X11801Y14883D01*
X12983Y13701D01*
X13415Y13701D01*
X12458Y14658D01*
G75*
D01*
G02X12399Y14800I142J142*
G01*
X12399Y15254D01*
G75*
D01*
G02X12801Y15254I201J346*
G01*
X12801Y14883D01*
X13783Y13901D01*
X14215Y13901D01*
X13458Y14658D01*
G75*
D01*
G02X13399Y14800I142J142*
G01*
X13399Y15254D01*
G75*
D01*
G02X13801Y15254I201J346*
G01*
X13801Y14883D01*
X14583Y14101D01*
X15015Y14101D01*
X14458Y14658D01*
G75*
D01*
G02X14399Y14800I142J142*
G01*
X14399Y15254D01*
G75*
D01*
G02X14801Y15254I201J346*
G01*
X14801Y14883D01*
X15383Y14301D01*
X15815Y14301D01*
X15458Y14658D01*
G75*
D01*
G02X15399Y14800I142J142*
G01*
X15399Y15254D01*
G75*
D01*
G02X15801Y15254I201J346*
G01*
X15801Y14883D01*
X16183Y14501D01*
X18883Y14501D01*
G74*
D01*
G02X19025Y14442I0J201*
G01*
X20942Y12525D01*
G74*
D01*
G02X21001Y12383I142J142*
G01*
X21001Y11666D01*
X21266Y11401D01*
X24283Y11401D01*
G74*
D01*
G02X24425Y11342I0J201*
G01*
X24942Y10825D01*
G74*
D01*
G02X25001Y10683I142J142*
G01*
X25001Y5400D01*
G75*
D01*
G02X24942Y5258I-201J0*
G01*
X24801Y5117D01*
X24801Y4300D01*
G75*
D01*
G02X24742Y4158I-201J0*
G01*
X24642Y4058D01*
G74*
D01*
G02X24548Y4005I142J142*
G01*
X24548Y3856D01*
G75*
D01*
G02X24397Y3705I-151J0*
G01*
X23984Y3705D01*
G75*
D01*
G02X23833Y3856I0J151*
G01*
X23833Y4544D01*
G75*
D01*
G02X23984Y4695I151J0*
G01*
X24397Y4695D01*
X24399Y4695D01*
X24399Y4705D01*
X24397Y4705D01*
X23984Y4705D01*
G75*
D01*
G02X23833Y4856I0J151*
G01*
X23833Y5544D01*
G75*
D01*
G02X23984Y5695I151J0*
G01*
X24397Y5695D01*
G74*
D01*
G02X24548Y5544I0J151*
G01*
X24548Y5432D01*
X24599Y5483D01*
X24599Y9215D01*
X24242Y8858D01*
G74*
D01*
G02X24100Y8799I142J142*
G01*
X23948Y8799D01*
X23948Y8656D01*
G75*
D01*
G02X23797Y8505I-151J0*
G01*
X23384Y8505D01*
G75*
D01*
G02X23233Y8656I0J151*
G01*
X23233Y9344D01*
G75*
D01*
G02X23384Y9495I151J0*
G01*
X23797Y9495D01*
G74*
D01*
G02X23899Y9456I0J151*
G01*
X23899Y9544D01*
G74*
D01*
G02X23797Y9505I102J112*
G01*
X23384Y9505D01*
G75*
D01*
G02X23233Y9656I0J151*
G01*
X23233Y10344D01*
G75*
D01*
G02X23384Y10495I151J0*
G01*
X23797Y10495D01*
G74*
D01*
G02X23948Y10344I0J151*
G01*
X23948Y10201D01*
X24000Y10201D01*
G74*
D01*
G02X24142Y10142I0J201*
G01*
X24242Y10042D01*
G74*
D01*
G02X24301Y9900I142J142*
G01*
X24301Y9485D01*
X24399Y9583D01*
X24399Y10517D01*
X24117Y10799D01*
X21100Y10799D01*
G75*
D01*
G02X21042Y10808I0J201*
G01*
G74*
D01*
G02X20958Y10858I58J192*
G01*
X20458Y11358D01*
G75*
D01*
G02X20399Y11500I142J142*
G01*
X20399Y12217D01*
X18717Y13899D01*
X18685Y13899D01*
X20242Y12342D01*
G74*
D01*
G02X20301Y12200I142J142*
G01*
X20301Y9601D01*
X20301Y9600D01*
X20301Y9500D01*
X20301Y9500D01*
X20301Y6483D01*
X20683Y6101D01*
X21500Y6101D01*
G75*
D01*
G02X21522Y6100I0J-201*
G01*
G75*
D01*
G02X21449Y6394I178J200*
G01*
X21449Y8699D01*
G75*
D01*
G02X21522Y8878I251J1*
G01*
X21822Y9178D01*
G74*
D01*
G02X21949Y9246I178J178*
G01*
G75*
D01*
G02X22000Y9251I51J-246*
G01*
X22052Y9251D01*
X22052Y9344D01*
G75*
D01*
G02X22203Y9495I151J0*
G01*
X22616Y9495D01*
G74*
D01*
G02X22767Y9344I0J151*
G01*
X22767Y8656D01*
G75*
D01*
G02X22616Y8505I-151J0*
G01*
X22203Y8505D01*
G75*
D01*
G02X22052Y8656I0J151*
G01*
X22052Y8697D01*
X21951Y8596D01*
X21951Y6394D01*
G75*
D01*
G02X21647Y6037I-251J-94*
G01*
X21942Y5742D01*
G74*
D01*
G02X22001Y5600I142J142*
G01*
X22001Y4500D01*
G75*
D01*
G02X21942Y4358I-201J0*
G01*
X21642Y4058D01*
G74*
D01*
G02X21548Y4005I142J142*
G01*
X21548Y3856D01*
G75*
D01*
G02X21397Y3705I-151J0*
G01*
X20984Y3705D01*
G75*
D01*
G02X20833Y3856I0J151*
G01*
X20833Y4544D01*
G75*
D01*
G02X20984Y4695I151J0*
G01*
X21397Y4695D01*
G74*
D01*
G02X21548Y4544I0J151*
G01*
X21548Y4532D01*
X21599Y4583D01*
X21599Y4999D01*
X21548Y4999D01*
X21548Y4856D01*
G75*
D01*
G02X21397Y4705I-151J0*
G01*
X20984Y4705D01*
G75*
D01*
G02X20833Y4856I0J151*
G01*
X20833Y5544D01*
G75*
D01*
G02X20984Y5695I151J0*
G01*
X21397Y5695D01*
G74*
D01*
G02X21423Y5693I0J151*
G01*
X21417Y5699D01*
X20600Y5699D01*
G75*
D01*
G02X20542Y5708I0J201*
G01*
G74*
D01*
G02X20458Y5758I58J192*
G01*
X20000Y6216D01*
X18901Y5117D01*
X18901Y4400D01*
G75*
D01*
G02X18842Y4258I-201J0*
G01*
X18642Y4058D01*
G74*
D01*
G02X18548Y4005I142J142*
G01*
X18548Y3856D01*
G75*
D01*
G02X18506Y3751I-151J0*
G01*
X19694Y3751D01*
G75*
D01*
G02X19652Y3856I109J105*
G01*
X19652Y3949D01*
X19400Y3949D01*
G75*
D01*
G02X19380Y3950I0J251*
G01*
G74*
D01*
G02X19222Y4022I20J250*
G01*
X19189Y4056D01*
G75*
D01*
G02X19521Y4451I111J244*
G01*
X19652Y4451D01*
X19652Y4544D01*
G75*
D01*
G02X19803Y4695I151J0*
G01*
X20216Y4695D01*
G74*
D01*
G02X20367Y4544I0J151*
G01*
X20367Y3856D01*
G75*
D01*
G02X20325Y3751I-151J0*
G01*
X20600Y3751D01*
G75*
D01*
G02X20653Y3746I0J-251*
G01*
G74*
D01*
G02X20778Y3677I53J246*
G01*
X21277Y3178D01*
G74*
D01*
G02X21351Y3000I177J178*
G01*
X21351Y1500D01*
G75*
D01*
G02X21277Y1322I-251J0*
G01*
X20744Y789D01*
G75*
D01*
G02X20389Y1144I-244J111*
G01*
X20849Y1604D01*
X20849Y2896D01*
X20496Y3249D01*
X19706Y3249D01*
X20611Y2344D01*
G75*
D01*
G02X20256Y1989I-111J-244*
G01*
X19296Y2949D01*
X16406Y2949D01*
X17611Y1744D01*
G75*
D01*
G02X17256Y1389I-111J-244*
G01*
X15996Y2649D01*
X13706Y2649D01*
X14611Y1744D01*
G75*
D01*
G02X14256Y1389I-111J-244*
G01*
X13296Y2349D01*
X11006Y2349D01*
X11611Y1744D01*
G75*
D01*
G02X11256Y1389I-111J-244*
G01*
X10596Y2049D01*
X8306Y2049D01*
X8611Y1744D01*
G75*
D01*
G02X8256Y1389I-111J-244*
G01*
X7896Y1749D01*
X5600Y1749D01*
G75*
D01*
G02X5406Y1249I-100J-249*
G01*
X3554Y1249D01*
G75*
D01*
G02X3474Y1262I0J251*
G01*
G74*
D01*
G02X3377Y1322I80J238*
G01*
X1522Y3177D01*
G75*
D01*
G02X1449Y3355I178J177*
G01*
X1449Y12379D01*
G75*
D01*
G02X1749Y12823I151J221*
G01*
X1749Y13796D01*
X1196Y14349D01*
X793Y14349D01*
G75*
D01*
G02X-52Y14485I-393J251*
G01*
X-52Y12515D01*
G75*
D01*
G02X749Y12710I452J-115*
G01*
X749Y13196D01*
X721Y13224D01*
G74*
D01*
G02X504Y13148I217J272*
G01*
X296Y13148D01*
G75*
D01*
G02X-52Y13496I0J348*
G01*
X-52Y13704D01*
G75*
D01*
G02X296Y14052I348J0*
G01*
X504Y14052D01*
G74*
D01*
G02X834Y13812I0J348*
G01*
G74*
D01*
G02X878Y13777I134J212*
G01*
X1177Y13478D01*
G74*
D01*
G02X1251Y13300I177J178*
G01*
X1251Y3700D01*
G75*
D01*
G02X1177Y3522I-251J0*
G01*
X878Y3223D01*
G74*
D01*
G02X834Y3188I178J177*
G01*
G74*
D01*
G02X504Y2948I330J108*
G01*
X296Y2948D01*
G75*
D01*
G02X-52Y3296I0J348*
G01*
X-52Y3504D01*
G75*
D01*
G02X296Y3852I348J0*
G01*
X504Y3852D01*
G74*
D01*
G02X721Y3776I0J348*
G01*
X749Y3804D01*
X749Y4090D01*
G75*
D01*
G02X-52Y4285I-349J310*
G01*
X-52Y1821D01*
G74*
D01*
G02X-52Y1805I151J16*
G01*
G75*
D01*
G03X1400Y354I1452J0*
G01*
G74*
D01*
G02X1416Y353I0J152*
G01*
X23879Y353D01*
G75*
D01*
G02X23894Y354I15J-151*
G01*
G74*
D01*
G03X24290Y409I0J1451*
G01*
G75*
D01*
G02X25291Y1411I-90J1091*
G01*
G75*
D01*
G03X25346Y1805I-1397J394*
G01*
G74*
D01*
G02X25347Y1821I151J0*
G01*
X25347Y22784D01*
G75*
D01*
G02X25346Y22800I150J16*
G01*
G74*
D01*
G03X23894Y24252I1452J0*
G01*
G75*
D01*
G02X23879Y24252I0J151*
G01*
X3802Y24252D01*
G75*
D01*
G02X3198Y24252I-302J-1052*
G01*
X1416Y24252D01*
G74*
D01*
G02X1400Y24252I16J151*
G01*
G75*
D01*
G03X-52Y22800I0J-1452*
G01*
G75*
D01*
G02X-52Y22784I-151J0*
G01*
X-52Y22715D01*
G75*
D01*
G02X-52Y22485I452J-115*
G01*
X-52Y21715D01*
G75*
D01*
G02X-52Y21485I452J-115*
G01*
X-52Y20715D01*
G75*
D01*
G02X-52Y20485I452J-115*
G01*
X-52Y19715D01*
G75*
D01*
G02X793Y19851I452J-115*
G01*
X1300Y19851D01*
G75*
D01*
G02X1388Y19835I0J-251*
G01*
G74*
D01*
G02X1478Y19777I88J235*
G01*
X4877Y16378D01*
G74*
D01*
G02X4951Y16200I177J178*
G01*
X4951Y12900D01*
G75*
D01*
G02X4877Y12722I-251J0*
G01*
X3751Y11596D01*
X3751Y9006D01*
X3922Y9178D01*
G74*
D01*
G02X4052Y9247I178J178*
G01*
X4052Y9344D01*
G75*
D01*
G02X4203Y9495I151J0*
G01*
X4616Y9495D01*
G74*
D01*
G02X4767Y9344I0J151*
G01*
X4767Y8656D01*
G75*
D01*
G02X4616Y8505I-151J0*
G01*
X4203Y8505D01*
G75*
D01*
G02X4151Y8514I0J151*
G01*
X4151Y6804D01*
X4311Y6644D01*
G75*
D01*
G02X3956Y6289I-111J-244*
G01*
X3751Y6494D01*
X3751Y4204D01*
X4204Y3751D01*
X4694Y3751D01*
G75*
D01*
G02X4652Y3856I109J105*
G01*
X4652Y3949D01*
X4400Y3949D01*
G75*
D01*
G02X4380Y3950I0J251*
G01*
G74*
D01*
G02X4222Y4022I20J250*
G01*
X4189Y4056D01*
G75*
D01*
G02X4521Y4451I111J244*
G01*
X4652Y4451D01*
X4652Y4544D01*
G75*
D01*
G02X4803Y4695I151J0*
G01*
X5216Y4695D01*
G74*
D01*
G02X5367Y4544I0J151*
G01*
X5367Y3856D01*
G75*
D01*
G02X5325Y3751I-151J0*
G01*
X5875Y3751D01*
G75*
D01*
G02X5833Y3856I109J105*
G01*
X5833Y4544D01*
G75*
D01*
G02X5984Y4695I151J0*
G01*
X6397Y4695D01*
G74*
D01*
G02X6499Y4656I0J151*
G01*
X6499Y4744D01*
G74*
D01*
G02X6397Y4705I102J112*
G01*
X5984Y4705D01*
G75*
D01*
G02X5833Y4856I0J151*
G01*
X5833Y5544D01*
G75*
D01*
G02X5984Y5695I151J0*
G01*
X6397Y5695D01*
G74*
D01*
G02X6505Y5650I0J151*
G01*
G74*
D01*
G02X6558Y5742I195J50*
G01*
X7399Y6583D01*
X7399Y7172D01*
G74*
D01*
G02X7342Y7058I199J28*
G01*
X7148Y6864D01*
X7148Y6656D01*
G75*
D01*
G02X6997Y6505I-151J0*
G01*
X6873Y6505D01*
G75*
D01*
G02X6606Y6049I-173J-205*
G01*
X5300Y6049D01*
G75*
D01*
G02X5263Y6051I0J251*
G01*
G74*
D01*
G02X5122Y6122I37J249*
G01*
X4922Y6322D01*
G75*
D01*
G02X4849Y6501I178J178*
G01*
X4849Y6800D01*
G75*
D01*
G02X4922Y6978I251J0*
G01*
X5122Y7178D01*
G74*
D01*
G02X5252Y7247I178J178*
G01*
X5252Y7344D01*
G75*
D01*
G02X5403Y7495I151J0*
G01*
X5816Y7495D01*
G74*
D01*
G02X5967Y7344I0J151*
G01*
X5967Y6656D01*
G75*
D01*
G02X5925Y6551I-151J0*
G01*
X6475Y6551D01*
G75*
D01*
G02X6433Y6656I109J105*
G01*
X6433Y7344D01*
G75*
D01*
G02X6584Y7495I151J0*
G01*
X6997Y7495D01*
X6999Y7495D01*
X6999Y7505D01*
X6997Y7505D01*
X6584Y7505D01*
G75*
D01*
G02X6433Y7656I0J151*
G01*
X6433Y8344D01*
G75*
D01*
G02X6584Y8495I151J0*
G01*
X6997Y8495D01*
G74*
D01*
G02X7148Y8344I0J151*
G01*
X7049Y5395D02*
G74*
D01*
G02X7205Y5551I251J95*
G01*
X7205Y5395D01*
X7049Y5395D01*
X7803Y5695D02*
X7883Y5695D01*
X7883Y5327D01*
X7652Y5327D01*
X7652Y5544D01*
G75*
D01*
G02X7803Y5695I151J0*
G01*
X7395Y5551D02*
G74*
D01*
G02X7551Y5395I95J251*
G01*
X7395Y5395D01*
X7395Y5551D01*
X8216Y5695D02*
G74*
D01*
G02X8367Y5544I0J151*
G01*
X8367Y5327D01*
X8136Y5327D01*
X8136Y5695D01*
X8216Y5695D01*
X7551Y5205D02*
G74*
D01*
G02X7395Y5049I251J95*
G01*
X7395Y5205D01*
X7551Y5205D01*
X7241Y5300D02*
G75*
D01*
G02X7241Y5300I59J0*
G01*
X7205Y5049D02*
G74*
D01*
G02X7049Y5205I95J251*
G01*
X7205Y5205D01*
X7205Y5049D01*
X8216Y4705D02*
X8136Y4705D01*
X8136Y5073D01*
X8367Y5073D01*
X8367Y4856D01*
G75*
D01*
G02X8216Y4705I-151J0*
G01*
X7652Y4856D02*
X7652Y5073D01*
X7883Y5073D01*
X7883Y4705D01*
X7803Y4705D01*
G75*
D01*
G02X7652Y4856I0J151*
G01*
X8984Y4695D02*
X9397Y4695D01*
G74*
D01*
G02X9499Y4656I0J151*
G01*
X9499Y4744D01*
G74*
D01*
G02X9397Y4705I102J112*
G01*
X8984Y4705D01*
G75*
D01*
G02X8833Y4856I0J151*
G01*
X8833Y5544D01*
G75*
D01*
G02X8984Y5695I151J0*
G01*
X9397Y5695D01*
G74*
D01*
G02X9423Y5693I0J151*
G01*
X9417Y5699D01*
X8300Y5699D01*
G75*
D01*
G02X8242Y5708I0J201*
G01*
G74*
D01*
G02X8158Y5758I58J192*
G01*
X7658Y6258D01*
G74*
D01*
G02X7650Y6266I142J142*
G01*
X6901Y5517D01*
X6901Y4400D01*
G75*
D01*
G02X6842Y4258I-201J0*
G01*
X6642Y4058D01*
G74*
D01*
G02X6548Y4005I142J142*
G01*
X6548Y3856D01*
G75*
D01*
G02X6506Y3751I-151J0*
G01*
X7694Y3751D01*
G75*
D01*
G02X7652Y3856I109J105*
G01*
X7652Y3949D01*
X7400Y3949D01*
G75*
D01*
G02X7380Y3950I0J251*
G01*
G74*
D01*
G02X7222Y4022I20J250*
G01*
X7189Y4056D01*
G75*
D01*
G02X7521Y4451I111J244*
G01*
X7652Y4451D01*
X7652Y4544D01*
G75*
D01*
G02X7803Y4695I151J0*
G01*
X8216Y4695D01*
G74*
D01*
G02X8367Y4544I0J151*
G01*
X8367Y3856D01*
G75*
D01*
G02X8325Y3751I-151J0*
G01*
X8875Y3751D01*
G75*
D01*
G02X8833Y3856I109J105*
G01*
X8833Y4544D01*
G75*
D01*
G02X8984Y4695I151J0*
G01*
X16616Y9505D02*
G75*
D01*
G03X16767Y9656I0J151*
G01*
X16767Y9873D01*
X16536Y9873D01*
X16536Y9505D01*
X16616Y9505D01*
X16616Y10495D02*
X16536Y10495D01*
X16536Y10127D01*
X16767Y10127D01*
X16767Y10344D01*
G74*
D01*
G03X16616Y10495I151J0*
G01*
X16052Y9656D02*
G75*
D01*
G03X16203Y9505I151J0*
G01*
X16283Y9505D01*
X16283Y9873D01*
X16052Y9873D01*
X16052Y9656D01*
X16203Y10495D02*
G75*
D01*
G03X16052Y10344I0J-151*
G01*
X16052Y10127D01*
X16283Y10127D01*
X16283Y10495D01*
X16203Y10495D01*
X17816Y8495D02*
X17736Y8495D01*
X17736Y8127D01*
X17967Y8127D01*
X17967Y8344D01*
G74*
D01*
G03X17816Y8495I151J0*
G01*
X17403Y8495D02*
G75*
D01*
G03X17252Y8344I0J-151*
G01*
X17252Y8127D01*
X17483Y8127D01*
X17483Y8495D01*
X17403Y8495D01*
X17816Y7505D02*
G75*
D01*
G03X17967Y7656I0J151*
G01*
X17967Y7873D01*
X17736Y7873D01*
X17736Y7505D01*
X17816Y7505D01*
X17252Y7656D02*
G75*
D01*
G03X17403Y7505I151J0*
G01*
X17483Y7505D01*
X17483Y7873D01*
X17252Y7873D01*
X17252Y7656D01*
X17216Y5695D02*
X17136Y5695D01*
X17136Y5327D01*
X17367Y5327D01*
X17367Y5544D01*
G74*
D01*
G03X17216Y5695I151J0*
G01*
X16803Y5695D02*
G75*
D01*
G03X16652Y5544I0J-151*
G01*
X16652Y5327D01*
X16883Y5327D01*
X16883Y5695D01*
X16803Y5695D01*
X16241Y5300D02*
G75*
D01*
G03X16241Y5300I59J0*
G01*
X16205Y5049D02*
X16205Y5205D01*
X16049Y5205D01*
G74*
D01*
G03X16205Y5049I251J95*
G01*
X16551Y5205D02*
X16395Y5205D01*
X16395Y5049D01*
G74*
D01*
G03X16551Y5205I95J251*
G01*
X16395Y5551D02*
X16395Y5395D01*
X16551Y5395D01*
G74*
D01*
G03X16395Y5551I251J95*
G01*
X16049Y5395D02*
X16205Y5395D01*
X16205Y5551D01*
G74*
D01*
G03X16049Y5395I95J251*
G01*
X16652Y4856D02*
G75*
D01*
G03X16803Y4705I151J0*
G01*
X16883Y4705D01*
X16883Y5073D01*
X16652Y5073D01*
X16652Y4856D01*
X17216Y4705D02*
G75*
D01*
G03X17367Y4856I0J151*
G01*
X17367Y5073D01*
X17136Y5073D01*
X17136Y4705D01*
X17216Y4705D01*
X18433Y7656D02*
G75*
D01*
G03X18584Y7505I151J0*
G01*
X18997Y7505D01*
G75*
D01*
G03X19148Y7656I0J151*
G01*
X19148Y7799D01*
X19199Y7799D01*
X19199Y7283D01*
X19148Y7232D01*
X19148Y7344D01*
G74*
D01*
G03X18997Y7495I151J0*
G01*
X18584Y7495D01*
G75*
D01*
G03X18433Y7344I0J-151*
G01*
X18433Y6656D01*
G75*
D01*
G03X18475Y6551I151J0*
G01*
X17925Y6551D01*
G75*
D01*
G03X17967Y6656I-109J105*
G01*
X17967Y7344D01*
G74*
D01*
G03X17816Y7495I151J0*
G01*
X17403Y7495D01*
G75*
D01*
G03X17252Y7344I0J-151*
G01*
X17252Y7247D01*
G74*
D01*
G03X17122Y7178I48J247*
G01*
X16922Y6978D01*
G75*
D01*
G03X16849Y6799I178J-178*
G01*
X16849Y6500D01*
G75*
D01*
G03X16922Y6322I251J0*
G01*
X17122Y6122D01*
G75*
D01*
G03X17300Y6049I178J178*
G01*
X18606Y6049D01*
G75*
D01*
G03X18873Y6505I94J251*
G01*
X18997Y6505D01*
G75*
D01*
G03X19148Y6656I0J151*
G01*
X19148Y6799D01*
X19200Y6799D01*
G74*
D01*
G03X19342Y6858I0J201*
G01*
X19542Y7058D01*
G75*
D01*
G03X19601Y7200I-142J142*
G01*
X19601Y7917D01*
X19699Y8015D01*
X19699Y6483D01*
X18617Y5401D01*
X18548Y5401D01*
X18548Y5544D01*
G74*
D01*
G03X18397Y5695I151J0*
G01*
X17984Y5695D01*
G75*
D01*
G03X17833Y5544I0J-151*
G01*
X17833Y4856D01*
G75*
D01*
G03X17984Y4705I151J0*
G01*
X18397Y4705D01*
G74*
D01*
G03X18499Y4744I0J151*
G01*
X18499Y4656D01*
G74*
D01*
G03X18397Y4695I102J112*
G01*
X17984Y4695D01*
G75*
D01*
G03X17833Y4544I0J-151*
G01*
X17833Y3856D01*
G75*
D01*
G03X17875Y3751I151J0*
G01*
X17325Y3751D01*
G75*
D01*
G03X17367Y3856I-109J105*
G01*
X17367Y4544D01*
G74*
D01*
G03X17216Y4695I151J0*
G01*
X16803Y4695D01*
G75*
D01*
G03X16652Y4544I0J-151*
G01*
X16652Y4451D01*
X16521Y4451D01*
G75*
D01*
G03X16189Y4056I-221J-151*
G01*
X16222Y4022D01*
G74*
D01*
G03X16380Y3950I178J178*
G01*
G75*
D01*
G03X16400Y3949I20J250*
G01*
X16652Y3949D01*
X16652Y3856D01*
G75*
D01*
G03X16694Y3751I151J0*
G01*
X15506Y3751D01*
G75*
D01*
G03X15548Y3856I-109J105*
G01*
X15548Y4005D01*
G74*
D01*
G03X15642Y4058I48J195*
G01*
X15942Y4358D01*
G75*
D01*
G03X16001Y4500I-142J142*
G01*
X16001Y5600D01*
G74*
D01*
G03X15942Y5742I201J0*
G01*
X15647Y6037D01*
G75*
D01*
G03X15951Y6394I53J263*
G01*
X15951Y8596D01*
X16052Y8697D01*
X16052Y8656D01*
G75*
D01*
G03X16203Y8505I151J0*
G01*
X16616Y8505D01*
G75*
D01*
G03X16767Y8656I0J151*
G01*
X16767Y9344D01*
G74*
D01*
G03X16616Y9495I151J0*
G01*
X16203Y9495D01*
G75*
D01*
G03X16052Y9344I0J-151*
G01*
X16052Y9251D01*
X16000Y9251D01*
G75*
D01*
G03X15949Y9246I0J-251*
G01*
G74*
D01*
G03X15822Y9178I51J246*
G01*
X15522Y8878D01*
G75*
D01*
G03X15449Y8699I178J-178*
G01*
X15449Y6394D01*
G75*
D01*
G03X15522Y6100I251J-94*
G01*
G75*
D01*
G03X15500Y6101I-22J-200*
G01*
X14683Y6101D01*
X14201Y6583D01*
X14201Y11299D01*
X18017Y11299D01*
X18299Y11017D01*
X18299Y10383D01*
X18117Y10201D01*
X17948Y10201D01*
X17948Y10344D01*
G74*
D01*
G03X17797Y10495I151J0*
G01*
X17384Y10495D01*
G75*
D01*
G03X17233Y10344I0J-151*
G01*
X17233Y9656D01*
G75*
D01*
G03X17384Y9505I151J0*
G01*
X17797Y9505D01*
G75*
D01*
G03X17948Y9656I0J151*
G01*
X17948Y9799D01*
X17999Y9799D01*
X17999Y9283D01*
X17948Y9232D01*
X17948Y9344D01*
G74*
D01*
G03X17797Y9495I151J0*
G01*
X17384Y9495D01*
G75*
D01*
G03X17233Y9344I0J-151*
G01*
X17233Y8656D01*
G75*
D01*
G03X17384Y8505I151J0*
G01*
X17797Y8505D01*
G75*
D01*
G03X17948Y8656I0J151*
G01*
X17948Y8799D01*
X18000Y8799D01*
G74*
D01*
G03X18142Y8858I0J201*
G01*
X18342Y9058D01*
G75*
D01*
G03X18401Y9200I-142J142*
G01*
X18401Y9917D01*
X18642Y10158D01*
G75*
D01*
G03X18701Y10300I-142J142*
G01*
X18701Y11100D01*
G74*
D01*
G03X18642Y11242I201J0*
G01*
X18543Y11341D01*
X18242Y11642D01*
G74*
D01*
G03X18152Y11694I142J142*
G01*
G75*
D01*
G03X18100Y11701I-52J-194*
G01*
X14283Y11701D01*
X13042Y12942D01*
G74*
D01*
G03X12944Y12996I142J142*
G01*
G75*
D01*
G03X12900Y13001I-44J-196*
G01*
X11583Y13001D01*
X11301Y13283D01*
X11301Y14600D01*
X11301Y15334D01*
G74*
D01*
G03X11399Y15254I299J266*
G01*
X11399Y14800D01*
G75*
D01*
G03X11458Y14658I201J0*
G01*
X12758Y13358D01*
G75*
D01*
G03X12900Y13299I142J142*
G01*
X18151Y13299D01*
X18543Y12907D01*
X19499Y11951D01*
X19499Y8383D01*
X19317Y8201D01*
X19148Y8201D01*
X19148Y8344D01*
G74*
D01*
G03X18997Y8495I151J0*
G01*
X18584Y8495D01*
G75*
D01*
G03X18433Y8344I0J-151*
G01*
X18433Y7656D01*
X13241Y5300D02*
G75*
D01*
G03X13241Y5300I59J0*
G01*
X13205Y5049D02*
X13205Y5205D01*
X13049Y5205D01*
G74*
D01*
G03X13205Y5049I251J95*
G01*
X13803Y5695D02*
G75*
D01*
G03X13652Y5544I0J-151*
G01*
X13652Y5327D01*
X13883Y5327D01*
X13883Y5695D01*
X13803Y5695D01*
X13395Y5551D02*
X13395Y5395D01*
X13551Y5395D01*
G74*
D01*
G03X13395Y5551I251J95*
G01*
X13652Y4856D02*
G75*
D01*
G03X13803Y4705I151J0*
G01*
X13883Y4705D01*
X13883Y5073D01*
X13652Y5073D01*
X13652Y4856D01*
X13551Y5205D02*
X13395Y5205D01*
X13395Y5049D01*
G74*
D01*
G03X13551Y5205I95J251*
G01*
X14216Y5695D02*
X14136Y5695D01*
X14136Y5327D01*
X14367Y5327D01*
X14367Y5544D01*
G74*
D01*
G03X14216Y5695I151J0*
G01*
X14216Y4705D02*
G75*
D01*
G03X14367Y4856I0J151*
G01*
X14367Y5073D01*
X14136Y5073D01*
X14136Y4705D01*
X14216Y4705D01*
X13189Y4056D02*
X13222Y4022D01*
G74*
D01*
G03X13380Y3950I178J178*
G01*
G75*
D01*
G03X13400Y3949I20J250*
G01*
X13652Y3949D01*
X13652Y3856D01*
G75*
D01*
G03X13694Y3751I151J0*
G01*
X12506Y3751D01*
G75*
D01*
G03X12548Y3856I-109J105*
G01*
X12548Y4005D01*
G74*
D01*
G03X12642Y4058I48J195*
G01*
X12842Y4258D01*
G75*
D01*
G03X12901Y4400I-142J142*
G01*
X12901Y5117D01*
X13179Y5395D01*
X13205Y5395D01*
X13205Y5421D01*
X13942Y6158D01*
G74*
D01*
G03X13988Y6228I142J142*
G01*
X14458Y5758D01*
G74*
D01*
G03X14535Y5710I142J142*
G01*
G75*
D01*
G03X14600Y5699I65J190*
G01*
X15417Y5699D01*
X15423Y5693D01*
G74*
D01*
G03X15397Y5695I26J149*
G01*
X14984Y5695D01*
G75*
D01*
G03X14833Y5544I0J-151*
G01*
X14833Y4856D01*
G75*
D01*
G03X14984Y4705I151J0*
G01*
X15397Y4705D01*
G75*
D01*
G03X15548Y4856I0J151*
G01*
X15548Y4999D01*
X15599Y4999D01*
X15599Y4583D01*
X15548Y4532D01*
X15548Y4544D01*
G74*
D01*
G03X15397Y4695I151J0*
G01*
X14984Y4695D01*
G75*
D01*
G03X14833Y4544I0J-151*
G01*
X14833Y3856D01*
G75*
D01*
G03X14875Y3751I151J0*
G01*
X14325Y3751D01*
G75*
D01*
G03X14367Y3856I-109J105*
G01*
X14367Y4544D01*
G74*
D01*
G03X14216Y4695I151J0*
G01*
X13803Y4695D01*
G75*
D01*
G03X13652Y4544I0J-151*
G01*
X13652Y4451D01*
X13521Y4451D01*
G75*
D01*
G03X13189Y4056I-221J-151*
G01*
X749Y4710D02*
X749Y5090D01*
G75*
D01*
G02X-52Y5285I-349J310*
G01*
X-52Y4515D01*
G75*
D01*
G02X749Y4710I452J-115*
G01*
X749Y5710D02*
X749Y6090D01*
G75*
D01*
G02X-52Y6285I-349J310*
G01*
X-52Y5515D01*
G75*
D01*
G02X749Y5710I452J-115*
G01*
X15546Y5570D02*
X15599Y5517D01*
X15599Y5401D01*
X15548Y5401D01*
X15548Y5544D01*
G74*
D01*
G03X15546Y5570I151J0*
G01*
X21546Y5570D02*
X21599Y5517D01*
X21599Y5401D01*
X21548Y5401D01*
X21548Y5544D01*
G74*
D01*
G03X21546Y5570I151J0*
G01*
X749Y6710D02*
X749Y7090D01*
G75*
D01*
G02X-52Y7285I-349J310*
G01*
X-52Y6515D01*
G75*
D01*
G02X749Y6710I452J-115*
G01*
X749Y7710D02*
X749Y8090D01*
G75*
D01*
G02X-52Y8285I-349J310*
G01*
X-52Y7515D01*
G75*
D01*
G02X749Y7710I452J-115*
G01*
X749Y9090D02*
G75*
D01*
G02X-52Y9285I-349J310*
G01*
X-52Y8515D01*
G75*
D01*
G02X749Y8710I452J-115*
G01*
X749Y9090D01*
X749Y10090D02*
X749Y9710D01*
G75*
D01*
G03X-52Y9515I-349J-310*
G01*
X-52Y10285D01*
G75*
D01*
G03X749Y10090I452J115*
G01*
X749Y11090D02*
X749Y10710D01*
G75*
D01*
G03X-52Y10515I-349J-310*
G01*
X-52Y11285D01*
G75*
D01*
G03X749Y11090I452J115*
G01*
X749Y12090D02*
X749Y11710D01*
G75*
D01*
G03X-52Y11515I-349J-310*
G01*
X-52Y12285D01*
G75*
D01*
G03X749Y12090I452J115*
G01*
X9094Y19703D02*
G75*
D01*
G02X9094Y19703I6J197*
G01*
X9094Y19350D02*
G75*
D01*
G02X9094Y19350I6J-450*
G01*
X9094Y18097D02*
G75*
D01*
G02X9094Y18097I6J-197*
G01*
X9094Y15350D02*
G75*
D01*
G02X9094Y15350I6J-450*
G01*
X9094Y14097D02*
G75*
D01*
G02X9094Y14097I6J-197*
G01*
X8940Y19479D02*
G74*
D01*
G02X8679Y19740I160J421*
G01*
X8940Y19740D01*
X8940Y19479D01*
X8679Y20060D02*
G74*
D01*
G02X8940Y20321I421J160*
G01*
X8940Y20060D01*
X8679Y20060D01*
X9521Y19740D02*
G74*
D01*
G02X9260Y19479I421J160*
G01*
X9260Y19740D01*
X9521Y19740D01*
X9260Y20321D02*
G74*
D01*
G02X9521Y20060I160J421*
G01*
X9260Y20060D01*
X9260Y20321D01*
X8940Y17479D02*
G74*
D01*
G02X8679Y17740I160J421*
G01*
X8940Y17740D01*
X8940Y17479D01*
X8679Y18060D02*
G74*
D01*
G02X8940Y18321I421J160*
G01*
X8940Y18060D01*
X8679Y18060D01*
X8940Y13479D02*
G74*
D01*
G02X8679Y13740I160J421*
G01*
X8940Y13740D01*
X8940Y13479D01*
X8679Y14060D02*
G74*
D01*
G02X8940Y14321I421J160*
G01*
X8940Y14060D01*
X8679Y14060D01*
X9260Y18321D02*
G74*
D01*
G02X9521Y18060I160J421*
G01*
X9260Y18060D01*
X9260Y18321D01*
X9521Y17740D02*
G74*
D01*
G02X9260Y17479I421J160*
G01*
X9260Y17740D01*
X9521Y17740D01*
X9260Y14321D02*
G74*
D01*
G02X9521Y14060I160J421*
G01*
X9260Y14060D01*
X9260Y14321D01*
X9521Y13740D02*
G74*
D01*
G02X9260Y13479I421J160*
G01*
X9260Y13740D01*
X9521Y13740D01*
X9658Y18106D02*
X11151Y19599D01*
X10351Y20399D01*
X8949Y20399D01*
X8301Y19751D01*
X8301Y11300D01*
G75*
D01*
G02X8275Y11201I-201J0*
G01*
G75*
D01*
G02X8283Y11201I8J-201*
G01*
X8665Y11201D01*
X9094Y11630D01*
X9094Y11630D01*
X9599Y12135D01*
X9599Y14500D01*
X9599Y17963D01*
G75*
D01*
G02X9658Y18106I201J1*
G01*
X-52Y18715D02*
G75*
D01*
G02X793Y18851I452J-115*
G01*
X1300Y18851D01*
G75*
D01*
G02X1390Y18834I0J-251*
G01*
G74*
D01*
G02X1478Y18777I90J234*
G01*
X3377Y16878D01*
G74*
D01*
G02X3451Y16700I177J178*
G01*
X3451Y15244D01*
G75*
D01*
G02X3451Y14756I349J-244*
G01*
X3451Y12006D01*
X4449Y13004D01*
X4449Y16096D01*
X1196Y19349D01*
X793Y19349D01*
G75*
D01*
G02X-52Y19485I-393J251*
G01*
X-52Y18715D01*
X793Y15349D02*
X1196Y15349D01*
X2049Y14496D01*
X2049Y14206D01*
X1478Y14777D01*
G74*
D01*
G03X1350Y14846I178J177*
G01*
G75*
D01*
G03X1300Y14851I-50J-246*
G01*
X793Y14851D01*
G75*
D01*
G03X-52Y14715I-393J-251*
G01*
X-52Y15485D01*
G75*
D01*
G03X793Y15349I452J115*
G01*
X793Y16349D02*
X1196Y16349D01*
X2349Y15196D01*
X2349Y14906D01*
X1478Y15777D01*
G74*
D01*
G03X1396Y15832I178J177*
G01*
G75*
D01*
G03X1300Y15851I-96J-232*
G01*
X793Y15851D01*
G75*
D01*
G03X-52Y15715I-393J-251*
G01*
X-52Y16485D01*
G75*
D01*
G03X793Y16349I452J115*
G01*
X-52Y17485D02*
G75*
D01*
G03X793Y17349I452J115*
G01*
X1196Y17349D01*
X2649Y15896D01*
X2649Y15606D01*
X1478Y16777D01*
G74*
D01*
G03X1373Y16840I178J177*
G01*
G75*
D01*
G03X1300Y16851I-73J-240*
G01*
X793Y16851D01*
G75*
D01*
G03X-52Y16715I-393J-251*
G01*
X-52Y17485D01*
X793Y18349D02*
X1196Y18349D01*
X2949Y16596D01*
X2949Y16306D01*
X1478Y17777D01*
G74*
D01*
G03X1338Y17848I178J177*
G01*
G75*
D01*
G03X1300Y17851I-38J-248*
G01*
X793Y17851D01*
G75*
D01*
G03X-52Y17715I-393J-251*
G01*
X-52Y18485D01*
G75*
D01*
G03X793Y18349I452J115*
G01*
X11572Y18201D02*
G74*
D01*
G02X11499Y18213I28J399*
G01*
X11487Y18201D01*
X11572Y18201D01*
X13600Y18600D02*
X13600Y18300D01*
X13100Y17800D01*
X12600Y18300D02*
X12300Y18000D01*
X12600Y18600D02*
X12600Y18300D01*
X14600Y18300D02*
X13900Y17600D01*
X14600Y18600D02*
X14600Y18300D01*
X11600Y18598D02*
X10500Y17498D01*
X11100Y17249D02*
X11100Y14600D01*
X13900Y17600D02*
X11451Y17600D01*
X11100Y17249D01*
X11368Y17800D02*
X10900Y17332D01*
X10900Y14600D01*
X13100Y17800D02*
X11368Y17800D01*
X12300Y18000D02*
X11285Y18000D01*
X10700Y17415D01*
X10700Y14600D01*
X10500Y17498D02*
X10500Y14500D01*
X5591Y9000D02*
X6000Y9000D01*
X6200Y9200D01*
X7200Y8000D02*
X6791Y8000D01*
X7000Y7000D02*
X7200Y7200D01*
X6791Y7000D02*
X7000Y7000D01*
X7200Y7200D02*
X7200Y8000D01*
X10000Y17881D02*
X10000Y14500D01*
X9800Y17964D02*
X9800Y14500D01*
X6191Y4200D02*
X6500Y4200D01*
X6191Y5200D02*
X6700Y5200D01*
X6200Y10000D02*
X5591Y10000D01*
X6500Y4200D02*
X6700Y4400D01*
X9500Y5900D02*
X8300Y5900D01*
X9191Y5200D02*
X9500Y5200D01*
X9700Y5400D02*
X9700Y5700D01*
X9500Y5200D02*
X9700Y5400D01*
X9700Y5700D02*
X9500Y5900D01*
X9191Y4200D02*
X9500Y4200D01*
X9700Y4400D01*
X9700Y5000D01*
X9500Y5200D01*
X8749Y11000D02*
X9800Y12051D01*
X9800Y14500D01*
X11591Y9000D02*
X12000Y9000D01*
X12200Y9200D01*
X11591Y10000D02*
X12200Y10000D01*
X12500Y10300D01*
X12200Y9200D02*
X12200Y10000D01*
X11000Y11000D02*
X10000Y12000D01*
X10000Y14500D01*
X12500Y10700D02*
X12200Y11000D01*
X12500Y10300D02*
X12500Y10700D01*
X12200Y11000D02*
X11000Y11000D01*
X12791Y8000D02*
X13300Y8000D01*
X13600Y8300D01*
X13100Y7000D02*
X13300Y7200D01*
X12791Y7000D02*
X13100Y7000D01*
X13300Y7200D02*
X13300Y8000D01*
X12700Y5200D02*
X13800Y6300D01*
X12191Y5200D02*
X12700Y5200D01*
X12500Y4200D02*
X12700Y4400D01*
X12700Y5200D01*
X12191Y4200D02*
X12500Y4200D01*
X15191Y4200D02*
X15500Y4200D01*
X15800Y4500D01*
X15800Y5600D01*
X15191Y5200D02*
X15800Y5200D01*
X15500Y5900D02*
X14600Y5900D01*
X14000Y6500D01*
X15800Y5600D02*
X15500Y5900D01*
X10700Y14600D02*
X10700Y12983D01*
X10500Y12900D02*
X10500Y14500D01*
X10700Y12983D02*
X11283Y12400D01*
X11200Y12200D02*
X10500Y12900D01*
X10900Y13100D02*
X10900Y14600D01*
X11400Y12600D02*
X10900Y13100D01*
X17591Y10000D02*
X18200Y10000D01*
X18500Y10300D01*
X11500Y12800D02*
X11100Y13200D01*
X11100Y14600D01*
X14200Y11500D02*
X12900Y12800D01*
X13600Y8300D02*
X13600Y11251D01*
X12651Y12200D01*
X11200Y12200D01*
X13800Y6300D02*
X13800Y11334D01*
X11283Y12400D02*
X12734Y12400D01*
X13800Y11334D01*
X14000Y11417D02*
X12817Y12600D01*
X14000Y6500D02*
X14000Y11417D01*
X12817Y12600D02*
X11400Y12600D01*
X12900Y12800D02*
X11500Y12800D01*
X18500Y11100D02*
X18100Y11500D01*
X14200Y11500D01*
X18500Y10300D02*
X18500Y11100D01*
X17591Y9000D02*
X18000Y9000D01*
X18200Y9200D01*
X18200Y10000D01*
X18791Y8000D02*
X19400Y8000D01*
X18191Y5200D02*
X18700Y5200D01*
X18191Y4200D02*
X18500Y4200D01*
X18700Y4400D01*
X18700Y5200D01*
X21191Y4200D02*
X21500Y4200D01*
X21800Y4500D01*
X21800Y5600D01*
X21191Y5200D02*
X21800Y5200D01*
X21500Y5900D02*
X20600Y5900D01*
X21800Y5600D02*
X21500Y5900D01*
X20600Y5900D02*
X20100Y6400D01*
X20100Y9600D01*
X18700Y5200D02*
X19900Y6400D01*
X19900Y9600D01*
X19400Y8000D02*
X19700Y8300D01*
X13600Y15600D02*
X13600Y14800D01*
X12600Y15600D02*
X12600Y14800D01*
X11600Y15600D02*
X11600Y14800D01*
X14600Y15600D02*
X14600Y14800D01*
X15600Y15600D02*
X15600Y14800D01*
X12600Y14800D02*
X13700Y13700D01*
X13600Y14800D02*
X14500Y13900D01*
X14600Y14800D02*
X15300Y14100D01*
X15600Y14800D02*
X16100Y14300D01*
X18400Y13900D02*
X20100Y12200D01*
X13700Y13700D02*
X18317Y13700D01*
X19900Y12117D02*
X18317Y13700D01*
X19900Y9600D02*
X19900Y12117D01*
X14500Y13900D02*
X18400Y13900D01*
X20100Y12200D02*
X20100Y9600D01*
X23591Y9000D02*
X24100Y9000D01*
X24600Y5200D02*
X24191Y5200D01*
X24191Y4200D02*
X24500Y4200D01*
X24600Y4300D01*
X24600Y5200D01*
X24800Y5400D02*
X24600Y5200D01*
X24100Y9000D02*
X24600Y9500D01*
X24800Y10683D02*
X24800Y5400D01*
X24600Y9500D02*
X24600Y10600D01*
X24200Y11000D01*
X24283Y11200D02*
X24800Y10683D01*
X21100Y11000D02*
X20600Y11500D01*
X21183Y11200D02*
X24283Y11200D01*
X20800Y11583D02*
X21183Y11200D01*
X24200Y11000D02*
X21100Y11000D01*
X20600Y12300D02*
X18800Y14100D01*
X20800Y12383D02*
X20800Y11583D01*
X18883Y14300D02*
X20800Y12383D01*
X16100Y14300D02*
X18883Y14300D01*
X20600Y11500D02*
X20600Y12300D01*
X15300Y14100D02*
X18800Y14100D01*
X23591Y10000D02*
X24000Y10000D01*
X24100Y9900D01*
X24100Y9000D01*
X18791Y7000D02*
X19200Y7000D01*
X19400Y7200D01*
X19400Y8000D01*
X12900Y13500D02*
X18234Y13500D01*
X19700Y12034D02*
X18234Y13500D01*
X11600Y14800D02*
X12900Y13500D01*
X20600Y18600D02*
X20600Y19100D01*
X19600Y18600D02*
X19600Y19100D01*
X23600Y18600D02*
X23600Y19100D01*
X22600Y18600D02*
X22600Y19100D01*
X21600Y18600D02*
X21600Y19100D01*
X19400Y19300D02*
X11419Y19300D01*
X23600Y19100D02*
X22600Y20100D01*
X22600Y19100D02*
X21800Y19900D01*
X21600Y19100D02*
X21000Y19700D01*
X20200Y19500D02*
X11336Y19500D01*
X20600Y19100D02*
X20200Y19500D01*
X11336Y19500D02*
X9800Y17964D01*
X19600Y19100D02*
X19400Y19300D01*
X11419Y19300D02*
X10000Y17881D01*
X22600Y20100D02*
X11500Y20100D01*
X21800Y19900D02*
X11417Y19900D01*
X11334Y19700D02*
X21000Y19700D01*
X11334Y19700D02*
X10434Y20600D01*
X11417Y19900D02*
X10517Y20800D01*
X11500Y20100D02*
X10600Y21000D01*
X10434Y20600D02*
X8866Y20600D01*
X10517Y20800D02*
X8783Y20800D01*
X10600Y21000D02*
X8700Y21000D01*
X7700Y20000D01*
X6700Y4400D02*
X6700Y5600D01*
X7600Y6500D01*
X8300Y5900D02*
X7800Y6400D01*
X8283Y11000D02*
X8749Y11000D01*
X7800Y6400D02*
X7800Y10517D01*
X8283Y11000D01*
X7200Y8000D02*
X7400Y8200D01*
X8866Y20600D02*
X8100Y19834D01*
X8783Y20800D02*
X7900Y19917D01*
X6200Y9200D02*
X6200Y9999D01*
X7700Y11499D02*
X7700Y20000D01*
X7700Y11499D02*
X6200Y9999D01*
X7600Y10800D02*
X8100Y11300D01*
X7400Y10883D02*
X7900Y11383D01*
X7900Y19917D01*
X7400Y8200D02*
X7400Y10883D01*
X7600Y6500D02*
X7600Y10800D01*
X8100Y11300D02*
X8100Y19834D01*
X19700Y8300D02*
X19700Y12034D01*
G54D12*
X700Y13600D02*
X400Y13600D01*
X400Y3400D02*
X700Y3400D01*
X1000Y3700D02*
X1000Y13300D01*
X700Y3400D02*
X1000Y3700D01*
X1000Y13300D02*
X700Y13600D01*
X1300Y14600D02*
X400Y14600D01*
X1300Y15600D02*
X400Y15600D01*
X1700Y12500D02*
X1600Y12600D01*
X2000Y13900D02*
X1300Y14600D01*
X2300Y14600D02*
X1300Y15600D01*
X20500Y2100D02*
X19400Y3200D01*
X17500Y1500D02*
X16100Y2900D01*
X14500Y1500D02*
X13400Y2600D01*
X11500Y1500D02*
X10700Y2300D01*
X8500Y1500D02*
X8000Y2000D01*
X20500Y900D02*
X21100Y1500D01*
X21100Y3000D02*
X20600Y3500D01*
X21100Y1500D02*
X21100Y3000D01*
X2600Y15300D02*
X1300Y16600D01*
X400Y16600D01*
X2900Y16000D02*
X1300Y17600D01*
X400Y17600D01*
X3200Y16700D02*
X1300Y18600D01*
X400Y18600D01*
X4700Y16200D02*
X1300Y19600D01*
X400Y19600D01*
X3500Y11700D02*
X4700Y12900D01*
X4700Y16200D01*
X4100Y3500D02*
X3500Y4100D01*
X1700Y3354D02*
X1700Y12500D01*
X5500Y1500D02*
X3554Y1500D01*
X1700Y3354D01*
X8000Y2000D02*
X3479Y2000D01*
X2000Y3479D02*
X2000Y13900D01*
X3479Y2000D02*
X2000Y3479D01*
X10700Y2300D02*
X3603Y2300D01*
X2300Y3603D02*
X2300Y14600D01*
X3603Y2300D02*
X2300Y3603D01*
X2600Y3727D02*
X2600Y15300D01*
X13400Y2600D02*
X3727Y2600D01*
X2600Y3727D01*
X16100Y2900D02*
X3851Y2900D01*
X2900Y3851D02*
X2900Y16000D01*
X3851Y2900D02*
X2900Y3851D01*
X3200Y3976D02*
X3200Y16700D01*
X19400Y3200D02*
X3976Y3200D01*
X3200Y3976D01*
X3500Y4100D02*
X3500Y11700D01*
X20600Y3500D02*
X4100Y3500D01*
X23009Y4200D02*
X22400Y4200D01*
X22300Y4300D01*
X5009Y4200D02*
X4400Y4200D01*
X4300Y4300D01*
X8009Y4200D02*
X7400Y4200D01*
X7300Y4300D01*
X11009Y4200D02*
X10400Y4200D01*
X10300Y4300D01*
X14009Y4200D02*
X13400Y4200D01*
X13300Y4300D01*
X17009Y4200D02*
X16400Y4200D01*
X16300Y4300D01*
X20009Y4200D02*
X19400Y4200D01*
X19300Y4300D01*
X5509Y6900D02*
X5609Y7000D01*
X4409Y9000D02*
X4100Y9000D01*
X3900Y8800D01*
X3900Y6700D01*
X4200Y6400D01*
X11300Y7000D02*
X11609Y7000D01*
X12700Y6300D02*
X11300Y6300D01*
X11100Y6500D02*
X11100Y6800D01*
X11300Y7000D01*
X11300Y6300D02*
X11100Y6500D01*
X10000Y9000D02*
X9700Y8700D01*
X10409Y9000D02*
X10000Y9000D01*
X9700Y8700D02*
X9700Y6300D01*
X16000Y9000D02*
X15700Y8700D01*
X15700Y6300D01*
X16409Y9000D02*
X16000Y9000D01*
X22000Y9000D02*
X21700Y8700D01*
X22409Y9000D02*
X22000Y9000D01*
X21700Y8700D02*
X21700Y6300D01*
X17609Y7000D02*
X17300Y7000D01*
X17100Y6800D01*
X17100Y6500D01*
X17300Y6300D01*
X18700Y6300D01*
X16600Y15200D02*
X16800Y15000D01*
X17400Y15000D01*
X17600Y15200D01*
X17600Y15600D01*
X18600Y17600D02*
X17600Y16600D01*
X17600Y15600D01*
X18600Y18600D02*
X18600Y17600D01*
X16600Y15200D02*
X16600Y15600D01*
X6700Y6300D02*
X5300Y6300D01*
X5300Y7000D02*
X5609Y7000D01*
X5100Y6500D02*
X5100Y6800D01*
X5300Y6300D02*
X5100Y6500D01*
X5100Y6800D02*
X5300Y7000D01*
G54D13*
X-303Y102D02*
X-303Y2542D01*
X-303Y102D02*
X2287Y102D01*
X25597Y102D02*
X23007Y102D01*
X25597Y102D02*
X25597Y2542D01*
X25597Y24503D02*
X25597Y22063D01*
X25597Y24503D02*
X23007Y24503D01*
X-303Y24503D02*
X2287Y24503D01*
X-303Y24503D02*
X-303Y22063D01*
X-2272Y102D02*
X-6209Y102D01*
X-4240Y-1866D02*
X-4240Y2071D01*
X-5717Y102D02*
G75*
D01*
G02X-5717Y102I1477J0*
G01*
X27566Y102D02*
X31503Y102D01*
X29534Y-1866D02*
X29534Y2071D01*
X28058Y102D02*
G75*
D01*
G02X28058Y102I1476J0*
G01*
X29042Y102D02*
G75*
D01*
G02X29042Y102I492J0*
G01*
X-2272Y24503D02*
X-6209Y24503D01*
X-4240Y22535D02*
X-4240Y26472D01*
X-5717Y24503D02*
G75*
D01*
G02X-5717Y24503I1477J0*
G01*
X-5224Y24503D02*
G75*
D01*
G02X-5224Y24503I984J0*
G01*
X-4732Y24503D02*
G75*
D01*
G02X-4732Y24503I492J0*
G01*
G54D14*
X13600Y15600D03*
X19600Y15600D03*
X22600Y15600D03*
X24600Y15600D03*
X23600Y15600D03*
X21600Y15600D03*
X20600Y15600D03*
X16600Y15600D03*
X18600Y15600D03*
X17600Y15600D03*
X15600Y15600D03*
X14600Y15600D03*
X11600Y15600D03*
X12600Y15600D03*
X13600Y18600D03*
X19600Y18600D03*
X22600Y18600D03*
X24600Y18600D03*
X23600Y18600D03*
X21600Y18600D03*
X20600Y18600D03*
X16600Y18600D03*
X18600Y18600D03*
X17600Y18600D03*
X15600Y18600D03*
X14600Y18600D03*
X11600Y18600D03*
X12600Y18600D03*
X15200Y21200D03*
X17117Y21200D03*
G54D15*
X400Y6400D03*
X400Y5400D03*
X400Y4400D03*
X400Y8400D03*
X400Y7400D03*
X400Y9400D03*
X400Y11400D03*
X400Y10400D03*
X400Y12400D03*
X400Y16600D03*
X400Y15600D03*
X400Y14600D03*
X400Y18600D03*
X400Y17600D03*
X400Y19600D03*
X400Y21600D03*
X400Y20600D03*
X400Y22600D03*
X20600Y22200D03*
X19600Y22200D03*
X7000Y23600D03*
X8000Y23600D03*
X6000Y23600D03*
G54D16*
X400Y3400D03*
X400Y13600D03*
X21600Y22200D03*
X9000Y23600D03*
G54D17*
X296Y3296D02*
X504Y3296D01*
X504Y3504D01*
X296Y3504D01*
X296Y3296D01*D02*
X296Y13496D02*
X504Y13496D01*
X504Y13704D01*
X296Y13704D01*
X296Y13496D01*D02*
X21496Y22096D02*
X21704Y22096D01*
X21704Y22304D01*
X21496Y22304D01*
X21496Y22096D01*D02*
X8896Y23496D02*
X9104Y23496D01*
X9104Y23704D01*
X8896Y23704D01*
X8896Y23496D01*D02*
G54D18*
X5609Y7000D03*
X6791Y7000D03*
X5609Y8000D03*
X6791Y8000D03*
X4409Y9000D03*
X5591Y9000D03*
X4409Y10000D03*
X5591Y10000D03*
X11609Y7000D03*
X12791Y7000D03*
X11609Y8000D03*
X12791Y8000D03*
X10409Y9000D03*
X11591Y9000D03*
X10409Y10000D03*
X11591Y10000D03*
X17609Y7000D03*
X18791Y7000D03*
X17609Y8000D03*
X18791Y8000D03*
X16409Y9000D03*
X17591Y9000D03*
X16409Y10000D03*
X17591Y10000D03*
X22409Y9000D03*
X23591Y9000D03*
X22409Y10000D03*
X23591Y10000D03*
X5009Y4200D03*
X6191Y4200D03*
X8009Y4200D03*
X9191Y4200D03*
X11009Y4200D03*
X12191Y4200D03*
X14009Y4200D03*
X15191Y4200D03*
X17009Y4200D03*
X18191Y4200D03*
X20009Y4200D03*
X21191Y4200D03*
X23009Y4200D03*
X24191Y4200D03*
X23009Y5200D03*
X24191Y5200D03*
X20009Y5200D03*
X21191Y5200D03*
X17009Y5200D03*
X18191Y5200D03*
X14009Y5200D03*
X15191Y5200D03*
X5009Y5200D03*
X6191Y5200D03*
X11009Y5200D03*
X12191Y5200D03*
X8009Y5200D03*
X9191Y5200D03*
G54D19*
X1600Y1500D03*
X24200Y1500D03*
X23800Y22900D03*
X3500Y23200D03*
G54D20*
X20500Y900D03*
X5500Y1500D03*
X8500Y1500D03*
X11500Y1500D03*
X14500Y1500D03*
X17500Y1500D03*
X20500Y2100D03*
X4300Y4300D03*
X7300Y4300D03*
X10300Y4300D03*
X13300Y4300D03*
X16300Y4300D03*
X19300Y4300D03*
X22300Y4300D03*
X7300Y5300D03*
X13300Y5300D03*
X16300Y5300D03*
X22500Y5300D03*
X4200Y6400D03*
X9700Y6300D03*
X12700Y6300D03*
X15700Y6300D03*
X18700Y6300D03*
X21700Y6300D03*
X1600Y12600D03*
X24800Y21800D03*
X6700Y6300D03*
G54D21*
X5800Y15000D03*
X3800Y15000D03*
G54D22*
X9100Y13900D03*
X9100Y14900D03*
X9100Y17900D03*
X9100Y18900D03*
X9100Y19900D03*

M02*
